<svg width="516" height="344" viewBox="0 0 516 344" fill="none" xmlns="http://www.w3.org/2000/svg">
<path d="M396.263 159.357C373.2 101.164 347.879 104.061 280.464 117.952C215.585 125.275 190.882 101.429 156.161 121.972C87.0364 149.607 110.965 245.865 157.943 283.361H387.362C393.481 270.371 414.899 206.724 396.263 159.357Z" fill="#869E7D"/>
<path d="M428.015 240.175C425.744 244.682 415.662 244.385 409.249 242.296C399.765 239.39 385.064 231.702 384.915 215.217C384.967 214.709 385.689 208.449 388.869 207.555C392.824 206.445 397.808 214.42 399.403 213.384C400.194 212.87 399.182 210.774 398.864 207.921C398.149 201.54 401.083 193.045 406.526 191.418C409.1 190.648 412.31 191.397 414.403 193.471C417.774 196.815 415.362 203.569 415.944 203.684C416.769 203.842 417.569 190.007 424.79 186.93C427.335 185.847 430.893 186.003 432.411 187.795C434.651 190.427 431.576 195.489 432.987 196.352C434.477 197.259 437.661 191.495 444.567 189.559C446.336 189.062 450.442 187.911 453.372 190.173C458.162 193.871 456.373 201.588 451.862 203.507C447.586 205.932 444.512 203.345 436.658 204.873C433.912 205.408 430.943 206.37 430.97 207.316C430.991 208.032 432.691 208.071 434.568 209.655C435.319 210.32 437.251 211.895 437.475 214.616C437.715 215.968 436.618 219.777 433.484 219.183C429.019 218.925 423.366 219.982 423.276 220.727C423.17 221.579 430.365 221.934 430.929 224.683C431.398 226.969 427.028 229.634 426.471 229.967C421.749 232.791 416.503 232.295 416.514 232.695C416.521 233.064 420.765 232.39 424.382 234.75C426.072 235.849 428.501 238.179 428.015 240.175ZM123.818 226.007C124.874 230.181 122.385 233.328 118.748 229.976C116.185 226.855 117.576 222.7 117.362 219.052C116.887 206.544 104.435 212.569 97.1025 208.597C99.036 212.367 103.378 214.607 105.605 218.177C108.393 221.818 105.857 227.589 101.108 225.074C98.94 223.616 99.1311 220.733 98.3007 218.424C95.432 211.252 85.7999 210.859 79.2307 212.069C83.7072 215.595 86.9077 220.56 88.0424 225.717C85.2331 225.804 83.2856 222.779 81.1985 220.745C75.467 215.25 66.69 215.968 59.7871 218.324C60.918 225.527 64.3735 233.631 71.9045 236.142C74.6768 237.04 78.257 237.361 79.4889 239.887C74.3966 241.286 68.5168 240.76 63.3067 238.448C65.2933 244.821 70.1343 253.167 77.8146 252.362C80.2441 252.021 82.7063 250.508 85.0073 251.747C89.4384 254.777 85.5243 259.713 80.9985 258.939C76.8024 258.632 72.7972 255.834 68.5607 255.88C73.9871 258.964 74.3388 267.406 80.1531 269.599C85.175 271.442 89.1341 267.478 93.3584 265.593C95.7074 264.269 100.183 264.913 100.41 268.083C99.2916 272.978 87.2292 270.974 85.5563 285.638C94.1384 280.337 107.167 287.928 115.991 283.419C124.385 279.099 129.219 265.589 124.02 257.947C133.712 258.821 143.559 247.117 143.567 237.736C143.447 227.828 130.658 219.835 131.352 209.772C125.96 213.172 123.01 219.521 123.818 226.007ZM108.201 277.585C108.42 281.464 99.7995 281.749 99.7718 277.86C99.5447 273.986 108.166 273.689 108.201 277.585ZM78.0308 245.545C78.1663 247.815 73.1183 247.997 73.097 245.715C72.9618 243.446 78.0121 243.271 78.0308 245.545ZM112.472 230.769C113.409 233.401 110.463 234.416 109.581 231.764C108.637 229.139 111.592 228.124 112.472 230.769Z" fill="#C2D4BA"/>
<path d="M134.564 187.773C131.613 187.978 128.542 187.778 125.848 189.245C122.502 190.723 118.712 195.005 121.132 198.672C120.406 200.177 119.82 201.745 119.381 203.357C117.687 200.848 116.067 198.291 114.521 195.689C114.948 193.985 115.54 192.328 116.291 190.74C121.767 193.458 122.231 184.857 125.254 182.361C126.403 181.239 127.812 180.42 129.355 179.976C129.65 179.891 129.628 179.377 129.291 179.412C126.339 179.618 123.268 179.418 120.575 180.885C117.228 182.362 113.439 186.645 115.858 190.312C115.134 191.813 114.549 193.378 114.11 194.987C112.427 192.118 110.836 189.196 109.341 186.224C109.767 184.537 110.356 182.895 111.099 181.322C116.576 184.039 117.039 175.439 120.062 172.943C121.211 171.821 122.62 171.001 124.163 170.557C124.458 170.472 124.436 169.958 124.099 169.994C121.147 170.199 118.076 169.999 115.383 171.466C112.036 172.943 108.247 177.226 110.667 180.893C109.961 182.354 109.387 183.876 108.952 185.439C107.727 182.975 106.574 180.476 105.493 177.946C105.922 176.207 106.524 174.515 107.289 172.896C112.766 175.614 113.23 167.014 116.253 164.518C117.401 163.396 118.81 162.576 120.353 162.132C120.648 162.047 120.627 161.533 120.289 161.569C117.338 161.774 114.267 161.574 111.573 163.041C108.226 164.518 104.438 168.801 106.857 172.468C106.142 173.949 105.563 175.492 105.126 177.077C103.715 173.719 102.546 170.593 101.585 167.774C102.147 166.035 102.638 164.223 103.47 162.574C108.946 165.291 109.41 156.691 112.433 154.195C113.582 153.073 114.991 152.254 116.534 151.809C116.829 151.725 116.807 151.211 116.47 151.246C113.518 151.451 110.447 151.251 107.754 152.718C104.407 154.196 100.619 158.479 103.038 162.145C102.307 163.66 101.718 165.239 101.278 166.862C99.3801 160.929 97.5566 157.572 100.563 152.584C106.039 155.29 106.498 146.698 109.522 144.202C110.67 143.08 112.079 142.261 113.622 141.816C113.917 141.731 113.895 141.217 113.558 141.253C110.607 141.458 107.536 141.258 104.843 142.725C101.494 144.203 97.7033 148.49 100.129 152.157C99.4131 153.631 98.8245 155.163 98.3698 156.738C97.0477 151.45 97.732 151.295 96.6113 147.072C100.435 142.678 95.1689 137.349 90.867 135.886C90.2863 135.639 84.3503 132.951 85.2194 134.438C92.3715 137.053 89.1742 149.461 96.1068 147.401C97.171 151.832 96.7219 153.363 98.4009 159.236C97.2428 158.13 95.9908 157.127 94.6589 156.238C94.9788 153.622 92.5554 151.841 90.3684 150.984C85.8972 149.326 81.3797 151.397 77.5184 153.597C77.2179 153.733 77.4218 154.202 77.7303 154.124C85.0163 151.449 90.518 162.92 94.5024 156.822C96.0033 157.851 97.4045 159.019 98.6875 160.309C99.5043 163.304 100.662 167.071 102.259 171.39C100.979 170.098 99.5651 168.944 98.0423 167.947C98.2075 164.12 93.6481 161.914 90.2793 161.858C87.0027 161.473 84.0985 163.04 81.1798 164.25C81.1078 164.27 81.0464 164.318 81.0089 164.382C80.9714 164.447 80.9607 164.524 80.9791 164.596C80.9975 164.669 81.0435 164.731 81.1073 164.77C81.1711 164.809 81.2476 164.822 81.3205 164.805C82.7115 164.578 84.135 164.655 85.4937 165.029C86.8524 165.403 88.1144 166.066 89.1933 166.973C91.2542 169.143 95.9864 172.668 97.92 168.554C103.322 171.383 104.298 177.188 106.832 182.356C105.441 181.279 103.927 180.37 102.322 179.649C100.056 171.903 90.0782 175.764 85.0916 178.507C85.0329 178.542 84.9887 178.597 84.9669 178.662C84.9451 178.727 84.9472 178.797 84.9728 178.861C84.9983 178.924 85.0457 178.976 85.1064 179.008C85.167 179.04 85.237 179.049 85.3037 179.033C86.6478 178.618 88.0654 178.497 89.4607 178.676C90.8559 178.856 92.1963 179.333 93.3914 180.075C95.7558 181.999 101.226 184.907 102.335 180.281C107.286 182 108.641 186.069 110.851 190.366C109.023 189.47 107.102 188.777 105.123 188.298C100.958 181.354 92.2685 187.654 88.1733 191.622C88.1258 191.671 88.0974 191.736 88.0934 191.804C88.0894 191.873 88.1099 191.94 88.1513 191.995C88.1928 192.05 88.2523 192.088 88.3193 192.102C88.3863 192.117 88.4563 192.107 88.5168 192.075C89.771 191.287 91.187 190.792 92.6592 190.627C94.1313 190.463 95.6216 190.633 97.0189 191.124C99.7403 192.32 105.373 193.394 105.293 188.929C107.38 189.423 109.362 190.285 111.297 191.191C112.609 193.59 113.984 195.955 115.421 198.282C113.904 197.593 112.317 197.069 110.687 196.721C106.764 189.461 97.7442 195.843 93.6682 199.848C93.6206 199.897 93.5922 199.962 93.5881 200.031C93.5841 200.099 93.6046 200.167 93.646 200.221C93.6874 200.276 93.747 200.314 93.814 200.329C93.881 200.343 93.9511 200.334 94.0115 200.301C95.2658 199.513 96.6818 199.018 98.154 198.854C99.6262 198.689 101.117 198.859 102.514 199.351C105.209 200.496 110.633 201.655 110.799 197.329C112.599 197.728 114.342 198.353 115.984 199.191C117.628 201.816 119.432 204.519 121.275 207.093C119.835 206.405 118.339 205.842 116.803 205.41C114.95 199.884 107.658 201.672 104.164 204.583C103.66 204.945 98.2792 208.649 100.04 208.64C105.824 203.871 115.048 212.968 116.827 206.01C118.603 206.495 120.293 207.255 121.952 208.04C128.074 216.063 135.599 225.879 145.145 233.134C135.32 223.409 125.953 213.555 119.81 203.992C120.235 202.308 120.823 200.67 121.565 199.1C128.007 202.359 127.265 189.445 134.628 188.336C134.924 188.251 134.902 187.737 134.564 187.773ZM116.332 185.514C118.396 181.506 123.231 179.947 127.495 180.088C122.03 181.583 121.824 193.156 116.545 190.21C117.691 187.913 119.16 185.792 120.908 183.912C120.973 181.702 116.334 189.088 116.144 189.735C115.319 188.436 115.653 186.834 116.332 185.514ZM111.14 176.095C113.205 172.087 118.039 170.528 122.303 170.67C116.838 172.164 116.632 183.737 111.353 180.791C112.499 178.494 113.968 176.374 115.716 174.494C115.781 172.283 111.142 179.669 110.952 180.317C110.127 179.017 110.461 177.416 111.14 176.095ZM107.33 167.67C109.395 163.662 114.229 162.104 118.493 162.245C113.029 163.738 112.822 175.312 107.544 172.366C108.69 170.069 110.159 167.948 111.907 166.069C111.971 163.858 107.333 171.244 107.142 171.891C106.318 170.592 106.651 168.99 107.33 167.67ZM103.512 157.347C105.576 153.34 110.41 151.781 114.674 151.922C109.209 153.416 109.003 164.989 103.724 162.044C104.87 159.747 106.34 157.626 108.087 155.746C108.152 153.535 103.514 160.922 103.323 161.569C102.499 160.27 102.832 158.668 103.512 157.347ZM100.6 147.354C102.664 143.346 107.499 141.788 111.762 141.929C106.295 143.426 106.1 154.977 100.82 152.056C101.967 149.76 103.433 147.638 105.176 145.753C105.241 143.538 100.621 150.923 100.416 151.584C99.5857 150.282 99.9192 148.677 100.6 147.354L100.6 147.354ZM91.6752 158.029C87.2698 157.36 84.3484 152.375 79.3999 153.282C83.5386 150.299 93.0619 149.424 94.1078 155.877C93.6319 155.433 85.8914 151.395 87.0214 153.258C89.4904 153.999 91.8416 155.086 94.0046 156.488C93.6759 157.45 92.6974 158.005 91.6752 158.029ZM93.6562 146.802C90.0982 143.946 91.7752 137.898 87.3124 135.097C91.9652 136.479 100.036 140.597 96.4321 146.436C96.3524 145.771 93.2415 137.767 92.8111 139.833C94.1883 142.007 95.2472 144.367 95.9556 146.842C95.259 147.258 94.3614 147.188 93.6562 146.802ZM94.962 169.875C90.5526 168.954 88.0665 163.58 83.0068 164.111C87.444 161.497 96.2972 161.366 97.4875 167.584C96.9101 167.197 89.6214 162.87 90.6505 164.734C93.0206 165.663 95.2895 166.832 97.4217 168.223C97.1588 169.325 96.0452 169.905 94.962 169.875ZM99.2831 182.216C95.0217 181.648 91.9786 177.142 87.2727 178.061C91.6166 175.949 99.3932 173.343 101.696 179.369C101.068 179.107 93.2972 176.061 94.5363 177.681C96.9567 178.267 99.4407 178.993 101.767 180.023C101.813 181.345 100.501 182.2 99.2831 182.216ZM103.269 191.362C98.9231 192.475 94.5877 188.367 90.1536 190.631C93.8008 187.451 100.621 182.922 104.426 188.14C103.782 187.971 96.4959 186.759 97.9238 188.092C100.19 188.04 102.454 188.27 104.664 188.775C105.017 189.856 104.236 190.925 103.269 191.362ZM108.764 199.589C104.418 200.701 100.083 196.593 95.6484 198.858C99.2816 195.642 106.446 191.016 110.015 196.584C109.287 196.422 101.111 195.263 102.564 196.6C105.128 196.513 107.693 196.714 110.212 197.2C110.412 198.234 109.67 199.171 108.764 199.589ZM114.793 207.928C110.447 209.04 106.112 204.932 101.677 207.197C105.287 203.922 112.965 199.186 116.161 205.237C115.448 204.968 107.18 203.497 108.593 204.939C111.181 204.88 113.764 205.187 116.266 205.852C116.27 206.765 115.611 207.549 114.793 207.928ZM128.639 192.134C127.127 194.595 125.83 200.852 121.819 198.57C122.965 196.273 124.434 194.152 126.182 192.272C126.247 190.062 121.608 197.448 121.418 198.096C119.126 191.928 127.636 187.988 132.768 188.448C131.083 189.28 129.656 190.554 128.639 192.134ZM424.369 280.429C429.549 277.701 418.929 271.156 415.963 274.026C413.979 272.343 412.067 270.408 410.785 268.126C413.176 267.204 415.452 266.016 417.667 264.746C419.84 267.684 423.643 269.089 426.897 270.53C426.11 274.344 434.689 275.694 437.025 273.598C441.069 269.463 429.446 266.621 427.265 269.856C424.139 268.475 420.46 267.143 418.328 264.367C420.713 262.971 423.044 261.477 425.405 260.039C427.535 261.841 430.235 262.843 432.99 263.157C433.659 266.328 442.973 267.946 443.988 263.928C444.473 260.317 434.158 258.32 432.979 262.36C430.52 262.007 428.163 261.248 426.078 259.637C429.312 257.679 432.671 255.866 436.26 254.658C437.624 257.982 448.003 255.103 446.879 251.48C446.076 247.776 435.633 250.366 436.07 253.927C432.579 255.104 429.285 256.842 426.092 258.736C426.761 255.52 428.135 252.451 429.507 249.478C433.17 249.932 437.437 241.373 434.393 239.589C430.552 238.044 425.603 246.688 428.779 249.235C427.391 252.436 425.699 255.725 425.293 259.213C422.878 260.671 420.512 262.196 418.079 263.622C417.869 260.23 418.2 256.825 419.059 253.536C422.898 253.716 425.868 244.304 422.558 243.008C418.571 242.148 415.116 250.966 418.329 253.318C417.527 256.738 416.861 260.503 417.453 263.983C415.155 265.354 412.747 266.532 410.254 267.503C409.643 264.452 409.356 261.335 409.751 258.225C413.351 257.542 414.924 248.124 411.495 247.318C407.399 247.009 405.129 256.594 408.99 258.22C408.692 261.36 408.683 264.724 409.648 267.723C407.365 268.564 405.015 269.214 402.624 269.666C402.242 267.62 401.964 265.54 402.054 263.454C405.521 262.632 407.055 253.375 403.655 252.591C399.546 252.236 397.197 262.154 401.298 263.509C401.257 265.612 401.405 267.75 401.923 269.803C398.47 270.429 394.986 270.866 391.485 271.113C389.055 272.972 401.526 270.6 402.36 270.506C402.894 271.622 403.511 272.696 404.207 273.719C401.925 277.431 410.728 283.153 413.429 279.974C415.315 277.059 407.881 271.56 404.817 273.259C404.188 272.332 403.626 271.361 403.135 270.353C405.51 269.869 407.846 269.208 410.123 268.375C411.278 270.848 413.468 272.866 415.504 274.639C414.385 278.216 421.497 281.561 424.369 280.429ZM428.005 269.874C429.913 267.809 439.735 269.621 436.697 273.174C434.788 275.095 426.777 273.652 427.399 270.724C427.966 270.884 433.381 273.043 431.952 271.286C430.544 270.963 429.157 270.553 427.8 270.059C427.865 269.993 427.933 269.932 428.005 269.874ZM434.122 261.564C436.098 259.752 443.529 260.864 443.455 263.862C442.406 267.137 434.54 265.726 433.588 263.24C434.202 263.242 441.151 264.029 439.185 262.643C437.29 262.662 435.376 262.651 433.512 262.429C433.61 262.079 433.825 261.774 434.122 261.564ZM440.868 250.489C443.502 249.797 446.017 250.313 446.36 251.617C447.183 254.597 438.068 257.116 436.782 254.487C438.432 253.949 440.13 253.568 441.852 253.349C443.704 251.602 437.194 253.557 436.612 253.746C436.721 252.521 438.513 251.108 440.868 250.489ZM429.463 243.162C436.725 233.407 436.253 247.874 429.779 248.95C430.549 247.459 431.495 246.067 432.597 244.803C432.703 242.292 429.281 248.147 429.029 248.748C427.924 248.024 428.112 245.496 429.463 243.162ZM418.241 247.308C424.073 236.298 425.635 251.486 419.201 253.008C419.739 251.071 420.462 249.19 421.359 247.39C420.893 244.823 418.645 252.144 418.478 252.769C417.458 252.044 417.324 249.678 418.241 247.308ZM407.835 252.198C411.968 240.667 415.658 254.8 409.819 257.646C410.065 255.75 410.518 253.834 411.357 252.178C410.703 249.557 408.973 256.959 409.052 257.677C407.787 257.31 407.23 254.831 407.835 252.198H407.835ZM401.268 262.968C398.395 262.211 399.953 252.823 403.532 253.114C406.569 254.741 404.691 261.737 402.073 262.887C402.114 262.105 402.193 261.325 402.309 260.551C401.438 258.741 401.341 262.396 401.317 262.974C401.301 262.97 401.284 262.972 401.268 262.968ZM405.503 273.58C407.988 272.575 416.231 278.233 411.976 280.308C409.429 281.204 402.938 276.532 404.537 274.161C404.671 274.873 409.887 279.431 409.039 277.022C407.423 276.275 406.173 275.081 405.14 273.695C405.258 273.645 405.379 273.607 405.503 273.58ZM419.505 279.252C417.141 278.127 415.575 276.226 415.946 274.997C417.654 276.363 419.598 277.449 421.819 277.563C422.311 277.588 422.316 276.821 421.827 276.796C419.77 276.69 417.959 275.649 416.381 274.376C422.264 271.306 431.114 283.22 419.505 279.252Z" fill="#008F78"/>
<path d="M406.039 240.905C400.122 217.108 384.883 216.988 376.191 195.096C366.347 170.302 405.2 154.326 383.275 120.74C370.666 101.423 332.782 103.107 316.475 109.544C289.044 120.373 284.758 127.953 259.378 130.815C216.688 135.631 191.046 97.1543 158.246 107.491C138.51 113.711 129.386 132.181 130.63 149.101C131.755 164.401 136.014 169.651 132.123 186.793C127.932 205.253 116.133 208.023 112.717 222.618C110.346 232.753 116.107 259.52 135.574 282.403L373.246 283.341C395.128 283.963 411.148 261.519 406.039 240.905Z" fill="#A5BD9C"/>
<path d="M299.229 101.396C303.316 75.1995 279.626 48.0977 256.996 62.0988C229.802 53.8678 209.46 91.6202 228.875 120.351C209.541 173.988 253.994 202.617 285.735 169.733C280.307 143.82 294.001 125.75 299.229 101.396Z" fill="#252E51"/>
<path d="M286.178 163.227L262.085 200.185L231.109 166.044C237.361 163.968 246.465 161.657 250.759 160.766H273.614C275.978 161.123 282.294 162.293 286.178 163.227Z" fill="white"/>
<path d="M277.959 161.513C274.187 180.651 249.515 181.201 244.79 162.154C248.41 161.253 250.759 160.764 250.759 160.764C254.41 160.91 274.722 160.25 277.958 161.513H277.959Z" fill="#008F78"/>
<path d="M320.57 249.387H201.425C201.425 249.387 199.294 189.174 205.508 180.475C209.209 175.452 227.253 167.189 237.262 164.025L262.086 200.184L284.777 165.374L286.179 163.227C286.181 163.226 286.183 163.227 286.185 163.227C286.187 163.228 286.189 163.229 286.191 163.231C297.165 165.314 313.04 174.211 317.559 180.475C323.776 189.174 320.57 249.387 320.57 249.387Z" fill="#008F78"/>
<path d="M273.413 161.537C272.616 173.763 254.134 179.559 250.76 160.772C251.644 156.359 254.338 142.053 255.166 137.875L270.401 138.185L270.496 138.917L273.413 161.537Z" fill="#F9CBCB"/>
<path d="M273.412 161.536C273.329 163.111 272.928 164.653 272.233 166.069C269.378 155.074 268.567 143.336 253.961 144.293L255.161 138.047L270.396 138.357L270.496 138.916L273.412 161.536Z" fill="#EBB0B0"/>
<path d="M236.507 112.177L240.381 124.721C240.255 124.679 240.12 124.671 239.989 124.697L239.967 124.628C220.293 123.88 218.814 103.341 232.285 105.745C232.788 108.133 234.867 110.166 236.507 112.177ZM287.655 126.222C287.182 126.342 286.723 126.392 286.178 126.497C286.243 126.337 288.422 115.203 288.525 114.695C289.908 112.506 291.065 110.183 291.977 107.76C303.657 104.08 306.55 121.745 287.655 126.222ZM295.277 95.1797C294.768 97.7925 294.119 100.255 293.181 102.564C293.191 101.965 293.25 96.803 293.275 96.3661C293.708 95.9738 294.229 95.7203 295.277 95.1797Z" fill="#F9CBCB"/>
<path d="M233.287 94.7443C233.19 96.0959 233.036 99.4726 232.976 100.863C232.123 98.413 230.864 95.7907 231.207 93.375C231.867 93.6106 232.925 94.4868 233.287 94.7443Z" fill="#EBB0B0"/>
<path d="M294.845 105.823C293.53 138.811 256.482 157.125 236.793 124.389C208.25 71.8924 291.22 42.2284 294.845 105.823Z" fill="#F9CBCB"/>
<path d="M263.837 69.4715C263.313 69.4571 262.801 69.5027 262.283 69.5163C302.284 72.0404 299.523 141.376 260.871 141.76C302.407 143.513 307.167 71.3441 263.837 69.4715Z" fill="#EBB0B0"/>
<path d="M232.275 108.004C240.803 99.4692 248.072 90.3673 248.657 78.2601C260.534 103.001 291.097 89.6527 291.664 118.037C295.483 114.122 296.514 98.0349 295.067 90.4666C293.598 82.7723 269.967 67.0457 265.974 66.0851C253.854 65.3522 244.262 69.0933 235.302 72.4948L230.069 84.7949C230.069 84.7949 228.22 99.8065 232.275 108.004Z" fill="#EBB0B0"/>
<path d="M231.195 105.25C239.725 96.7152 248.294 87.9371 248.878 75.8306C260.757 100.571 291.32 87.2227 291.887 115.608C295.705 111.693 296.736 95.6056 295.289 88.0372C293.82 80.3426 270.189 64.6153 266.197 63.6556C254.077 62.922 244.485 66.6626 235.524 70.0653L230.292 82.3654C229.471 82.4044 224.059 95.7229 231.195 105.25Z" fill="#252E51"/>
<g style="mix-blend-mode:multiply">
<path d="M283.299 189.821L288.701 197.367L262.197 220.218L235.469 197.367L241.592 189.639L225.748 176.269L235.44 164.633C236.046 164.427 236.652 164.226 237.261 164.029L262.085 200.188L284.776 165.377L286.19 163.234C287.018 163.425 287.864 163.627 288.73 163.843L299.494 176.269L283.299 189.821Z" fill="#D1D3D4"/>
</g>
<g style="mix-blend-mode:multiply">
<path d="M261.058 226.132C260.985 221.081 268.919 221.081 268.845 226.133C268.919 231.184 260.984 231.184 261.058 226.132Z" fill="#D1D3D4"/>
</g>
<g style="mix-blend-mode:multiply">
<path d="M261.058 239.171C260.985 234.12 268.919 234.12 268.845 239.172C268.919 244.223 260.984 244.223 261.058 239.171Z" fill="#D1D3D4"/>
</g>
<path d="M258.868 226.132C258.794 221.081 266.729 221.081 266.655 226.133C266.728 231.184 258.794 231.184 258.868 226.132ZM258.868 239.175C258.794 234.124 266.729 234.124 266.655 239.176C266.728 244.227 258.794 244.227 258.868 239.175Z" fill="#646A6C"/>
<path d="M296.634 176.273L286.178 163.234L262.369 199.757L238.56 163.234L228.104 176.273L244.652 189.535L238.561 197.517L262.47 217.957L286.178 197.517L280.087 189.535L296.634 176.273Z" fill="#008F78"/>
<path d="M227.197 162.365C227.197 162.365 243.361 186.263 238.257 203.484C238.257 203.484 258.282 184.767 250.759 160.765C243.236 136.764 236.921 141.236 236.921 141.236L227.197 162.365Z" fill="#252E51"/>
<g style="mix-blend-mode:multiply">
<path d="M250.76 160.771C246.446 147.009 242.53 142.61 239.974 141.359C252.594 161.192 250.18 182.933 238.258 203.49C238.258 203.49 258.283 184.773 250.76 160.771Z" fill="#D1D3D4"/>
</g>
<path d="M252.295 137.914C251.702 137.755 251.07 137.835 250.536 138.137C250.001 138.439 249.606 138.939 249.436 139.528C228.889 145.305 212.344 135.01 217.27 114.231L214.63 113.578C208.701 137.417 229.685 148.433 250.351 142.1C253.311 144.146 255.763 138.872 252.295 137.914Z" fill="white"/>
<g style="mix-blend-mode:multiply">
<path d="M216.376 114.016C215.001 120.417 215.806 126.308 218.604 130.834C216.237 126.246 215.729 120.46 217.27 114.237L216.376 114.016ZM253.291 138.489C253.815 140.492 251.327 142.16 249.672 140.905C237.56 144.27 222.699 143.109 216.213 132.137C222.259 144.127 237.786 145.634 250.35 142.105C252.636 143.799 255.389 140.352 253.291 138.489V138.489Z" fill="#CCCCCC"/>
</g>
<path d="M298.111 105.986H293.577C300.216 48.191 221.083 48.2322 227.737 105.986H223.204C216.437 42.2329 304.894 42.2767 298.111 105.986Z" fill="#646A6C"/>
<path d="M298.111 105.986H293.577C300.216 48.191 221.083 48.2322 227.737 105.986H223.204C216.437 42.2329 304.894 42.2767 298.111 105.986Z" fill="#646A6C"/>
<path d="M298.111 105.986H293.577C300.216 48.191 221.083 48.2322 227.737 105.986H223.204C216.437 42.2329 304.894 42.2767 298.111 105.986Z" fill="white"/>
<g style="mix-blend-mode:multiply">
<path d="M259.377 61.5625C235.486 61.7443 223.713 83.213 226.458 105.06H223.204V105.98H227.738V95.4025C226.957 69.5889 258.536 53.1909 279.183 68.207C273.484 63.8892 266.528 61.5555 259.377 61.5625Z" fill="#CCCCCC"/>
<path d="M281.895 64.5781C294.592 73.2548 298.119 90.041 296.831 105.063H293.577V105.983H298.111C299.477 90.2058 295.543 73.2466 281.895 64.5781Z" fill="white"/>
</g>
<path d="M225.471 102.093C224.935 102.093 224.405 101.987 223.91 101.782C223.414 101.577 222.965 101.277 222.586 100.898C222.207 100.519 221.906 100.069 221.701 99.5741C221.496 99.079 221.391 98.5484 221.391 98.0126C221.054 95.0736 221.87 91.5196 225.471 91.5156C226.553 91.5157 227.591 91.9457 228.356 92.7109C229.121 93.4761 229.551 94.5139 229.551 95.596C229.888 98.5348 229.072 102.089 225.471 102.093Z" fill="#58595B"/>
<g style="mix-blend-mode:multiply">
<path d="M226.848 91.7578C228.209 92.9425 227.986 95.3406 227.978 96.9882C228.033 99.7591 225.098 101.81 222.521 100.825C224.867 103.474 229.678 101.612 229.551 98.0116C229.739 95.6543 229.499 92.544 226.848 91.7578Z" fill="#CCCCCC"/>
</g>
<path d="M295.663 102.093C296.745 102.093 297.783 101.663 298.549 100.898C299.314 100.133 299.744 99.0948 299.744 98.0126C300.08 95.0736 299.265 91.5196 295.663 91.5156C294.581 91.5157 293.543 91.9456 292.778 92.7108C292.013 93.476 291.583 94.5138 291.583 95.596C291.247 98.5348 292.062 102.089 295.663 102.093Z" fill="#58595B"/>
<g style="mix-blend-mode:multiply">
<path d="M294.287 91.7578C292.927 92.9425 293.149 95.3406 293.158 96.9882C293.102 99.7591 296.037 101.81 298.615 100.825C296.268 103.474 291.457 101.612 291.584 98.0116C291.397 95.6543 291.636 92.544 294.287 91.7578Z" fill="#CCCCCC"/>
</g>
<path d="M211.496 112.762C211.019 118.987 215.858 124.473 222.164 124.442V102.094C220.763 102.094 219.376 102.37 218.082 102.906C216.787 103.442 215.611 104.228 214.621 105.218C213.63 106.209 212.844 107.385 212.308 108.679C211.772 109.973 211.496 111.361 211.496 112.762Z" fill="#035F50"/>
<g style="mix-blend-mode:multiply">
<path d="M211.533 111.906C210.683 118.385 215.48 124.496 222.164 124.441V121.721C219.483 121.72 216.9 120.71 214.93 118.891C212.96 117.073 211.748 114.579 211.533 111.906Z" fill="#CCCCCC"/>
</g>
<path d="M224.911 98.0938C223.916 98.0937 222.931 98.2896 222.012 98.6702C221.094 99.0508 220.259 99.6087 219.555 100.312C218.852 101.015 218.294 101.85 217.913 102.769C217.533 103.688 217.337 104.673 217.337 105.668V122.363C217.337 124.372 218.135 126.298 219.555 127.718C220.976 129.139 222.902 129.937 224.911 129.937C226.92 129.937 228.846 129.139 230.267 127.718C231.687 126.298 232.485 124.372 232.485 122.363V105.668C232.485 104.673 232.289 103.688 231.908 102.769C231.528 101.85 230.97 101.015 230.266 100.312C229.563 99.6089 228.728 99.051 227.809 98.6704C226.89 98.2898 225.906 98.0937 224.911 98.0938Z" fill="#008F78"/>
<g style="mix-blend-mode:multiply">
<path d="M227.217 98.4531C230.455 101.172 228.485 116.325 228.992 120.015C229.082 125.057 223.868 128.834 219.111 127.229C223.28 132.587 232.732 129.28 232.485 122.361V105.667C232.485 104.061 231.974 102.497 231.027 101.201C230.081 99.9043 228.746 98.9421 227.217 98.4531Z" fill="#CCCCCC"/>
</g>
<path d="M299.578 101.656V124.005C313.698 123.993 313.69 101.666 299.578 101.656Z" fill="#035F50"/>
<g style="mix-blend-mode:multiply">
<path d="M310.209 111.469C311.059 117.947 306.262 124.058 299.578 124.003V121.283C302.259 121.283 304.842 120.272 306.812 118.454C308.782 116.635 309.994 114.141 310.209 111.469V111.469Z" fill="#CCCCCC"/>
</g>
<path d="M296.831 97.6563C295.836 97.6563 294.851 97.8522 293.932 98.2328C293.013 98.6134 292.178 99.1713 291.475 99.8746C290.772 100.578 290.214 101.413 289.833 102.332C289.453 103.251 289.257 104.236 289.257 105.23V121.925C289.257 123.934 290.055 125.86 291.475 127.281C292.896 128.701 294.822 129.499 296.831 129.499C298.84 129.499 300.766 128.701 302.187 127.281C303.607 125.86 304.405 123.934 304.405 121.925V105.23C304.405 104.236 304.209 103.251 303.828 102.332C303.448 101.413 302.89 100.578 302.186 99.8745C301.483 99.1712 300.648 98.6133 299.729 98.2327C298.81 97.8521 297.825 97.6562 296.831 97.6563Z" fill="#008F78"/>
<g style="mix-blend-mode:multiply">
<path d="M294.525 98.0156C291.286 100.735 293.257 115.888 292.75 119.577C292.66 124.62 297.873 128.397 302.63 126.791C298.461 132.149 289.01 128.842 289.257 121.924V105.229C289.257 103.624 289.767 102.06 290.714 100.763C291.661 99.4669 292.995 98.5046 294.525 98.0156Z" fill="#CCCCCC"/>
</g>
<path d="M251.019 137.267C252.784 130.808 262.617 133.449 260.909 139.923C259.144 146.383 249.311 143.741 251.019 137.267Z" fill="#58595B"/>
<g style="mix-blend-mode:multiply">
<path d="M260.253 140.709C257.374 144.892 250.395 142.12 251.045 137.188C249.13 144.267 260.282 146.354 261.058 139.064C260.891 139.657 260.618 140.214 260.253 140.709Z" fill="#CCCCCC"/>
</g>
<g style="mix-blend-mode:multiply">
<path d="M253.235 135.79C253.237 135.712 253.269 135.638 253.325 135.584C253.38 135.53 253.455 135.5 253.532 135.5C253.61 135.5 253.684 135.53 253.74 135.584C253.795 135.638 253.827 135.712 253.829 135.79C253.827 135.867 253.795 135.941 253.74 135.995C253.684 136.049 253.61 136.08 253.532 136.08C253.455 136.08 253.38 136.049 253.325 135.995C253.269 135.941 253.237 135.867 253.235 135.79ZM254.758 135.288C254.835 135.286 254.909 135.254 254.963 135.199C255.018 135.143 255.048 135.069 255.048 134.991C255.048 134.914 255.018 134.839 254.963 134.784C254.909 134.728 254.835 134.696 254.758 134.694C254.68 134.696 254.606 134.728 254.552 134.784C254.498 134.839 254.468 134.914 254.468 134.991C254.468 135.069 254.498 135.143 254.552 135.199C254.606 135.254 254.68 135.286 254.758 135.288ZM256.504 135.149C256.581 135.147 256.655 135.115 256.709 135.059C256.763 135.004 256.794 134.929 256.794 134.852C256.794 134.774 256.763 134.7 256.709 134.644C256.655 134.589 256.581 134.557 256.504 134.555C256.426 134.557 256.352 134.589 256.298 134.644C256.244 134.7 256.214 134.774 256.214 134.852C256.214 134.929 256.244 135.004 256.298 135.059C256.352 135.115 256.426 135.147 256.504 135.149ZM257.711 135.687C257.788 135.685 257.862 135.653 257.916 135.598C257.97 135.542 258 135.468 258 135.39C258 135.313 257.97 135.238 257.916 135.183C257.862 135.127 257.788 135.095 257.711 135.093C257.633 135.095 257.559 135.127 257.505 135.183C257.451 135.238 257.421 135.313 257.421 135.39C257.421 135.468 257.451 135.542 257.505 135.598C257.559 135.653 257.633 135.685 257.711 135.687ZM257.413 136.681C257.491 136.679 257.565 136.647 257.619 136.592C257.673 136.536 257.704 136.462 257.704 136.384C257.704 136.306 257.673 136.232 257.619 136.176C257.565 136.121 257.491 136.089 257.413 136.087C257.336 136.089 257.262 136.121 257.208 136.176C257.154 136.232 257.123 136.306 257.123 136.384C257.123 136.462 257.154 136.536 257.208 136.592C257.262 136.647 257.336 136.679 257.413 136.681ZM258.819 136.787C258.896 136.785 258.969 136.752 259.022 136.697C259.076 136.642 259.106 136.567 259.106 136.49C259.106 136.413 259.076 136.339 259.022 136.284C258.969 136.228 258.896 136.196 258.819 136.193C258.742 136.196 258.669 136.228 258.615 136.284C258.562 136.339 258.532 136.413 258.532 136.49C258.532 136.567 258.562 136.642 258.615 136.697C258.669 136.752 258.742 136.785 258.819 136.787ZM259.045 138.092C259.123 138.09 259.196 138.058 259.251 138.003C259.305 137.947 259.335 137.873 259.335 137.795C259.335 137.717 259.305 137.643 259.25 137.588C259.196 137.532 259.123 137.5 259.045 137.498C258.968 137.5 258.894 137.532 258.84 137.588C258.786 137.643 258.755 137.718 258.755 137.795C258.755 137.873 258.786 137.947 258.84 138.003C258.894 138.058 258.968 138.09 259.045 138.092ZM259.413 139.41C259.491 139.408 259.565 139.376 259.619 139.32C259.673 139.265 259.703 139.19 259.703 139.112C259.703 139.035 259.673 138.96 259.619 138.905C259.565 138.849 259.491 138.817 259.413 138.815C259.336 138.817 259.262 138.849 259.208 138.905C259.154 138.96 259.123 139.035 259.123 139.112C259.123 139.19 259.154 139.265 259.208 139.32C259.262 139.376 259.336 139.408 259.413 139.41ZM258.155 139.234C258.232 139.231 258.305 139.199 258.359 139.144C258.412 139.088 258.442 139.014 258.442 138.937C258.442 138.86 258.412 138.786 258.359 138.731C258.305 138.675 258.232 138.643 258.155 138.64C258.077 138.642 258.004 138.674 257.949 138.73C257.895 138.785 257.865 138.86 257.865 138.937C257.865 139.015 257.895 139.089 257.949 139.145C258.004 139.2 258.077 139.232 258.155 139.234V139.234ZM258.819 140.743C258.896 140.741 258.97 140.709 259.024 140.654C259.079 140.598 259.109 140.524 259.109 140.446C259.109 140.369 259.079 140.294 259.024 140.238C258.97 140.183 258.896 140.151 258.819 140.149C258.741 140.151 258.668 140.183 258.613 140.238C258.559 140.294 258.529 140.369 258.529 140.446C258.529 140.524 258.559 140.598 258.613 140.654C258.668 140.709 258.741 140.741 258.819 140.743ZM257.477 141.338C257.554 141.336 257.628 141.304 257.682 141.248C257.737 141.192 257.767 141.118 257.767 141.04C257.767 140.963 257.737 140.888 257.682 140.833C257.628 140.777 257.554 140.745 257.477 140.743C257.4 140.746 257.327 140.778 257.273 140.834C257.22 140.889 257.19 140.963 257.19 141.04C257.19 141.117 257.22 141.191 257.273 141.247C257.327 141.302 257.4 141.335 257.477 141.338ZM256.073 142.168C256.151 142.166 256.225 142.134 256.279 142.079C256.333 142.023 256.363 141.949 256.363 141.871C256.363 141.793 256.333 141.719 256.279 141.663C256.225 141.608 256.151 141.576 256.073 141.574C255.996 141.576 255.922 141.608 255.868 141.663C255.814 141.719 255.783 141.793 255.783 141.871C255.783 141.949 255.814 142.023 255.868 142.079C255.922 142.134 255.996 142.166 256.073 142.168ZM254.758 140.979C254.679 140.979 254.603 141.011 254.548 141.067C254.492 141.122 254.461 141.198 254.461 141.277C254.461 141.356 254.492 141.431 254.548 141.487C254.604 141.543 254.679 141.574 254.758 141.574C254.837 141.574 254.912 141.543 254.968 141.487C255.024 141.431 255.055 141.355 255.055 141.277C255.055 141.198 255.024 141.122 254.968 141.066C254.912 141.011 254.837 140.979 254.758 140.979ZM253.279 141.04C253.356 141.038 253.429 141.005 253.482 140.95C253.536 140.894 253.566 140.82 253.566 140.743C253.566 140.666 253.536 140.592 253.482 140.536C253.429 140.481 253.356 140.448 253.279 140.446C253.202 140.448 253.128 140.481 253.075 140.536C253.021 140.592 252.991 140.666 252.991 140.743C252.991 140.82 253.021 140.894 253.075 140.95C253.128 141.005 253.202 141.038 253.279 141.04ZM257.413 137.912C257.491 137.911 257.565 137.878 257.619 137.823C257.673 137.767 257.704 137.693 257.704 137.615C257.704 137.538 257.673 137.463 257.619 137.408C257.565 137.352 257.491 137.32 257.413 137.318C257.336 137.32 257.262 137.352 257.208 137.408C257.154 137.463 257.123 137.538 257.123 137.615C257.123 137.693 257.154 137.767 257.208 137.823C257.262 137.878 257.336 137.911 257.413 137.912ZM256.132 138.719C256.211 138.719 256.287 138.688 256.342 138.632C256.398 138.576 256.429 138.501 256.429 138.422C256.429 138.343 256.398 138.268 256.342 138.212C256.287 138.156 256.211 138.125 256.132 138.125C256.053 138.125 255.978 138.156 255.922 138.212C255.866 138.268 255.835 138.343 255.835 138.422C255.835 138.501 255.866 138.576 255.922 138.632C255.978 138.688 256.053 138.719 256.132 138.719ZM254.842 139.369C254.919 139.366 254.992 139.334 255.045 139.278C255.099 139.223 255.129 139.149 255.129 139.072C255.129 138.995 255.099 138.921 255.045 138.865C254.992 138.81 254.919 138.778 254.842 138.775C254.765 138.778 254.692 138.81 254.638 138.865C254.584 138.921 254.554 138.995 254.554 139.072C254.554 139.149 254.584 139.223 254.638 139.278C254.692 139.334 254.765 139.366 254.842 139.369ZM252.762 139.41C252.839 139.408 252.913 139.376 252.967 139.32C253.021 139.265 253.052 139.19 253.052 139.112C253.052 139.035 253.021 138.96 252.967 138.905C252.913 138.849 252.839 138.817 252.762 138.815C252.684 138.817 252.61 138.849 252.556 138.905C252.502 138.96 252.472 139.035 252.472 139.112C252.472 139.19 252.502 139.265 252.556 139.32C252.61 139.376 252.684 139.408 252.762 139.41ZM254.043 140.149C254.122 140.149 254.198 140.118 254.253 140.062C254.309 140.006 254.34 139.931 254.34 139.852C254.34 139.773 254.309 139.697 254.253 139.642C254.198 139.586 254.122 139.555 254.043 139.555C253.964 139.555 253.889 139.586 253.833 139.642C253.777 139.697 253.746 139.773 253.746 139.852C253.746 139.931 253.777 140.006 253.833 140.062C253.889 140.118 253.964 140.149 254.043 140.149ZM255.724 140.548C255.8 140.545 255.873 140.512 255.926 140.457C255.979 140.401 256.008 140.328 256.008 140.251C256.008 140.174 255.979 140.101 255.926 140.045C255.873 139.99 255.8 139.957 255.724 139.954C255.647 139.957 255.574 139.989 255.52 140.045C255.466 140.1 255.436 140.174 255.436 140.251C255.436 140.328 255.466 140.402 255.52 140.458C255.574 140.513 255.647 140.545 255.724 140.548ZM257.116 139.889C257.193 139.886 257.266 139.854 257.32 139.799C257.374 139.743 257.404 139.669 257.404 139.592C257.404 139.515 257.374 139.441 257.32 139.385C257.266 139.33 257.193 139.297 257.116 139.295C257.039 139.297 256.966 139.33 256.913 139.385C256.859 139.441 256.829 139.515 256.829 139.592C256.829 139.669 256.859 139.743 256.913 139.799C256.966 139.854 257.039 139.886 257.116 139.889ZM256.318 137.382C256.397 137.382 256.472 137.351 256.528 137.295C256.584 137.239 256.615 137.163 256.615 137.085C256.615 137.006 256.584 136.93 256.528 136.874C256.472 136.819 256.397 136.787 256.318 136.787C256.239 136.787 256.163 136.819 256.108 136.874C256.052 136.93 256.021 137.006 256.021 137.085C256.021 137.163 256.052 137.239 256.108 137.295C256.163 137.351 256.239 137.382 256.318 137.382ZM255.889 136.087C255.966 136.085 256.04 136.053 256.094 135.997C256.148 135.942 256.179 135.867 256.179 135.79C256.179 135.712 256.148 135.637 256.094 135.582C256.04 135.526 255.966 135.494 255.889 135.492C255.81 135.492 255.734 135.524 255.679 135.579C255.623 135.635 255.591 135.711 255.591 135.79C255.591 135.868 255.623 135.944 255.679 136C255.734 136.056 255.81 136.087 255.889 136.087ZM254.34 136.876C254.417 136.873 254.49 136.841 254.544 136.785C254.597 136.73 254.627 136.656 254.627 136.579C254.627 136.502 254.597 136.428 254.544 136.372C254.49 136.317 254.417 136.284 254.34 136.282C254.263 136.284 254.19 136.317 254.136 136.372C254.083 136.428 254.053 136.502 254.053 136.579C254.053 136.656 254.083 136.73 254.136 136.785C254.19 136.841 254.263 136.873 254.34 136.876ZM255.055 137.976C255.133 137.974 255.207 137.942 255.261 137.887C255.315 137.831 255.345 137.757 255.345 137.679C255.345 137.601 255.315 137.527 255.261 137.471C255.207 137.416 255.133 137.384 255.055 137.382C254.978 137.384 254.904 137.416 254.85 137.471C254.795 137.527 254.765 137.601 254.765 137.679C254.765 137.757 254.795 137.831 254.85 137.887C254.904 137.942 254.978 137.974 255.055 137.976ZM253.653 138.64C253.731 138.638 253.805 138.606 253.859 138.551C253.913 138.495 253.943 138.42 253.943 138.343C253.943 138.265 253.913 138.191 253.859 138.135C253.805 138.08 253.731 138.048 253.653 138.046C253.576 138.048 253.502 138.08 253.448 138.135C253.393 138.191 253.363 138.265 253.363 138.343C253.363 138.42 253.393 138.495 253.448 138.551C253.502 138.606 253.576 138.638 253.653 138.64ZM253.059 137.382C253.138 137.382 253.213 137.351 253.269 137.295C253.325 137.239 253.356 137.163 253.356 137.085C253.356 137.006 253.325 136.93 253.269 136.874C253.213 136.819 253.138 136.787 253.059 136.787C252.98 136.787 252.905 136.819 252.849 136.874C252.793 136.93 252.762 137.006 252.762 137.085C252.762 137.163 252.793 137.239 252.849 137.295C252.905 137.351 252.98 137.382 253.059 137.382Z" fill="#CCCCCC"/>
</g>
<path d="M193.242 191.719H329.579C330.887 191.719 332.141 192.238 333.066 193.163C333.991 194.088 334.511 195.343 334.511 196.651V272.197C334.511 273.505 333.991 274.76 333.066 275.685C332.141 276.61 330.887 277.129 329.579 277.13H193.242C191.933 277.13 190.679 276.61 189.754 275.685C188.829 274.76 188.31 273.506 188.31 272.198V196.651C188.31 195.343 188.829 194.088 189.754 193.163C190.679 192.239 191.933 191.719 193.242 191.719V191.719Z" fill="white"/>
<path d="M317.891 191.719C313.907 267.635 246.98 267.793 188.31 264.934C188.517 269.051 186.79 277.057 193.242 277.129L329.579 277.13C330.226 277.129 330.868 277.002 331.466 276.754C332.065 276.506 332.608 276.143 333.066 275.685C333.524 275.227 333.887 274.683 334.135 274.085C334.383 273.486 334.511 272.845 334.511 272.197V196.651C334.511 196.003 334.383 195.362 334.135 194.763C333.887 194.165 333.524 193.621 333.066 193.163C332.608 192.705 332.065 192.342 331.466 192.094C330.868 191.846 330.226 191.719 329.579 191.719H317.891Z" fill="#EBEBF5"/>
<path d="M253.879 234.425C254.048 224.524 268.774 224.526 268.941 234.425C268.772 244.324 254.046 244.323 253.879 234.425Z" fill="#CDCEE7"/>
<path d="M449.394 285.804L73.9358 285.102C73.3895 285.101 72.8487 284.992 72.3443 284.782C71.8399 284.572 71.3819 284.265 70.9963 283.878C70.6107 283.491 70.3051 283.032 70.0969 282.526C69.8888 282.021 69.7822 281.48 69.7832 280.934C69.7842 280.387 69.8928 279.847 70.1028 279.342C70.3129 278.838 70.6201 278.38 71.0072 277.994C71.3942 277.609 71.8534 277.303 72.3585 277.095C72.8636 276.887 73.4048 276.78 73.9511 276.781L449.41 277.483C454.769 277.503 454.898 285.789 449.394 285.804Z" fill="#B5C8AD"/>
<path d="M377.555 224.824C369.577 231.247 381.748 238.631 374.09 244.888C376.521 240.937 374.122 237.115 373.003 233.291C372.106 229.854 373.81 225.535 377.555 224.824ZM351.655 224.999C354.499 233.29 365.918 233.62 359.645 244.712C362.256 233.226 351.392 234.662 351.655 224.999ZM365.505 221.387C370.083 224.821 373.569 217.557 370.215 214.419C367.876 212.501 363.952 213.23 362.056 215.471C359.496 218.416 360.912 222.627 363.051 225.518C366.194 230.655 370.775 238.089 366.629 243.805C370.36 235.48 361.264 228.887 358.881 221.648C356.447 214.593 365.821 208.131 371.332 213.314C375.35 217.192 370.498 226.151 365.505 221.387ZM380.266 254.12C367.16 258.723 372.223 273.891 385.465 269.7C398.571 265.097 393.508 249.93 380.266 254.12ZM384.865 267.902C374.677 271.133 370.781 259.451 380.866 255.917C391.053 252.687 394.95 264.37 384.865 267.902Z" fill="white"/>
<path d="M351.292 249.547C347.087 249.535 348.146 254.976 348.043 257.669C348.042 260.971 348.917 264.214 350.579 267.067C352.241 269.921 354.63 272.283 357.502 273.912H375.942C383.426 270.019 386.235 261.075 385.401 252.795C385.401 252.369 385.317 251.946 385.154 251.552C384.991 251.158 384.752 250.8 384.45 250.498C384.148 250.197 383.79 249.957 383.396 249.794C383.002 249.631 382.58 249.547 382.153 249.547L351.292 249.547Z" fill="white"/>
<path d="M379.311 276.842H354.134C354.134 275.981 354.476 275.155 355.085 274.545C355.695 273.936 356.521 273.594 357.383 273.594H376.062C376.489 273.594 376.911 273.678 377.305 273.841C377.699 274.004 378.058 274.244 378.359 274.545C378.661 274.847 378.9 275.205 379.064 275.599C379.227 275.993 379.311 276.416 379.311 276.842Z" fill="white"/>
<path d="M385.402 252.787C386.232 261.072 383.429 270.009 375.938 273.906C375.852 273.838 357.475 274.008 357.422 273.862C367.858 271.329 383.172 264.961 379.931 249.54C382.325 249.298 385.396 249.754 385.402 252.787Z" fill="#EBEBF5"/>
<path d="M165.527 268.789V275.918H144.804C143.859 275.918 142.952 275.543 142.283 274.874C141.615 274.206 141.239 273.299 141.239 272.354C141.239 271.408 141.615 270.502 142.283 269.833C142.952 269.165 143.859 268.789 144.804 268.789H165.527Z" fill="white"/>
<path d="M144.804 268.783C141.693 268.783 139.499 272.789 143.109 275.913H165.528V277.321H105.399V267.375H165.528V268.783H144.804Z" fill="#008F78"/>
<path d="M141.238 272.349C141.239 273.294 141.615 274.2 142.284 274.869C142.953 275.537 143.859 275.912 144.804 275.913H165.528V277.321H144.804C143.485 277.321 142.22 276.797 141.288 275.864C140.355 274.932 139.831 273.667 139.831 272.348C139.831 271.029 140.355 269.764 141.288 268.832C142.22 267.899 143.485 267.375 144.804 267.375H165.528V268.783H144.804C143.859 268.784 142.952 269.161 142.284 269.829C141.615 270.498 141.239 271.404 141.238 272.349Z" fill="#008F78"/>
<path d="M126.407 267.375H127.741V277.321H126.407V267.375ZM123.07 267.375H124.405V277.321H123.07V267.375Z" fill="white"/>
<path d="M146.154 271.336V274.431L147.729 273.337L149.303 274.431V271.336H146.154Z" fill="#008F78"/>
<path d="M130.633 272.889C130.578 269.139 136.468 269.139 136.413 272.889C136.468 276.639 130.577 276.639 130.633 272.889ZM111.092 258.844V265.973H131.815C132.761 265.973 133.667 265.598 134.336 264.929C135.004 264.261 135.38 263.354 135.38 262.408C135.38 261.463 135.004 260.556 134.336 259.888C133.667 259.219 132.761 258.844 131.815 258.844H111.092Z" fill="white"/>
<path d="M131.815 258.838C134.926 258.838 137.12 262.844 133.51 265.967H111.092V267.376H171.22V257.43H111.092V258.838H131.815Z" fill="#71826A"/>
<path d="M135.381 262.404C135.38 263.35 135.004 264.255 134.335 264.923C133.667 265.591 132.76 265.967 131.815 265.967H111.092V267.376H131.815C133.134 267.376 134.399 266.852 135.332 265.919C136.264 264.987 136.788 263.722 136.788 262.403C136.788 261.084 136.264 259.819 135.332 258.886C134.399 257.954 133.134 257.43 131.815 257.43H111.092V258.838H131.815C132.761 258.839 133.667 259.215 134.336 259.884C135.004 260.552 135.38 261.459 135.381 262.404Z" fill="#7C7FD6"/>
<path d="M148.879 257.43H150.213V267.376H148.879V257.43ZM152.215 257.43H153.549V267.376H152.215V257.43Z" fill="white"/>
<path d="M130.466 261.391V264.486L128.891 263.392L127.316 264.486V261.391H130.466Z" fill="#7C7FD6"/>
<path d="M140.188 262.405C140.136 258.865 145.697 258.865 145.645 262.405C145.697 265.946 140.136 265.945 140.188 262.405Z" fill="white"/>
<path d="M75.1866 195.505C74.9564 195.235 74.8114 194.903 74.7701 194.55C74.7287 194.198 74.7927 193.841 74.9541 193.525C75.1155 193.209 75.367 192.948 75.6768 192.775C75.9866 192.602 76.3408 192.524 76.6945 192.553C77.0483 192.581 77.3857 192.713 77.6642 192.933C77.9427 193.153 78.1497 193.451 78.2591 193.788C78.3685 194.126 78.3752 194.488 78.2786 194.83C78.182 195.171 77.9863 195.476 77.7162 195.707C77.5369 195.859 77.3292 195.976 77.1051 196.048C76.8809 196.121 76.6446 196.149 76.4097 196.13C76.1748 196.111 75.9459 196.046 75.736 195.939C75.5262 195.832 75.3395 195.685 75.1866 195.505Z" fill="#008F78"/>
<path d="M78.5467 190.276C78.4719 190.34 78.3815 190.383 78.2847 190.401C78.1879 190.419 78.0881 190.411 77.9953 190.378C77.9148 190.351 75.9368 189.701 74.0063 191.346C72.0577 193.007 72.2564 195.07 72.2656 195.157C72.2792 195.303 72.2351 195.448 72.1428 195.562C72.0505 195.676 71.9173 195.749 71.7718 195.766C71.6263 195.783 71.48 195.742 71.3641 195.652C71.2483 195.563 71.1721 195.431 71.1519 195.286C71.1387 195.176 70.859 192.555 73.2787 190.493C75.7156 188.416 78.2622 189.283 78.3694 189.321C78.4622 189.354 78.5447 189.41 78.6086 189.485C78.6726 189.56 78.7157 189.651 78.7336 189.747C78.7516 189.844 78.7438 189.944 78.7109 190.037C78.6781 190.13 78.6214 190.212 78.5466 190.276H78.5467Z" fill="#008F78"/>
<path d="M78.4812 186.916C78.4064 186.98 78.316 187.023 78.2193 187.041C78.1225 187.059 78.0227 187.051 77.93 187.018C77.8006 186.973 74.6819 185.936 71.6406 188.528C68.5812 191.136 68.9051 194.381 68.9203 194.518C68.9371 194.665 68.8947 194.813 68.8025 194.929C68.7102 195.046 68.5756 195.121 68.4282 195.138C68.2807 195.155 68.1324 195.113 68.0159 195.021C67.8993 194.929 67.824 194.795 67.8064 194.648C67.7875 194.487 67.3817 190.685 70.9129 187.675C74.4612 184.65 78.1489 185.906 78.3041 185.961C78.3969 185.994 78.4794 186.05 78.5434 186.125C78.6074 186.2 78.6505 186.29 78.6685 186.387C78.6864 186.484 78.6786 186.584 78.6457 186.677C78.6128 186.77 78.5561 186.852 78.4812 186.916Z" fill="#008F78"/>
<path d="M78.043 183.985C77.9681 184.048 77.8778 184.092 77.781 184.109C77.6842 184.127 77.5844 184.12 77.4916 184.087C77.3265 184.029 73.3677 182.706 69.507 185.997C65.6291 189.302 66.0455 193.417 66.0649 193.591C66.0798 193.737 66.0364 193.884 65.9443 193.999C65.8521 194.113 65.7185 194.187 65.5723 194.204C65.426 194.222 65.279 194.18 65.1628 194.09C65.0466 194 64.9706 193.867 64.9512 193.721C64.928 193.524 64.4295 188.851 68.7796 185.143C73.1474 181.42 77.6754 182.962 77.866 183.029C77.9589 183.062 78.0415 183.119 78.1055 183.194C78.1695 183.268 78.2126 183.359 78.2306 183.456C78.2485 183.553 78.2407 183.652 78.2078 183.745C78.1749 183.838 78.1181 183.921 78.0432 183.985H78.043Z" fill="#008F78"/>
<path d="M78.0193 180.84C77.9445 180.904 77.8541 180.947 77.7574 180.965C77.6606 180.983 77.5608 180.975 77.468 180.942C77.2572 180.869 72.2177 179.178 67.3042 183.366C62.3737 187.569 62.9278 192.97 62.9339 193.024C62.9478 193.17 62.904 193.316 62.8119 193.43C62.7198 193.544 62.5867 193.617 62.4411 193.635C62.2955 193.652 62.1489 193.611 62.0329 193.521C61.9169 193.432 61.8406 193.3 61.8203 193.155C61.7913 192.911 61.1738 187.118 66.5768 182.513C71.9972 177.892 77.6061 179.802 77.8421 179.885C77.9349 179.918 78.0174 179.975 78.0814 180.05C78.1453 180.125 78.1884 180.215 78.2064 180.312C78.2244 180.408 78.2165 180.508 78.1837 180.601C78.1508 180.694 78.0941 180.776 78.0193 180.84ZM173.67 72.5469C172.17 72.547 170.697 72.9472 169.403 73.7062C168.109 74.4652 167.041 75.5555 166.309 76.8648C165.576 78.174 165.207 79.6549 165.237 81.1546C165.268 82.6544 165.698 84.1188 166.484 85.397C165.408 86.194 164.984 87.9861 164.608 89.8523C166.246 88.9817 168.075 88.5314 169.931 88.5418C171.07 89.1052 172.322 89.4039 173.593 89.4156C174.864 89.4273 176.121 89.1516 177.27 88.6092C178.419 88.0668 179.431 87.2717 180.23 86.2833C181.029 85.2949 181.594 84.1387 181.883 82.9012C182.173 81.6637 182.178 80.3768 181.9 79.1367C181.622 77.8966 181.068 76.7353 180.278 75.7397C179.488 74.744 178.484 73.9397 177.339 73.3868C176.195 72.8339 174.941 72.5468 173.67 72.5469Z" fill="#008F78"/>
<path d="M190.853 84.2658C189.061 83.1148 187.278 82.337 185.529 82.9552C184.661 83.3859 183.725 83.6627 182.762 83.7734C183.181 82.403 183.285 80.9556 183.067 79.5393C182.848 78.123 182.313 76.7744 181.5 75.5941C180.687 74.4139 179.618 73.4327 178.372 72.7236C177.127 72.0145 175.737 71.596 174.308 71.4993C174.831 70.4946 175.551 69.6057 176.426 68.8855C177.3 68.1653 178.31 67.6285 179.396 67.3073C180.483 66.986 181.623 66.8868 182.748 67.0157C183.873 67.1445 184.961 67.4986 185.947 68.057C186.932 68.6154 187.795 69.3666 188.484 70.2657C189.173 71.1648 189.674 72.1935 189.957 73.2904C190.24 74.3873 190.299 75.5299 190.13 76.6501C189.962 77.7703 189.57 78.845 188.977 79.8103C190.243 80.5644 190.69 82.2532 190.853 84.2658Z" fill="#008F78"/>
<path d="M169.285 80.8674C169.285 80.682 169.34 80.5007 169.443 80.3465C169.546 80.1923 169.693 80.0721 169.864 80.0011C170.035 79.9301 170.224 79.9115 170.406 79.9477C170.588 79.9839 170.755 80.0732 170.886 80.2043C171.017 80.3354 171.106 80.5025 171.143 80.6844C171.179 80.8663 171.16 81.0548 171.089 81.2262C171.018 81.3975 170.898 81.544 170.744 81.6471C170.59 81.7501 170.409 81.8051 170.223 81.8052C169.974 81.8052 169.736 81.7064 169.56 81.5305C169.384 81.3547 169.285 81.1162 169.285 80.8674ZM172.418 80.8674C172.418 80.682 172.473 80.5007 172.576 80.3465C172.679 80.1923 172.825 80.0721 172.997 80.0011C173.168 79.9301 173.357 79.9115 173.538 79.9477C173.72 79.9839 173.887 80.0732 174.019 80.2043C174.15 80.3354 174.239 80.5025 174.275 80.6844C174.311 80.8663 174.293 81.0548 174.222 81.2262C174.151 81.3975 174.031 81.544 173.877 81.6471C173.722 81.7501 173.541 81.8051 173.356 81.8052C173.233 81.8052 173.111 81.781 172.997 81.7338C172.883 81.6867 172.78 81.6177 172.693 81.5306C172.605 81.4435 172.536 81.3401 172.489 81.2263C172.442 81.1126 172.418 80.9906 172.418 80.8674ZM175.55 80.8674C175.55 80.682 175.605 80.5007 175.708 80.3465C175.811 80.1923 175.958 80.0721 176.129 80.0011C176.301 79.9301 176.489 79.9115 176.671 79.9477C176.853 79.9839 177.02 80.0732 177.151 80.2043C177.282 80.3354 177.372 80.5025 177.408 80.6844C177.444 80.8663 177.426 81.0548 177.355 81.2262C177.284 81.3975 177.163 81.544 177.009 81.6471C176.855 81.7501 176.674 81.8051 176.488 81.8052C176.24 81.8051 176.001 81.7063 175.825 81.5305C175.649 81.3546 175.55 81.1161 175.55 80.8674Z" fill="white"/>
<path d="M129.216 109.15C128.965 109.493 120.339 116.311 120.609 116.677C121.416 118.056 123.709 117.583 125.142 117.013C130.141 114.707 132.241 107.919 127.432 104.181C124.954 102.023 121.622 101.322 118.564 102.661C108.335 107.408 110.274 120.299 121.721 121.011L123.779 122.792C113.204 124.518 105.336 112.889 112.927 104.397C115.55 101.3 119.656 99.4596 123.541 100.108C127.645 100.734 132.035 104.884 132.13 109.141C132.518 113.009 129.53 117.324 125.863 118.824C123.443 120.084 116.759 119.517 118.145 115.649C113.312 116.229 111.909 110.853 115.164 107.614C118.014 103.765 126.692 101.473 126.097 108.433L127.259 107.455L129.216 109.15ZM116.846 109.93C115.225 111.48 115.381 114.251 117.938 114.023C119.953 113.598 124.299 110.466 124.537 108.187C124.301 105.476 121.275 106.122 119.506 107.558C118.53 108.243 117.638 109.039 116.846 109.93H116.846ZM416.142 172.195L411.395 168.29L411.786 167.815C412.45 167.008 413.082 166.427 413.679 166.074C414.281 165.72 414.944 165.48 415.633 165.367C416.338 165.249 417.755 165.186 419.884 165.178C421.01 165.183 421.762 164.957 422.139 164.499C422.516 164.041 422.673 163.574 422.611 163.097C422.55 162.62 422.244 162.156 421.695 161.704C421.43 161.472 421.12 161.297 420.784 161.19C420.448 161.083 420.094 161.047 419.744 161.083C419.035 161.156 418.225 161.635 417.315 162.52L412.962 157.934C414.595 156.288 416.423 155.387 418.445 155.229C420.467 155.07 422.644 155.95 424.976 157.868C426.791 159.362 427.945 160.947 428.437 162.622C429.11 164.894 428.744 166.883 427.34 168.59C426.74 169.31 425.954 169.851 425.068 170.155C424.135 170.491 422.674 170.637 420.686 170.593C419.297 170.567 418.326 170.665 417.773 170.887C417.22 171.11 416.676 171.546 416.142 172.195ZM410.195 169.418L415.279 173.601L411.589 178.085L406.505 173.902L410.195 169.418ZM398.987 98.3462L394.134 88.8438C394.503 88.8596 394.862 88.9624 395.183 89.1437L408.831 96.8397C409.152 97.0203 409.426 97.2745 409.63 97.5814L398.987 98.3462Z" fill="#008F78"/>
<path d="M409.722 100.036L405.4 107.701C405.249 107.969 405.046 108.205 404.804 108.395C404.561 108.586 404.284 108.726 403.987 108.809C403.69 108.892 403.38 108.915 403.074 108.878C402.768 108.841 402.473 108.744 402.204 108.593L388.555 100.897C388.287 100.745 388.051 100.543 387.861 100.3C387.671 100.058 387.531 99.7799 387.448 99.483C387.365 99.1862 387.342 98.8759 387.379 98.57C387.416 98.2642 387.514 97.9686 387.665 97.7003L391.986 90.0358C392.239 89.5859 392.634 89.2325 393.109 89.031L398.399 99.3893L410.001 98.5555C410.075 99.0664 409.976 99.5872 409.722 100.036ZM343.624 78.3057C342.135 76.9323 340.48 77.2075 339.142 78.2416C338.394 78.8195 337.429 78.6561 336.63 78.1513C334.498 76.803 332.512 75.2909 331.147 72.875C330.678 72.0453 330.403 71.1167 330.965 70.3473C333.405 67.0065 329.447 63.0201 326.119 65.9114L324.293 67.7895C322.974 68.9522 322.177 70.2773 323.209 72.0891C326.225 77.3845 330.816 81.9877 337.322 85.8302C339.955 87.3858 341.618 85.07 343.16 83.4819L343.159 83.4805C344.774 82.1996 345.19 79.8008 343.624 78.3057Z" fill="#008F78"/>
</svg>
