<svg width="24" height="24" viewBox="0 0 24 24" fill="none" xmlns="http://www.w3.org/2000/svg">
<path d="M19.785 2.25H8.715C8.19446 2.25198 7.6958 2.45964 7.32772 2.82772C6.95964 3.1958 6.75198 3.69446 6.75 4.215V6.75H4.215C3.69446 6.75198 3.1958 6.95964 2.82772 7.32772C2.45964 7.6958 2.25198 8.19446 2.25 8.715V19.785C2.25198 20.3055 2.45964 20.8042 2.82772 21.1723C3.1958 21.5404 3.69446 21.748 4.215 21.75H15.285C15.8055 21.748 16.3042 21.5404 16.6723 21.1723C17.0404 20.8042 17.248 20.3055 17.25 19.785V17.25H19.785C20.3055 17.248 20.8042 17.0404 21.1723 16.6723C21.5404 16.3042 21.748 15.8055 21.75 15.285V4.215C21.748 3.69446 21.5404 3.1958 21.1723 2.82772C20.8042 2.45964 20.3055 2.25198 19.785 2.25ZM15.75 19.785C15.75 19.9083 15.701 20.0266 15.6138 20.1138C15.5266 20.201 15.4083 20.25 15.285 20.25H4.215C4.09167 20.25 3.9734 20.201 3.8862 20.1138C3.79899 20.0266 3.75 19.9083 3.75 19.785V8.715C3.75 8.59167 3.79899 8.4734 3.8862 8.3862C3.9734 8.29899 4.09167 8.25 4.215 8.25H15.285C15.4083 8.25 15.5266 8.29899 15.6138 8.3862C15.701 8.4734 15.75 8.59167 15.75 8.715V19.785ZM20.25 15.285C20.25 15.4083 20.201 15.5266 20.1138 15.6138C20.0266 15.701 19.9083 15.75 19.785 15.75H17.25V8.715C17.248 8.19446 17.0404 7.6958 16.6723 7.32772C16.3042 6.95964 15.8055 6.75198 15.285 6.75H8.25V4.215C8.25 4.09167 8.29899 3.9734 8.3862 3.8862C8.4734 3.79899 8.59167 3.75 8.715 3.75H19.785C19.9083 3.75 20.0266 3.79899 20.1138 3.8862C20.201 3.9734 20.25 4.09167 20.25 4.215V15.285Z" fill="#9A9A9A"/>
</svg>
