<svg width="20" height="20" viewBox="0 0 20 20" fill="none" xmlns="http://www.w3.org/2000/svg">
<mask id="path-1-inside-1_871_59726" fill="white">
<path d="M12.5003 18.9596H7.50033C2.97533 18.9596 1.04199 17.0263 1.04199 12.5013V7.5013C1.04199 2.9763 2.97533 1.04297 7.50033 1.04297H11.667C12.0087 1.04297 12.292 1.3263 12.292 1.66797C12.292 2.00964 12.0087 2.29297 11.667 2.29297H7.50033C3.65866 2.29297 2.29199 3.65964 2.29199 7.5013V12.5013C2.29199 16.343 3.65866 17.7096 7.50033 17.7096H12.5003C16.342 17.7096 17.7087 16.343 17.7087 12.5013V8.33464C17.7087 7.99297 17.992 7.70964 18.3337 7.70964C18.6753 7.70964 18.9587 7.99297 18.9587 8.33464V12.5013C18.9587 17.0263 17.0253 18.9596 12.5003 18.9596Z"/>
</mask>
<path d="M12.5003 18.9596H7.50033C2.97533 18.9596 1.04199 17.0263 1.04199 12.5013V7.5013C1.04199 2.9763 2.97533 1.04297 7.50033 1.04297H11.667C12.0087 1.04297 12.292 1.3263 12.292 1.66797C12.292 2.00964 12.0087 2.29297 11.667 2.29297H7.50033C3.65866 2.29297 2.29199 3.65964 2.29199 7.5013V12.5013C2.29199 16.343 3.65866 17.7096 7.50033 17.7096H12.5003C16.342 17.7096 17.7087 16.343 17.7087 12.5013V8.33464C17.7087 7.99297 17.992 7.70964 18.3337 7.70964C18.6753 7.70964 18.9587 7.99297 18.9587 8.33464V12.5013C18.9587 17.0263 17.0253 18.9596 12.5003 18.9596Z" fill="#9A9A9A"/>
<path d="M12.5003 17.4596H7.50033V20.4596H12.5003V17.4596ZM7.50033 17.4596C5.41001 17.4596 4.27551 17.0073 3.63494 16.3667C2.99437 15.7261 2.54199 14.5916 2.54199 12.5013H-0.458008C-0.458008 14.936 0.0562767 17.0307 1.51362 18.488C2.97097 19.9454 5.06564 20.4596 7.50033 20.4596V17.4596ZM2.54199 12.5013V7.5013H-0.458008V12.5013H2.54199ZM2.54199 7.5013C2.54199 5.41099 2.99437 4.27649 3.63494 3.63592C4.27551 2.99535 5.41001 2.54297 7.50033 2.54297V-0.457031C5.06564 -0.457031 2.97097 0.0572532 1.51362 1.5146C0.0562767 2.97195 -0.458008 5.06662 -0.458008 7.5013H2.54199ZM7.50033 2.54297H11.667V-0.457031H7.50033V2.54297ZM11.667 2.54297C11.1802 2.54297 10.792 2.15473 10.792 1.66797H13.792C13.792 0.497875 12.8371 -0.457031 11.667 -0.457031V2.54297ZM10.792 1.66797C10.792 1.18121 11.1802 0.792969 11.667 0.792969V3.79297C12.8371 3.79297 13.792 2.83806 13.792 1.66797H10.792ZM11.667 0.792969H7.50033V3.79297H11.667V0.792969ZM7.50033 0.792969C5.47366 0.792969 3.65288 1.13785 2.39487 2.39585C1.13687 3.65385 0.791992 5.47464 0.791992 7.5013H3.79199C3.79199 5.6863 4.13045 4.90292 4.51619 4.51717C4.90194 4.13142 5.68532 3.79297 7.50033 3.79297V0.792969ZM0.791992 7.5013V12.5013H3.79199V7.5013H0.791992ZM0.791992 12.5013C0.791992 14.528 1.13687 16.3488 2.39487 17.6068C3.65288 18.8648 5.47366 19.2096 7.50033 19.2096V16.2096C5.68532 16.2096 4.90194 15.8712 4.51619 15.4854C4.13045 15.0997 3.79199 14.3163 3.79199 12.5013H0.791992ZM7.50033 19.2096H12.5003V16.2096H7.50033V19.2096ZM12.5003 19.2096C14.527 19.2096 16.3478 18.8648 17.6058 17.6068C18.8638 16.3488 19.2087 14.528 19.2087 12.5013H16.2087C16.2087 14.3163 15.8702 15.0997 15.4845 15.4854C15.0987 15.8712 14.3153 16.2096 12.5003 16.2096V19.2096ZM19.2087 12.5013V8.33464H16.2087V12.5013H19.2087ZM19.2087 8.33464C19.2087 8.8214 18.8204 9.20964 18.3337 9.20964V6.20964C17.1636 6.20964 16.2087 7.16454 16.2087 8.33464H19.2087ZM18.3337 9.20964C17.8469 9.20964 17.4587 8.8214 17.4587 8.33464H20.4587C20.4587 7.16454 19.5038 6.20964 18.3337 6.20964V9.20964ZM17.4587 8.33464V12.5013H20.4587V8.33464H17.4587ZM17.4587 12.5013C17.4587 14.5916 17.0063 15.7261 16.3657 16.3667C15.7251 17.0073 14.5906 17.4596 12.5003 17.4596V20.4596C14.935 20.4596 17.0297 19.9454 18.487 18.488C19.9444 17.0307 20.4587 14.936 20.4587 12.5013H17.4587Z" fill="#9A9A9A" mask="url(#path-1-inside-1_871_59726)"/>
<mask id="path-3-inside-2_871_59726" fill="white">
<path d="M18.3337 8.95841H15.0003C12.1503 8.95841 11.042 7.85007 11.042 5.00007V1.66674C11.042 1.41674 11.192 1.18341 11.4253 1.09174C11.6587 0.991739 11.9253 1.05007 12.1087 1.22507L18.7753 7.89174C18.9503 8.06674 19.0087 8.34174 18.9087 8.57507C18.8087 8.8084 18.5837 8.95841 18.3337 8.95841ZM12.292 3.17507V5.00007C12.292 7.15007 12.8503 7.70841 15.0003 7.70841H16.8253L12.292 3.17507Z"/>
</mask>
<path d="M18.3337 8.95841H15.0003C12.1503 8.95841 11.042 7.85007 11.042 5.00007V1.66674C11.042 1.41674 11.192 1.18341 11.4253 1.09174C11.6587 0.991739 11.9253 1.05007 12.1087 1.22507L18.7753 7.89174C18.9503 8.06674 19.0087 8.34174 18.9087 8.57507C18.8087 8.8084 18.5837 8.95841 18.3337 8.95841ZM12.292 3.17507V5.00007C12.292 7.15007 12.8503 7.70841 15.0003 7.70841H16.8253L12.292 3.17507Z" fill="#9A9A9A"/>
<path d="M11.4253 1.09174L11.9738 2.48787L11.9951 2.47948L12.0162 2.47046L11.4253 1.09174ZM12.1087 1.22507L13.1693 0.164412L13.157 0.15208L13.1444 0.140039L12.1087 1.22507ZM18.7753 7.89174L19.836 6.83108L18.7753 7.89174ZM12.292 3.17507L13.3527 2.11441L10.792 -0.446248V3.17507H12.292ZM16.8253 7.70841V9.20841H20.4466L17.886 6.64774L16.8253 7.70841ZM18.3337 7.45841H15.0003V10.4584H18.3337V7.45841ZM15.0003 7.45841C13.713 7.45841 13.2232 7.19741 13.0131 6.98733C12.803 6.77724 12.542 6.28737 12.542 5.00007H9.54199C9.54199 6.56277 9.83517 8.05207 10.8917 9.10865C11.9483 10.1652 13.4376 10.4584 15.0003 10.4584V7.45841ZM12.542 5.00007V1.66674H9.54199V5.00007H12.542ZM12.542 1.66674C12.542 1.99677 12.3479 2.34089 11.9738 2.48787L10.8768 -0.304389C10.0361 0.0259188 9.54199 0.836712 9.54199 1.66674H12.542ZM12.0162 2.47046C11.6531 2.62608 11.2881 2.51548 11.0729 2.31011L13.1444 0.140039C12.5626 -0.415333 11.6642 -0.6426 10.8344 -0.286979L12.0162 2.47046ZM11.048 2.28573L17.7147 8.9524L19.836 6.83108L13.1693 0.164412L11.048 2.28573ZM17.7147 8.9524C17.4682 8.70595 17.3816 8.3304 17.5299 7.98419L20.2874 9.16595C20.6357 8.35308 20.4324 7.42753 19.836 6.83108L17.7147 8.9524ZM17.5299 7.98419C17.6615 7.67716 17.9716 7.45841 18.3337 7.45841V10.4584C19.1958 10.4584 19.9558 9.93965 20.2874 9.16595L17.5299 7.98419ZM10.792 3.17507V5.00007H13.792V3.17507H10.792ZM10.792 5.00007C10.792 6.07607 10.8976 7.33951 11.7792 8.22115C12.6609 9.10279 13.9243 9.20841 15.0003 9.20841V6.20841C14.5113 6.20841 14.2096 6.17487 14.0233 6.12975C13.8539 6.08869 13.8575 6.05672 13.9006 6.09983C13.9437 6.14294 13.9117 6.14653 13.8706 5.97706C13.8255 5.79084 13.792 5.48914 13.792 5.00007H10.792ZM15.0003 9.20841H16.8253V6.20841H15.0003V9.20841ZM17.886 6.64774L13.3527 2.11441L11.2313 4.23573L15.7647 8.76907L17.886 6.64774Z" fill="#9A9A9A" mask="url(#path-3-inside-2_871_59726)"/>
</svg>
