<svg width="19" height="16" viewBox="0 0 19 16" fill="none" xmlns="http://www.w3.org/2000/svg">
<path d="M1.14286 2.28571H17.1429C17.8286 2.28571 18.2857 1.82857 18.2857 1.14286C18.2857 0.457143 17.8286 0 17.1429 0H1.14286C0.457143 0 0 0.457143 0 1.14286C0 1.82857 0.457143 2.28571 1.14286 2.28571ZM1.14286 9.14286H17.1429C17.8286 9.14286 18.2857 8.68571 18.2857 8C18.2857 7.31429 17.8286 6.85714 17.1429 6.85714H1.14286C0.457143 6.85714 0 7.31429 0 8C0 8.68571 0.457143 9.14286 1.14286 9.14286ZM1.14286 16H17.1429C17.8286 16 18.2857 15.5429 18.2857 14.8571C18.2857 14.1714 17.8286 13.7143 17.1429 13.7143H1.14286C0.457143 13.7143 0 14.1714 0 14.8571C0 15.5429 0.457143 16 1.14286 16Z" fill="#333333"/>
</svg>
