<svg width="24" height="24" viewBox="0 0 18 18" fill="none" xmlns="http://www.w3.org/2000/svg">
<path d="M17.25 12C17.0511 12 16.8603 12.079 16.7197 12.2197C16.579 12.3603 16.5 12.5511 16.5 12.75V15.75C16.5 15.9489 16.421 16.1397 16.2803 16.2803C16.1397 16.421 15.9489 16.5 15.75 16.5H2.25C2.05109 16.5 1.86032 16.421 1.71967 16.2803C1.57902 16.1397 1.5 15.9489 1.5 15.75V12.75C1.5 12.5511 1.42098 12.3603 1.28033 12.2197C1.13968 12.079 0.948912 12 0.75 12C0.551088 12 0.360322 12.079 0.21967 12.2197C0.0790178 12.3603 0 12.5511 0 12.75V15.75C0 16.3467 0.237053 16.919 0.65901 17.341C1.08097 17.7629 1.65326 18 2.25 18H15.75C16.3467 18 16.919 17.7629 17.341 17.341C17.7629 16.919 18 16.3467 18 15.75V12.75C18 12.5511 17.921 12.3603 17.7803 12.2197C17.6397 12.079 17.4489 12 17.25 12Z" fill="#0072DA"/>
<path d="M7.41036 12.84C7.83224 13.2614 8.40411 13.498 9.00036 13.498C9.59661 13.498 10.1685 13.2614 10.5904 12.84L14.8354 8.595C14.975 8.45448 15.0535 8.26439 15.0535 8.06625C15.0535 7.86811 14.975 7.67802 14.8354 7.5375C14.7656 7.4672 14.6827 7.41141 14.5913 7.37333C14.4999 7.33526 14.4019 7.31565 14.3029 7.31565C14.2039 7.31565 14.1058 7.33526 14.0144 7.37333C13.923 7.41141 13.8401 7.4672 13.7704 7.5375L9.75036 11.5575V0.75C9.75036 0.551088 9.67134 0.360322 9.53069 0.21967C9.39004 0.0790178 9.19927 0 9.00036 0C8.80145 0 8.61068 0.0790178 8.47003 0.21967C8.32938 0.360322 8.25036 0.551088 8.25036 0.75V11.5575L4.23036 7.5375C4.16064 7.4672 4.07769 7.41141 3.98629 7.37333C3.8949 7.33526 3.79687 7.31565 3.69786 7.31565C3.59885 7.31565 3.50082 7.33526 3.40943 7.37333C3.31803 7.41141 3.23508 7.4672 3.16536 7.5375C3.02567 7.67802 2.94727 7.86811 2.94727 8.06625C2.94727 8.26439 3.02567 8.45448 3.16536 8.595L7.41036 12.84Z" fill="#0072DA"/>
</svg>
