<svg width="20" height="20" viewBox="0 0 20 20" fill="none" xmlns="http://www.w3.org/2000/svg">
<mask id="path-1-inside-1_871_59714" fill="white">
<path d="M8.32532 18.9833C7.82532 18.9833 7.35032 18.7333 7.02532 18.2917L6.02533 16.9583C6.02533 16.9667 5.98366 16.9417 5.967 16.9417H5.65867C2.80867 16.9417 1.04199 16.1667 1.04199 12.325V8.99167C1.04199 5.48334 3.18367 4.56667 4.98367 4.40834C5.18367 4.38334 5.417 4.375 5.65867 4.375H10.992C14.0087 4.375 15.6087 5.97501 15.6087 8.99167V12.325C15.6087 12.5667 15.6003 12.8 15.567 13.025C15.417 14.8 14.5003 16.9417 10.992 16.9417H10.6587L9.62531 18.2917C9.30031 18.7333 8.82532 18.9833 8.32532 18.9833ZM5.65867 5.625C5.467 5.625 5.28366 5.63333 5.10866 5.65C3.17533 5.81667 2.29199 6.87501 2.29199 8.99167V12.325C2.29199 15.1833 3.17533 15.6917 5.65867 15.6917H5.99199C6.36699 15.6917 6.79199 15.9 7.02532 16.2L8.02533 17.5417C8.20866 17.7917 8.442 17.7917 8.62533 17.5417L9.62531 16.2083C9.86698 15.8833 10.2503 15.6917 10.6587 15.6917H10.992C13.1087 15.6917 14.167 14.8 14.3253 12.9C14.3503 12.7 14.3587 12.5167 14.3587 12.325V8.99167C14.3587 6.66667 13.317 5.625 10.992 5.625H5.65867Z"/>
</mask>
<path d="M8.32532 18.9833C7.82532 18.9833 7.35032 18.7333 7.02532 18.2917L6.02533 16.9583C6.02533 16.9667 5.98366 16.9417 5.967 16.9417H5.65867C2.80867 16.9417 1.04199 16.1667 1.04199 12.325V8.99167C1.04199 5.48334 3.18367 4.56667 4.98367 4.40834C5.18367 4.38334 5.417 4.375 5.65867 4.375H10.992C14.0087 4.375 15.6087 5.97501 15.6087 8.99167V12.325C15.6087 12.5667 15.6003 12.8 15.567 13.025C15.417 14.8 14.5003 16.9417 10.992 16.9417H10.6587L9.62531 18.2917C9.30031 18.7333 8.82532 18.9833 8.32532 18.9833ZM5.65867 5.625C5.467 5.625 5.28366 5.63333 5.10866 5.65C3.17533 5.81667 2.29199 6.87501 2.29199 8.99167V12.325C2.29199 15.1833 3.17533 15.6917 5.65867 15.6917H5.99199C6.36699 15.6917 6.79199 15.9 7.02532 16.2L8.02533 17.5417C8.20866 17.7917 8.442 17.7917 8.62533 17.5417L9.62531 16.2083C9.86698 15.8833 10.2503 15.6917 10.6587 15.6917H10.992C13.1087 15.6917 14.167 14.8 14.3253 12.9C14.3503 12.7 14.3587 12.5167 14.3587 12.325V8.99167C14.3587 6.66667 13.317 5.625 10.992 5.625H5.65867Z" fill="#9A9A9A"/>
<path d="M7.02532 18.2917L8.23353 17.4026L8.22533 17.3917L7.02532 18.2917ZM6.02533 16.9583L7.22534 16.0583L4.52533 12.4583V16.9583H6.02533ZM4.98367 4.40834L5.1151 5.90257L5.14247 5.90016L5.16972 5.89676L4.98367 4.40834ZM15.567 13.025L14.0832 12.8052L14.0763 12.8518L14.0723 12.8987L15.567 13.025ZM10.6587 16.9417V15.4417H9.91783L9.46755 16.0299L10.6587 16.9417ZM9.62531 18.2917L8.4342 17.38L8.42557 17.3912L8.41716 17.4027L9.62531 18.2917ZM5.10866 5.65L5.2375 7.14452L5.25088 7.14324L5.10866 5.65ZM7.02532 16.2L8.22799 15.3036L8.2188 15.2912L8.20935 15.2791L7.02532 16.2ZM8.02533 17.5417L9.23497 16.6546L9.22801 16.6452L8.02533 17.5417ZM8.62533 17.5417L7.42533 16.6417L7.42049 16.6481L7.41572 16.6546L8.62533 17.5417ZM9.62531 16.2083L10.8253 17.1084L10.829 17.1034L9.62531 16.2083ZM14.3253 12.9L12.8369 12.714L12.8331 12.7446L12.8305 12.7754L14.3253 12.9ZM8.32532 17.4833C8.32532 17.4833 8.32532 17.4833 8.32533 17.4833C8.32533 17.4833 8.32534 17.4833 8.32536 17.4833C8.32538 17.4833 8.32541 17.4833 8.32545 17.4833C8.32552 17.4833 8.32558 17.4833 8.32562 17.4834C8.32572 17.4834 8.32548 17.4833 8.32484 17.4832C8.32372 17.4829 8.31962 17.4817 8.31266 17.478C8.29933 17.471 8.26901 17.451 8.23348 17.4027L5.81716 19.1807C6.39838 19.9706 7.30541 20.4833 8.32532 20.4833V17.4833ZM8.22533 17.3917L7.22534 16.0583L4.82533 17.8583L5.82531 19.1917L8.22533 17.3917ZM4.52533 16.9583C4.52533 16.6207 4.64665 16.1772 5.0291 15.8377C5.36026 15.5438 5.71762 15.4826 5.87894 15.467C6.17736 15.4381 6.40897 15.5108 6.42512 15.5154C6.52664 15.544 6.6128 15.5825 6.57966 15.5686C6.57929 15.5685 6.57924 15.5685 6.57792 15.5679C6.57693 15.5675 6.57528 15.5668 6.57339 15.566C6.56967 15.5645 6.56353 15.5619 6.55615 15.5589C6.54261 15.5535 6.51663 15.5431 6.48418 15.5316C6.47598 15.5287 6.25396 15.4417 5.967 15.4417V18.4417C5.79997 18.4417 5.672 18.413 5.61845 18.3999C5.55474 18.3843 5.50614 18.3678 5.48211 18.3593C5.44048 18.3445 5.40218 18.328 5.42517 18.3376C5.4281 18.3388 5.44706 18.3468 5.46965 18.3555C5.48784 18.3626 5.54187 18.3834 5.61201 18.4031C5.63232 18.4088 5.86732 18.4822 6.16808 18.453C6.33057 18.4373 6.68884 18.3758 7.02063 18.0813C7.40369 17.7413 7.52533 17.2971 7.52533 16.9583H4.52533ZM5.967 15.4417H5.65867V18.4417H5.967V15.4417ZM5.65867 15.4417C4.28954 15.4417 3.6133 15.2353 3.24948 14.928C2.94477 14.6706 2.54199 14.0597 2.54199 12.325H-0.458008C-0.458008 14.4319 0.0225555 16.1294 1.31368 17.2199C2.5457 18.2605 4.1778 18.4417 5.65867 18.4417V15.4417ZM2.54199 12.325V8.99167H-0.458008V12.325H2.54199ZM2.54199 8.99167C2.54199 7.56294 2.96432 6.89951 3.3438 6.55642C3.7682 6.17272 4.38662 5.96665 5.1151 5.90257L4.85223 2.91411C3.78071 3.00836 2.42829 3.3398 1.33186 4.33109C0.1905 5.363 -0.458008 6.91208 -0.458008 8.99167H2.54199ZM5.16972 5.89676C5.2798 5.883 5.4422 5.875 5.65867 5.875V2.875C5.3918 2.875 5.08753 2.88368 4.79762 2.91992L5.16972 5.89676ZM5.65867 5.875H10.992V2.875H5.65867V5.875ZM10.992 5.875C12.2467 5.875 12.9629 6.2047 13.3709 6.61275C13.779 7.02079 14.1087 7.737 14.1087 8.99167H17.1087C17.1087 7.22968 16.6384 5.63755 15.4922 4.49143C14.3461 3.3453 12.754 2.875 10.992 2.875V5.875ZM14.1087 8.99167V12.325H17.1087V8.99167H14.1087ZM14.1087 12.325C14.1087 12.5386 14.1007 12.6872 14.0832 12.8052L17.0508 13.2448C17.1 12.9128 17.1087 12.5947 17.1087 12.325H14.1087ZM14.0723 12.8987C14.0123 13.6091 13.8094 14.2203 13.4275 14.6415C13.0853 15.0191 12.4211 15.4417 10.992 15.4417V18.4417C13.0713 18.4417 14.6195 17.7934 15.6502 16.6564C16.6413 15.5631 16.9717 14.2159 17.0617 13.1513L14.0723 12.8987ZM10.992 15.4417H10.6587V18.4417H10.992V15.4417ZM9.46755 16.0299L8.4342 17.38L10.8164 19.2034L11.8498 17.8534L9.46755 16.0299ZM8.41716 17.4027C8.38162 17.451 8.3513 17.471 8.33798 17.478C8.33101 17.4817 8.32692 17.4829 8.3258 17.4832C8.32515 17.4833 8.32492 17.4834 8.32502 17.4834C8.32505 17.4833 8.32511 17.4833 8.32519 17.4833C8.32522 17.4833 8.32525 17.4833 8.32528 17.4833C8.32529 17.4833 8.3253 17.4833 8.32531 17.4833C8.32531 17.4833 8.32532 17.4833 8.32532 17.4833V20.4833C9.34523 20.4833 10.2523 19.9706 10.8335 19.1807L8.41716 17.4027ZM5.65867 4.125C5.42372 4.125 5.19273 4.13521 4.96645 4.15676L5.25088 7.14324C5.3746 7.13146 5.51028 7.125 5.65867 7.125V4.125ZM4.97983 4.15554C3.76799 4.26001 2.62939 4.67033 1.82728 5.62419C1.04658 6.55259 0.791992 7.7532 0.791992 8.99167H3.79199C3.79199 8.11348 3.97907 7.72659 4.12337 7.55499C4.24627 7.40884 4.51601 7.20665 5.2375 7.14446L4.97983 4.15554ZM0.791992 8.99167V12.325H3.79199V8.99167H0.791992ZM0.791992 12.325C0.791992 13.7891 0.988464 15.2359 2.03346 16.1886C3.04047 17.1068 4.45289 17.1917 5.65867 17.1917V14.1917C4.38111 14.1917 4.11019 14.0224 4.0547 13.9718C4.03719 13.9558 3.79199 13.7193 3.79199 12.325H0.791992ZM5.65867 17.1917H5.99199V14.1917H5.65867V17.1917ZM5.99199 17.1917C5.94867 17.1917 5.92222 17.1859 5.9127 17.1835C5.90715 17.1821 5.90382 17.181 5.90235 17.1804C5.90087 17.1799 5.90027 17.1796 5.90018 17.1795C5.9001 17.1795 5.89964 17.1793 5.8986 17.1786C5.89757 17.178 5.89507 17.1764 5.89115 17.1733C5.88451 17.168 5.86573 17.1523 5.84129 17.1209L8.20935 15.2791C7.69445 14.6171 6.83412 14.1917 5.99199 14.1917V17.1917ZM5.82264 17.0964L6.82265 18.4381L9.22801 16.6452L8.22799 15.3036L5.82264 17.0964ZM6.81572 18.4287C7.06805 18.7728 7.5691 19.2292 8.32533 19.2292C9.08156 19.2292 9.58261 18.7728 9.83494 18.4287L7.41572 16.6546C7.48472 16.5605 7.77744 16.2292 8.32533 16.2292C8.87322 16.2292 9.16594 16.5605 9.23494 16.6546L6.81572 18.4287ZM9.82533 18.4417L10.8253 17.1083L8.42532 15.3083L7.42533 16.6417L9.82533 18.4417ZM10.829 17.1034C10.7849 17.1627 10.7201 17.1917 10.6587 17.1917V14.1917C9.78061 14.1917 8.94903 14.604 8.42162 15.3133L10.829 17.1034ZM10.6587 17.1917H10.992V14.1917H10.6587V17.1917ZM10.992 17.1917C12.2332 17.1917 13.4315 16.9338 14.3569 16.1576C15.3091 15.3591 15.7199 14.2271 15.8201 13.0246L12.8305 12.7754C12.7724 13.473 12.5749 13.7368 12.4291 13.859C12.2567 14.0037 11.8674 14.1917 10.992 14.1917V17.1917ZM15.8137 13.0861C15.8482 12.8107 15.8587 12.5635 15.8587 12.325H12.8587C12.8587 12.4699 12.8525 12.5893 12.8369 12.714L15.8137 13.0861ZM15.8587 12.325V8.99167H12.8587V12.325H15.8587ZM15.8587 8.99167C15.8587 7.63932 15.5593 6.32723 14.6079 5.3758C13.6564 4.42438 12.3444 4.125 10.992 4.125V7.125C11.9646 7.125 12.3359 7.34646 12.4865 7.49712C12.6372 7.64778 12.8587 8.01903 12.8587 8.99167H15.8587ZM10.992 4.125H5.65867V7.125H10.992V4.125Z" fill="#9A9A9A" mask="url(#path-1-inside-1_871_59714)"/>
<path d="M8.32552 11.0768C8.27795 11.0768 8.24219 11.0425 8.24219 10.9935C8.24219 10.9729 8.24993 10.9527 8.26731 10.9353C8.28469 10.9179 8.30494 10.9102 8.32552 10.9102C8.3461 10.9102 8.36635 10.9179 8.38373 10.9353C8.40111 10.9527 8.40885 10.9729 8.40885 10.9935C8.40885 11.0425 8.37309 11.0768 8.32552 11.0768Z" fill="#9A9A9A" stroke="#9A9A9A" stroke-width="1.5"/>
<path d="M10.9915 11.0768C10.944 11.0768 10.9082 11.0425 10.9082 10.9935C10.9082 10.9729 10.9159 10.9527 10.9333 10.9353C10.9507 10.9179 10.971 10.9102 10.9915 10.9102C11.0121 10.9102 11.0324 10.9179 11.0497 10.9353C11.0671 10.9527 11.0749 10.9729 11.0749 10.9935C11.0749 11.0141 11.0671 11.0343 11.0497 11.0517C11.0324 11.0691 11.0121 11.0768 10.9915 11.0768Z" fill="#9A9A9A" stroke="#9A9A9A" stroke-width="1.5"/>
<path d="M5.66634 11.0768C5.61877 11.0768 5.58301 11.0425 5.58301 10.9935C5.58301 10.9729 5.59075 10.9527 5.60813 10.9353C5.62551 10.9179 5.64576 10.9102 5.66634 10.9102C5.68693 10.9102 5.70717 10.9179 5.72455 10.9353C5.74193 10.9527 5.74967 10.9729 5.74967 10.9935C5.74967 11.0141 5.74193 11.0343 5.72455 11.0517C5.70717 11.0691 5.68693 11.0768 5.66634 11.0768Z" fill="#9A9A9A" stroke="#9A9A9A" stroke-width="1.5"/>
<path d="M14.9497 13.5763C14.783 13.5763 14.6164 13.5096 14.4997 13.3846C14.3664 13.2513 14.308 13.0596 14.333 12.8763C14.358 12.7013 14.3664 12.518 14.3664 12.3263V8.99298C14.3664 6.66798 13.3247 5.6263 10.9997 5.6263H5.66636C5.47469 5.6263 5.29138 5.63463 5.11638 5.6513C4.93305 5.6763 4.74137 5.60962 4.60804 5.48462C4.4747 5.35129 4.39969 5.16798 4.41636 4.98464C4.56636 3.18464 5.49136 1.04297 8.99969 1.04297H14.333C17.3497 1.04297 18.9497 2.64298 18.9497 5.65964V8.99298C18.9497 12.5013 16.808 13.418 15.008 13.5763C14.983 13.5763 14.9664 13.5763 14.9497 13.5763ZM5.76638 4.3763H10.9914C14.008 4.3763 15.608 5.97631 15.608 8.99298V12.218C17.0247 11.868 17.6914 10.8263 17.6914 8.99298V5.65964C17.6914 3.33464 16.6497 2.29297 14.3247 2.29297H8.99138C7.15805 2.29297 6.12472 2.95964 5.76638 4.3763Z" fill="#9A9A9A"/>
</svg>
