<svg width="110" height="110" viewBox="0 0 110 110" fill="none" xmlns="http://www.w3.org/2000/svg">
<g clip-path="url(#clip0_959_39791)">
<path d="M34.3751 105.414C33.1094 105.414 32.084 106.441 32.084 107.71C32.084 108.973 33.1094 110 34.3751 110C35.6407 110 36.6662 108.973 36.6662 107.71C36.6662 106.441 35.6407 105.414 34.3751 105.414ZM38.959 105.414C37.6933 105.414 36.6662 106.441 36.6662 107.71C36.6662 108.973 37.6933 110 38.959 110C40.2246 110 41.2501 108.973 41.2501 107.71C41.2501 106.441 40.2246 105.414 38.959 105.414ZM41.2501 107.71C41.2501 108.973 42.2755 110 43.5412 110C44.8068 110 45.834 108.973 45.834 107.71C45.834 106.441 44.8068 105.414 43.5412 105.414C42.2755 105.414 41.2501 106.441 41.2501 107.71ZM50.4162 107.71C50.4162 108.973 51.4433 110 52.709 110C53.9746 110 55.0001 108.973 55.0001 107.71C55.0001 106.441 53.9746 105.414 52.709 105.414C51.4433 105.414 50.4162 106.441 50.4162 107.71ZM61.8751 105.414C60.6094 105.414 59.5857 106.441 59.5857 107.71C59.5857 108.973 60.6096 110 61.8751 110C63.1405 110 64.1645 108.973 64.1645 107.71C64.1645 106.441 63.1407 105.414 61.8751 105.414ZM68.7501 107.71C68.7501 108.973 69.7772 110 71.0395 110C72.3083 110 73.3357 108.973 73.3357 107.71C73.3358 107.409 73.2765 107.11 73.1612 106.831C73.0459 106.553 72.8767 106.3 72.6635 106.086C72.4502 105.873 72.197 105.704 71.9184 105.589C71.6397 105.473 71.341 105.414 71.0395 105.414C69.7772 105.414 68.7501 106.441 68.7501 107.71Z" fill="black"/>
<path d="M75.6253 110C76.891 110 77.9147 108.973 77.9147 107.71C77.9147 106.441 76.8907 105.414 75.6253 105.414C74.3599 105.414 73.3359 106.441 73.3359 107.71C73.3359 108.973 74.3597 110 75.6253 110ZM84.7897 105.414C83.5275 105.414 82.5003 106.441 82.5003 107.71C82.5003 108.973 83.5275 110 84.7897 110C86.0586 110 87.0859 108.973 87.0859 107.71C87.0861 107.409 87.0267 107.11 86.9114 106.831C86.796 106.553 86.6269 106.3 86.4136 106.086C86.2004 105.873 85.9472 105.704 85.6686 105.589C85.3899 105.473 85.0913 105.414 84.7897 105.414Z" fill="black"/>
<path d="M87.0859 107.71C87.0859 108.973 88.1099 110 89.3753 110C90.6407 110 91.6647 108.973 91.6647 107.71C91.6647 106.441 90.6407 105.414 89.3753 105.414C88.1099 105.414 87.0859 106.441 87.0859 107.71Z" fill="black"/>
<path d="M93.9607 110C95.2229 110 96.2501 108.973 96.2501 107.711C96.2501 106.442 95.2229 105.414 93.9607 105.414C93.6591 105.414 93.3605 105.474 93.0818 105.589C92.8031 105.704 92.5499 105.873 92.3367 106.087C92.1234 106.3 91.9543 106.553 91.839 106.832C91.7236 107.11 91.6643 107.409 91.6645 107.711C91.6645 108.973 92.6918 110 93.9607 110ZM100.836 107.711C100.836 108.973 101.86 110 103.125 110C104.391 110 105.414 108.973 105.414 107.711C105.414 106.442 104.391 105.414 103.125 105.414C101.86 105.414 100.836 106.442 100.836 107.711ZM36.6662 103.125C36.6662 101.859 35.6407 100.836 34.3751 100.836C33.1094 100.836 32.084 101.86 32.084 103.125C32.084 104.39 33.1094 105.414 34.3751 105.414C35.6407 105.414 36.6662 104.391 36.6662 103.125ZM43.5412 100.836C42.2755 100.836 41.2501 101.86 41.2501 103.125C41.2501 104.39 42.2755 105.414 43.5412 105.414C44.8068 105.414 45.834 104.39 45.834 103.125C45.834 101.86 44.8068 100.836 43.5412 100.836ZM48.1251 100.836C46.8594 100.836 45.834 101.86 45.834 103.125C45.834 104.39 46.8594 105.414 48.1251 105.414C49.3907 105.414 50.4162 104.39 50.4162 103.125C50.4162 101.86 49.3907 100.836 48.1251 100.836ZM52.709 100.836C51.4433 100.836 50.4162 101.86 50.4162 103.125C50.4162 104.39 51.4433 105.414 52.709 105.414C53.9746 105.414 55.0001 104.391 55.0001 103.125C55.0001 101.859 53.9746 100.836 52.709 100.836ZM55.0001 103.125C55.0001 104.391 56.0255 105.414 57.2912 105.414C58.5583 105.414 59.5857 104.39 59.5857 103.125C59.5857 101.86 58.5585 100.836 57.2912 100.836C56.0255 100.836 55.0001 101.859 55.0001 103.125ZM64.1645 103.125C64.1645 104.391 65.1916 105.414 66.4607 105.414C67.7229 105.414 68.7501 104.39 68.7501 103.125C68.7501 101.86 67.7229 100.836 66.4607 100.836C65.1918 100.836 64.1645 101.859 64.1645 103.125ZM71.0395 105.414C72.3083 105.414 73.3357 104.39 73.3357 103.125C73.3357 101.86 72.3085 100.836 71.0395 100.836C69.7772 100.836 68.7501 101.86 68.7501 103.125C68.7501 104.39 69.7772 105.414 71.0395 105.414ZM80.2107 100.836C78.9418 100.836 77.9145 101.86 77.9145 103.125C77.9145 104.39 78.9416 105.414 80.2107 105.414C81.4729 105.414 82.5001 104.39 82.5001 103.125C82.5001 101.86 81.4729 100.836 80.2107 100.836ZM87.0857 103.125C87.0857 101.859 86.0585 100.836 84.7895 100.836C83.5272 100.836 82.5001 101.86 82.5001 103.125C82.5001 104.39 83.5272 105.414 84.7895 105.414C86.0583 105.414 87.0857 104.391 87.0857 103.125ZM87.0857 103.125C87.0857 104.391 88.1096 105.414 89.3751 105.414C90.6405 105.414 91.6645 104.39 91.6645 103.125C91.6645 101.86 90.6405 100.836 89.3751 100.836C88.1096 100.836 87.0857 101.859 87.0857 103.125ZM98.5395 100.836C97.2772 100.836 96.2501 101.86 96.2501 103.125C96.2501 104.39 97.2772 105.414 98.5395 105.414C99.8083 105.414 100.836 104.39 100.836 103.125C100.836 101.86 99.8083 100.836 98.5395 100.836ZM105.414 103.125C105.414 101.859 104.391 100.836 103.125 100.836C101.86 100.836 100.836 101.86 100.836 103.125C100.836 104.39 101.86 105.414 103.125 105.414C104.391 105.414 105.414 104.391 105.414 103.125ZM38.959 96.25C37.6933 96.25 36.6662 97.2772 36.6662 98.5394C36.6662 99.8082 37.6933 100.836 38.959 100.836C40.2246 100.836 41.2501 99.8082 41.2501 98.5394C41.2501 97.2772 40.2246 96.25 38.959 96.25ZM45.834 98.5394C45.834 97.2772 44.8068 96.25 43.5412 96.25C42.2755 96.25 41.2501 97.2772 41.2501 98.5394C41.2501 99.8082 42.2755 100.836 43.5412 100.836C44.8068 100.836 45.834 99.8082 45.834 98.5394ZM57.2912 96.25C56.0255 96.25 55.0001 97.2772 55.0001 98.5394C55.0001 99.8082 56.0255 100.836 57.2912 100.836C58.5583 100.836 59.5857 99.8085 59.5857 98.5394C59.5857 97.2772 58.5583 96.25 57.2912 96.25ZM59.5857 98.5394C59.5857 99.8082 60.6096 100.836 61.8751 100.836C63.1405 100.836 64.1645 99.8085 64.1645 98.5394C64.1645 97.2772 63.1405 96.25 61.8751 96.25C60.6096 96.25 59.5857 97.2772 59.5857 98.5394Z" fill="black"/>
<path d="M66.4603 100.836C67.7225 100.836 68.7497 99.8085 68.7497 98.5394C68.7497 97.2772 67.7225 96.25 66.4603 96.25C65.1914 96.25 64.1641 97.2772 64.1641 98.5394C64.1639 98.841 64.2233 99.1396 64.3386 99.4182C64.454 99.6969 64.6231 99.9501 64.8364 100.163C65.0496 100.377 65.3028 100.546 65.5814 100.661C65.8601 100.776 66.1587 100.836 66.4603 100.836ZM75.6247 96.25C74.359 96.25 73.3353 97.2772 73.3353 98.5394C73.3353 99.8082 74.3593 100.836 75.6247 100.836C76.8901 100.836 77.9141 99.8085 77.9141 98.5394C77.9141 97.2772 76.8903 96.25 75.6247 96.25Z" fill="black"/>
<path d="M82.5001 98.5391C82.5001 97.2769 81.4729 96.2497 80.2107 96.2497C78.9418 96.2497 77.9145 97.2769 77.9145 98.5391C77.9143 98.8407 77.9736 99.1393 78.089 99.418C78.2043 99.6966 78.3734 99.9498 78.5867 100.163C78.7999 100.376 79.0531 100.545 79.3318 100.661C79.6105 100.776 79.9091 100.835 80.2107 100.835C81.4729 100.835 82.5001 99.8079 82.5001 98.5391ZM87.0857 98.5391C87.0857 99.8079 88.1096 100.835 89.3751 100.835C90.6405 100.835 91.6645 99.8081 91.6645 98.5391C91.6645 97.2769 90.6405 96.2497 89.3751 96.2497C88.1096 96.2497 87.0857 97.2769 87.0857 98.5391ZM100.836 98.5391C100.836 97.2769 99.8085 96.2497 98.5395 96.2497C97.2772 96.2497 96.2501 97.2769 96.2501 98.5391C96.2501 99.8079 97.2772 100.835 98.5395 100.835C98.841 100.835 99.1397 100.776 99.4183 100.661C99.697 100.545 99.9501 100.376 100.163 100.163C100.377 99.9498 100.546 99.6966 100.661 99.4179C100.776 99.1393 100.836 98.8406 100.836 98.5391ZM105.414 98.5391C105.414 98.8407 105.474 99.1393 105.589 99.418C105.704 99.6966 105.873 99.9498 106.087 100.163C106.3 100.376 106.553 100.545 106.832 100.661C107.11 100.776 107.409 100.835 107.711 100.835C108.973 100.835 110 99.8081 110 98.5391C110 97.2769 108.973 96.2497 107.711 96.2497C106.442 96.2497 105.414 97.2769 105.414 98.5391ZM34.3751 91.6641C33.1094 91.6641 32.084 92.6912 32.084 93.9603C32.084 95.2225 33.1094 96.2497 34.3751 96.2497C35.6407 96.2497 36.6662 95.2225 36.6662 93.9603C36.6662 92.6914 35.6407 91.6641 34.3751 91.6641ZM41.2501 93.9603C41.2501 92.6914 40.2246 91.6641 38.959 91.6641C37.6933 91.6641 36.6662 92.6912 36.6662 93.9603C36.6662 95.2225 37.6933 96.2497 38.959 96.2497C40.2246 96.2497 41.2501 95.2225 41.2501 93.9603ZM43.5412 96.2497C44.8068 96.2497 45.834 95.2225 45.834 93.9603C45.834 92.6914 44.8068 91.6641 43.5412 91.6641C42.2755 91.6641 41.2501 92.6914 41.2501 93.9603C41.2501 95.2225 42.2755 96.2497 43.5412 96.2497ZM59.5857 93.9603C59.5857 92.6914 58.5585 91.6641 57.2912 91.6641C56.0255 91.6641 55.0001 92.6912 55.0001 93.9603C55.0001 95.2225 56.0255 96.2497 57.2912 96.2497C58.5583 96.2497 59.5857 95.2225 59.5857 93.9603ZM59.5857 93.9603C59.5857 95.2225 60.6096 96.2497 61.8751 96.2497C63.1405 96.2497 64.1645 95.2225 64.1645 93.9603C64.1645 92.6914 63.1405 91.6641 61.8751 91.6641C60.6096 91.6641 59.5857 92.6914 59.5857 93.9603ZM71.0395 91.6641C69.7772 91.6641 68.7501 92.6912 68.7501 93.9603C68.7501 95.2225 69.7772 96.2497 71.0395 96.2497C72.3083 96.2497 73.3357 95.2225 73.3357 93.9603C73.3358 93.6587 73.2765 93.3601 73.1611 93.0814C73.0458 92.8028 72.8766 92.5496 72.6634 92.3364C72.4501 92.1231 72.197 91.954 71.9183 91.8386C71.6397 91.7233 71.341 91.6639 71.0395 91.6641ZM100.836 93.9603C100.836 95.2225 101.86 96.2497 103.125 96.2497C104.391 96.2497 105.414 95.2225 105.414 93.9603C105.414 92.6914 104.391 91.6641 103.125 91.6641C101.86 91.6641 100.836 92.6914 100.836 93.9603Z" fill="black"/>
<path d="M107.711 96.25C108.973 96.25 110 95.2228 110 93.9606C110 92.6918 108.973 91.6644 107.711 91.6644C107.409 91.6642 107.11 91.7235 106.832 91.8389C106.553 91.9542 106.3 92.1234 106.087 92.3366C105.873 92.5499 105.704 92.8031 105.589 93.0817C105.474 93.3604 105.414 93.659 105.414 93.9606C105.414 95.2228 106.442 96.25 107.711 96.25ZM36.6662 89.375C36.6662 88.1094 35.6407 87.0856 34.3751 87.0856C33.1094 87.0856 32.084 88.1096 32.084 89.375C32.084 90.6404 33.1094 91.6644 34.3751 91.6644C35.6407 91.6644 36.6662 90.6406 36.6662 89.375ZM45.834 89.375C45.834 88.1094 44.8068 87.0856 43.5412 87.0856C42.2755 87.0856 41.2501 88.1094 41.2501 89.375C41.2501 90.6406 42.2755 91.6644 43.5412 91.6644C44.8068 91.6644 45.834 90.6406 45.834 89.375ZM48.1251 91.6644C49.3907 91.6644 50.4162 90.6404 50.4162 89.375C50.4162 88.1096 49.3907 87.0856 48.1251 87.0856C46.8594 87.0856 45.834 88.1096 45.834 89.375C45.834 90.6404 46.8594 91.6644 48.1251 91.6644ZM59.5857 89.375C59.5857 88.1094 58.5585 87.0856 57.2912 87.0856C56.0255 87.0856 55.0001 88.1096 55.0001 89.375C55.0001 90.6404 56.0255 91.6644 57.2912 91.6644C58.5583 91.6644 59.5857 90.6406 59.5857 89.375ZM59.5857 89.375C59.5857 90.6406 60.6096 91.6644 61.8751 91.6644C63.1405 91.6644 64.1645 90.6404 64.1645 89.375C64.1645 88.1096 63.1405 87.0856 61.8751 87.0856C60.6096 87.0856 59.5857 88.1094 59.5857 89.375ZM73.3357 89.375C73.3357 88.1094 72.3085 87.0856 71.0395 87.0856C69.7772 87.0856 68.7501 88.1096 68.7501 89.375C68.7501 90.6404 69.7772 91.6644 71.0395 91.6644C72.3083 91.6644 73.3357 90.6406 73.3357 89.375ZM100.836 89.375C100.836 90.6406 101.86 91.6644 103.125 91.6644C104.391 91.6644 105.414 90.6404 105.414 89.375C105.414 88.1096 104.391 87.0856 103.125 87.0856C101.86 87.0856 100.836 88.1094 100.836 89.375ZM36.6662 84.7894C36.6662 83.5272 35.6407 82.5 34.3751 82.5C33.1094 82.5 32.084 83.5272 32.084 84.7894C32.084 86.0582 33.1094 87.0856 34.3751 87.0856C35.6407 87.0856 36.6662 86.0582 36.6662 84.7894ZM45.834 84.7894C45.834 83.5272 44.8068 82.5 43.5412 82.5C42.2755 82.5 41.2501 83.5272 41.2501 84.7894C41.2501 86.0582 42.2755 87.0856 43.5412 87.0856C44.8068 87.0856 45.834 86.0582 45.834 84.7894ZM50.4162 84.7894C50.4162 86.0582 51.4433 87.0856 52.709 87.0856C53.9746 87.0856 55.0001 86.0582 55.0001 84.7894C55.0001 83.5272 53.9746 82.5 52.709 82.5C51.4433 82.5 50.4162 83.5272 50.4162 84.7894ZM61.8751 82.5C60.6094 82.5 59.5857 83.5272 59.5857 84.7894C59.5857 86.0582 60.6096 87.0856 61.8751 87.0856C63.1405 87.0856 64.1645 86.0585 64.1645 84.7894C64.1645 83.5272 63.1407 82.5 61.8751 82.5Z" fill="black"/>
<path d="M64.1641 84.7894C64.1639 85.091 64.2232 85.3896 64.3386 85.6683C64.4539 85.9469 64.623 86.2001 64.8363 86.4134C65.0496 86.6266 65.3028 86.7958 65.5814 86.9111C65.8601 87.0265 66.1587 87.0858 66.4603 87.0856C67.7225 87.0856 68.7497 86.0585 68.7497 84.7894C68.7497 83.5272 67.7225 82.5 66.4603 82.5C65.1914 82.5 64.1641 83.5272 64.1641 84.7894ZM98.5391 82.5C97.2769 82.5 96.2497 83.5272 96.2497 84.7894C96.2497 86.0582 97.2769 87.0856 98.5391 87.0856C98.8407 87.0858 99.1393 87.0265 99.418 86.9111C99.6966 86.7958 99.9498 86.6266 100.163 86.4134C100.376 86.2001 100.545 85.9469 100.661 85.6683C100.776 85.3896 100.835 85.091 100.835 84.7894C100.835 83.5272 99.8079 82.5 98.5391 82.5Z" fill="black"/>
<path d="M103.125 82.5C101.86 82.5 100.836 83.5272 100.836 84.7894C100.836 86.0582 101.86 87.0856 103.125 87.0856C104.391 87.0856 105.415 86.0585 105.415 84.7894C105.415 83.5272 104.391 82.5 103.125 82.5Z" fill="black"/>
<path d="M105.414 84.7897C105.414 85.0913 105.474 85.3899 105.589 85.6686C105.704 85.9472 105.873 86.2004 106.087 86.4137C106.3 86.627 106.553 86.7961 106.832 86.9114C107.11 87.0268 107.409 87.0861 107.711 87.0859C108.973 87.0859 110 86.0588 110 84.7897C110 83.5275 108.973 82.5003 107.711 82.5003C106.442 82.5003 105.414 83.5275 105.414 84.7897ZM38.9589 77.9147C37.6933 77.9147 36.6661 78.9419 36.6661 80.2109C36.6661 81.4731 37.6933 82.5003 38.9589 82.5003C40.2246 82.5003 41.25 81.4731 41.25 80.2109C41.25 78.9421 40.2246 77.9147 38.9589 77.9147ZM45.8339 80.2109C45.8339 78.9421 44.8067 77.9147 43.5411 77.9147C42.2754 77.9147 41.25 78.9421 41.25 80.2109C41.25 81.4731 42.2754 82.5003 43.5411 82.5003C44.8067 82.5003 45.8339 81.4731 45.8339 80.2109ZM45.8339 80.2109C45.8339 81.4731 46.8594 82.5003 48.125 82.5003C49.3906 82.5003 50.4161 81.4731 50.4161 80.2109C50.4161 78.9421 49.3906 77.9147 48.125 77.9147C46.8594 77.9147 45.8339 78.9421 45.8339 80.2109ZM52.7089 82.5003C53.9746 82.5003 55 81.4731 55 80.2109C55 78.9421 53.9746 77.9147 52.7089 77.9147C51.4433 77.9147 50.4161 78.9419 50.4161 80.2109C50.4161 81.4731 51.4433 82.5003 52.7089 82.5003ZM57.2911 82.5003C58.5582 82.5003 59.5856 81.4731 59.5856 80.2109C59.5856 78.9421 58.5585 77.9147 57.2911 77.9147C56.0254 77.9147 55 78.9419 55 80.2109C55 81.4731 56.0254 82.5003 57.2911 82.5003ZM66.4606 77.9147C66.159 77.9145 65.8604 77.9738 65.5817 78.0892C65.3031 78.2045 65.0499 78.3737 64.8366 78.5869C64.6234 78.8002 64.4542 79.0534 64.3389 79.332C64.2235 79.6107 64.1642 79.9093 64.1644 80.2109C64.1644 81.4731 65.1915 82.5003 66.4606 82.5003C67.7228 82.5003 68.75 81.4731 68.75 80.2109C68.75 78.9421 67.7228 77.9147 66.4606 77.9147ZM71.0394 77.9147C69.7772 77.9147 68.75 78.9419 68.75 80.2109C68.75 81.4731 69.7772 82.5003 71.0394 82.5003C72.3082 82.5003 73.3356 81.4731 73.3356 80.2109C73.3357 79.9094 73.2764 79.6107 73.1611 79.3321C73.0457 79.0534 72.8766 78.8002 72.6633 78.587C72.4501 78.3737 72.1969 78.2046 71.9182 78.0893C71.6396 77.9739 71.341 77.9146 71.0394 77.9147ZM98.5394 82.5003C99.8082 82.5003 100.836 81.4731 100.836 80.2109C100.836 79.9093 100.776 79.6107 100.661 79.332C100.546 79.0534 100.377 78.8002 100.163 78.5869C99.9501 78.3737 99.6969 78.2045 99.4183 78.0892C99.1396 77.9738 98.841 77.9145 98.5394 77.9147C97.2772 77.9147 96.25 78.9419 96.25 80.2109C96.25 81.4731 97.2772 82.5003 98.5394 82.5003ZM110 80.2109C110 78.9421 108.973 77.9147 107.711 77.9147C107.409 77.9145 107.11 77.9738 106.832 78.0892C106.553 78.2045 106.3 78.3737 106.087 78.5869C105.873 78.8002 105.704 79.0534 105.589 79.332C105.474 79.6107 105.414 79.9093 105.414 80.2109C105.414 81.4731 106.442 82.5003 107.711 82.5003C108.973 82.5003 110 81.4731 110 80.2109ZM2.29109 73.3359C1.02545 73.3359 0 74.3597 0 75.6253C0 76.891 1.02545 77.9147 2.29109 77.9147C3.55674 77.9147 4.58391 76.891 4.58391 75.6253C4.58391 74.3597 3.55674 73.3359 2.29109 73.3359ZM6.875 73.3359C5.60936 73.3359 4.58391 74.3599 4.58391 75.6253C4.58391 76.8907 5.60936 77.9147 6.875 77.9147C8.14064 77.9147 9.16609 76.891 9.16609 75.6253C9.16609 74.3597 8.14064 73.3359 6.875 73.3359ZM9.16609 75.6253C9.16609 76.891 10.1933 77.9147 11.4589 77.9147C12.7246 77.9147 13.75 76.891 13.75 75.6253C13.75 74.3597 12.7246 73.3359 11.4589 73.3359C10.1933 73.3359 9.16609 74.3597 9.16609 75.6253ZM18.3339 75.6253C18.3339 76.891 19.3594 77.9147 20.625 77.9147C21.8906 77.9147 22.9161 76.8907 22.9161 75.6253C22.9161 74.3599 21.8906 73.3359 20.625 73.3359C19.3594 73.3359 18.3339 74.3597 18.3339 75.6253ZM27.5 75.6253C27.5 76.891 28.5254 77.9147 29.7911 77.9147C31.0567 77.9147 32.0839 76.8907 32.0839 75.6253C32.0839 74.3599 31.0567 73.3359 29.7911 73.3359C28.5254 73.3359 27.5 74.3597 27.5 75.6253ZM34.375 77.9147C35.6406 77.9147 36.6661 76.8907 36.6661 75.6253C36.6661 74.3599 35.6406 73.3359 34.375 73.3359C33.1094 73.3359 32.0839 74.3599 32.0839 75.6253C32.0839 76.8907 33.1094 77.9147 34.375 77.9147ZM45.8339 75.6253C45.8339 74.3597 44.8067 73.3359 43.5411 73.3359C42.2754 73.3359 41.25 74.3597 41.25 75.6253C41.25 76.891 42.2754 77.9147 43.5411 77.9147C44.8067 77.9147 45.8339 76.891 45.8339 75.6253ZM45.8339 75.6253C45.8339 76.891 46.8594 77.9147 48.125 77.9147C49.3906 77.9147 50.4161 76.8907 50.4161 75.6253C50.4161 74.3599 49.3906 73.3359 48.125 73.3359C46.8594 73.3359 45.8339 74.3597 45.8339 75.6253ZM59.5856 75.6253C59.5856 74.3597 58.5585 73.3359 57.2911 73.3359C56.0254 73.3359 55 74.3599 55 75.6253C55 76.8907 56.0254 77.9147 57.2911 77.9147C58.5582 77.9147 59.5856 76.891 59.5856 75.6253Z" fill="black"/>
<path d="M73.3356 75.6247C73.3356 74.359 72.3085 73.3353 71.0394 73.3353C69.7772 73.3353 68.75 74.3593 68.75 75.6247C68.75 76.8901 69.7772 77.9141 71.0394 77.9141C72.3082 77.9141 73.3356 76.8903 73.3356 75.6247ZM103.125 77.9141C104.391 77.9141 105.414 76.8901 105.414 75.6247C105.414 74.3593 104.39 73.3353 103.125 73.3353C101.86 73.3353 100.836 74.3593 100.836 75.6247C100.836 76.8901 101.859 77.9141 103.125 77.9141ZM4.58391 71.0391C4.58391 69.7769 3.55674 68.7497 2.29109 68.7497C1.02545 68.7497 0 69.7769 0 71.0391C0 72.3079 1.02545 73.3353 2.29109 73.3353C3.55674 73.3353 4.58391 72.3079 4.58391 71.0391ZM9.16609 71.0391C9.16609 72.3079 10.1933 73.3353 11.4589 73.3353C12.7246 73.3353 13.75 72.3079 13.75 71.0391C13.75 69.7769 12.7246 68.7497 11.4589 68.7497C10.1933 68.7497 9.16609 69.7769 9.16609 71.0391ZM18.3339 71.0391C18.3339 72.3079 19.3594 73.3353 20.625 73.3353C21.8906 73.3353 22.9161 72.3081 22.9161 71.0391C22.9161 69.7769 21.8906 68.7497 20.625 68.7497C19.3594 68.7497 18.3339 69.7769 18.3339 71.0391ZM27.5 71.0391C27.5 72.3079 28.5254 73.3353 29.7911 73.3353C31.0567 73.3353 32.0839 72.3081 32.0839 71.0391C32.0839 69.7769 31.0567 68.7497 29.7911 68.7497C28.5254 68.7497 27.5 69.7769 27.5 71.0391ZM38.9589 68.7497C37.6933 68.7497 36.6661 69.7769 36.6661 71.0391C36.6661 72.3079 37.6933 73.3353 38.9589 73.3353C40.2246 73.3353 41.25 72.3079 41.25 71.0391C41.25 69.7769 40.2246 68.7497 38.9589 68.7497ZM45.8339 71.0391C45.8339 69.7769 44.8067 68.7497 43.5411 68.7497C42.2754 68.7497 41.25 69.7769 41.25 71.0391C41.25 72.3079 42.2754 73.3353 43.5411 73.3353C44.8067 73.3353 45.8339 72.3079 45.8339 71.0391ZM48.125 73.3353C49.3906 73.3353 50.4161 72.3081 50.4161 71.0391C50.4161 69.7769 49.3906 68.7497 48.125 68.7497C46.8594 68.7497 45.8339 69.7769 45.8339 71.0391C45.8339 72.3079 46.8594 73.3353 48.125 73.3353ZM59.5856 71.0391C59.5856 69.7769 58.5585 68.7497 57.2911 68.7497C56.0254 68.7497 55 69.7769 55 71.0391C55 72.3079 56.0254 73.3353 57.2911 73.3353C58.5582 73.3353 59.5856 72.3079 59.5856 71.0391ZM64.1644 71.0391C64.1642 71.3407 64.2235 71.6393 64.3389 71.918C64.4542 72.1966 64.6234 72.4498 64.8366 72.6631C65.0499 72.8763 65.3031 73.0455 65.5817 73.1608C65.8604 73.2762 66.159 73.3355 66.4606 73.3353C67.7228 73.3353 68.75 72.3081 68.75 71.0391C68.75 69.7769 67.7228 68.7497 66.4606 68.7497C65.1918 68.7497 64.1644 69.7769 64.1644 71.0391ZM82.5 71.0391C82.5 69.7769 81.4728 68.7497 80.2106 68.7497C78.9418 68.7497 77.9144 69.7769 77.9144 71.0391C77.9142 71.3407 77.9735 71.6393 78.0889 71.918C78.2042 72.1966 78.3734 72.4498 78.5866 72.6631C78.7999 72.8763 79.0531 73.0455 79.3317 73.1608C79.6104 73.2762 79.909 73.3355 80.2106 73.3353C81.4728 73.3353 82.5 72.3079 82.5 71.0391ZM84.7894 73.3353C85.091 73.3355 85.3896 73.2762 85.6683 73.1608C85.9469 73.0455 86.2001 72.8763 86.4134 72.6631C86.6266 72.4498 86.7958 72.1966 86.9111 71.918C87.0265 71.6393 87.0858 71.3407 87.0856 71.0391C87.0856 69.7769 86.0585 68.7497 84.7894 68.7497C83.5272 68.7497 82.5 69.7769 82.5 71.0391C82.5 72.3079 83.5272 73.3353 84.7894 73.3353ZM96.25 71.0391C96.25 69.7769 95.2228 68.7497 93.9606 68.7497C92.6918 68.7497 91.6644 69.7769 91.6644 71.0391C91.6642 71.3407 91.7235 71.6393 91.8389 71.918C91.9542 72.1966 92.1234 72.4498 92.3366 72.6631C92.5499 72.8763 92.8031 73.0455 93.0817 73.1608C93.3604 73.2762 93.659 73.3355 93.9606 73.3353C95.2228 73.3353 96.25 72.3079 96.25 71.0391ZM98.5394 73.3353C98.841 73.3355 99.1396 73.2762 99.4183 73.1608C99.6969 73.0455 99.9501 72.8763 100.163 72.6631C100.377 72.4498 100.546 72.1966 100.661 71.918C100.776 71.6393 100.836 71.3407 100.836 71.0391C100.836 69.7769 99.8085 68.7497 98.5394 68.7497C97.2772 68.7497 96.25 69.7769 96.25 71.0391C96.25 72.3079 97.2772 73.3353 98.5394 73.3353ZM105.414 71.0391C105.414 71.3407 105.474 71.6393 105.589 71.918C105.704 72.1966 105.873 72.4498 106.087 72.6631C106.3 72.8763 106.553 73.0455 106.832 73.1608C107.11 73.2762 107.409 73.3355 107.711 73.3353C108.973 73.3353 110 72.3081 110 71.0391C110 69.7769 108.973 68.7497 107.711 68.7497C106.442 68.7497 105.414 69.7769 105.414 71.0391ZM4.58391 66.4603C4.58391 65.1914 3.55674 64.1641 2.29109 64.1641C1.02545 64.1641 0 65.1914 0 66.4603C0 67.7225 1.02545 68.7497 2.29109 68.7497C3.55674 68.7497 4.58391 67.7225 4.58391 66.4603ZM11.4589 64.1641C10.1933 64.1641 9.16609 65.1912 9.16609 66.4603C9.16609 67.7225 10.1933 68.7497 11.4589 68.7497C12.7246 68.7497 13.75 67.7225 13.75 66.4603C13.75 65.1914 12.7246 64.1641 11.4589 64.1641ZM16.0411 64.1641C14.7754 64.1641 13.75 65.1912 13.75 66.4603C13.75 67.7225 14.7754 68.7497 16.0411 68.7497C17.3067 68.7497 18.3339 67.7225 18.3339 66.4603C18.3339 65.1914 17.3067 64.1641 16.0411 64.1641ZM20.625 64.1641C19.3594 64.1641 18.3339 65.1912 18.3339 66.4603C18.3339 67.7225 19.3594 68.7497 20.625 68.7497C21.8906 68.7497 22.9161 67.7225 22.9161 66.4603C22.9161 65.1914 21.8906 64.1641 20.625 64.1641ZM25.2089 64.1641C23.9433 64.1641 22.9161 65.1912 22.9161 66.4603C22.9161 67.7225 23.9433 68.7497 25.2089 68.7497C26.4746 68.7497 27.5 67.7225 27.5 66.4603C27.5 65.1914 26.4746 64.1641 25.2089 64.1641Z" fill="black"/>
<path d="M29.7912 64.1647C28.5255 64.1647 27.5001 65.1919 27.5001 66.4609C27.5001 67.7231 28.5255 68.7503 29.7912 68.7503C31.0568 68.7503 32.084 67.7231 32.084 66.4609C32.084 65.1921 31.0568 64.1647 29.7912 64.1647ZM32.084 66.4609C32.084 67.7231 33.1094 68.7503 34.3751 68.7503C35.6407 68.7503 36.6662 67.7231 36.6662 66.4609C36.6662 65.1921 35.6407 64.1647 34.3751 64.1647C33.1094 64.1647 32.084 65.1921 32.084 66.4609ZM50.4162 66.4609C50.4162 65.1921 49.3907 64.1647 48.1251 64.1647C46.8594 64.1647 45.834 65.1919 45.834 66.4609C45.834 67.7231 46.8594 68.7503 48.1251 68.7503C49.3907 68.7503 50.4162 67.7231 50.4162 66.4609ZM59.5857 66.4609C59.5857 65.1921 58.5585 64.1647 57.2912 64.1647C56.0255 64.1647 55.0001 65.1919 55.0001 66.4609C55.0001 67.7231 56.0255 68.7503 57.2912 68.7503C58.5583 68.7503 59.5857 67.7231 59.5857 66.4609ZM64.1645 66.4609C64.1645 67.7231 65.1916 68.7503 66.4607 68.7503C67.7229 68.7503 68.7501 67.7231 68.7501 66.4609C68.7501 65.1921 67.7229 64.1647 66.4607 64.1647C66.1591 64.1646 65.8605 64.2239 65.5818 64.3393C65.3032 64.4546 65.05 64.6237 64.8368 64.837C64.6235 65.0502 64.4544 65.3034 64.339 65.5821C64.2237 65.8607 64.1643 66.1594 64.1645 66.4609ZM71.0395 68.7503C72.3083 68.7503 73.3357 67.7231 73.3357 66.4609C73.3358 66.1593 73.2766 65.8607 73.1612 65.582C73.0459 65.3034 72.8767 65.0502 72.6635 64.8369C72.4502 64.6237 72.197 64.4545 71.9184 64.3392C71.6397 64.2238 71.341 64.1645 71.0395 64.1647C69.7772 64.1647 68.7501 65.1919 68.7501 66.4609C68.7501 67.7231 69.7772 68.7503 71.0395 68.7503ZM87.0857 66.4609C87.0858 66.1593 87.0266 65.8607 86.9112 65.582C86.7959 65.3034 86.6267 65.0502 86.4135 64.8369C86.2002 64.6237 85.947 64.4545 85.6684 64.3392C85.3897 64.2238 85.091 64.1645 84.7895 64.1647C83.5272 64.1647 82.5001 65.1919 82.5001 66.4609C82.5001 67.7231 83.5272 68.7503 84.7895 68.7503C86.0583 68.7503 87.0857 67.7231 87.0857 66.4609ZM96.2501 66.4609C96.2501 65.1921 95.2229 64.1647 93.9607 64.1647C93.6591 64.1645 93.3605 64.2238 93.0818 64.3392C92.8031 64.4545 92.5499 64.6237 92.3367 64.8369C92.1234 65.0502 91.9543 65.3034 91.839 65.582C91.7236 65.8607 91.6643 66.1593 91.6645 66.4609C91.6645 67.7231 92.6916 68.7503 93.9607 68.7503C95.2229 68.7503 96.2501 67.7231 96.2501 66.4609ZM105.414 66.4609C105.414 67.7231 106.442 68.7503 107.711 68.7503C108.973 68.7503 110 67.7231 110 66.4609C110 65.1921 108.973 64.1647 107.711 64.1647C107.409 64.1646 107.11 64.2239 106.832 64.3393C106.553 64.4546 106.3 64.6237 106.087 64.837C105.874 65.0502 105.704 65.3034 105.589 65.5821C105.474 65.8607 105.414 66.1594 105.414 66.4609ZM6.87508 59.5859C5.60943 59.5859 4.58398 60.6099 4.58398 61.8753C4.58398 63.1407 5.60943 64.1647 6.87508 64.1647C8.14072 64.1647 9.16617 63.141 9.16617 61.8753C9.16617 60.6097 8.14072 59.5859 6.87508 59.5859ZM13.7501 61.8753C13.7501 60.6097 12.7246 59.5859 11.459 59.5859C10.1933 59.5859 9.16617 60.6097 9.16617 61.8753C9.16617 63.141 10.1933 64.1647 11.459 64.1647C12.7246 64.1647 13.7501 63.141 13.7501 61.8753ZM22.9162 61.8753C22.9162 63.141 23.9433 64.1647 25.209 64.1647C26.4746 64.1647 27.5001 63.141 27.5001 61.8753C27.5001 60.6097 26.4746 59.5859 25.209 59.5859C23.9433 59.5859 22.9162 60.6097 22.9162 61.8753ZM34.3751 59.5859C33.1094 59.5859 32.084 60.6099 32.084 61.8753C32.084 63.1407 33.1094 64.1647 34.3751 64.1647C35.6407 64.1647 36.6662 63.1407 36.6662 61.8753C36.6662 60.6099 35.6407 59.5859 34.3751 59.5859ZM36.6662 61.8753C36.6662 63.141 37.6933 64.1647 38.959 64.1647C40.2246 64.1647 41.2501 63.141 41.2501 61.8753C41.2501 60.6097 40.2246 59.5859 38.959 59.5859C37.6933 59.5859 36.6662 60.6097 36.6662 61.8753ZM50.4162 61.8753C50.4162 63.141 51.4433 64.1647 52.709 64.1647C53.9746 64.1647 55.0001 63.141 55.0001 61.8753C55.0001 60.6097 53.9746 59.5859 52.709 59.5859C51.4433 59.5859 50.4162 60.6097 50.4162 61.8753ZM61.8751 59.5859C60.6094 59.5859 59.5857 60.6099 59.5857 61.8753C59.5857 63.1407 60.6096 64.1647 61.8751 64.1647C63.1405 64.1647 64.1645 63.1407 64.1645 61.8753C64.1645 60.6099 63.1407 59.5859 61.8751 59.5859Z" fill="black"/>
<path d="M64.1644 61.8769C64.1644 63.1425 65.1915 64.1663 66.4606 64.1663C67.7228 64.1663 68.75 63.1423 68.75 61.8769C68.75 60.6114 67.7228 59.5875 66.4606 59.5875C65.1918 59.5875 64.1644 60.6112 64.1644 61.8769ZM80.2106 59.5875C78.9418 59.5875 77.9144 60.6114 77.9144 61.8769C77.9144 63.1423 78.9415 64.1663 80.2106 64.1663C81.4728 64.1663 82.5 63.1423 82.5 61.8769C82.5 60.6114 81.4728 59.5875 80.2106 59.5875ZM87.0856 61.8769C87.0856 60.6112 86.0585 59.5875 84.7894 59.5875C83.5272 59.5875 82.5 60.6114 82.5 61.8769C82.5 63.1423 83.5272 64.1663 84.7894 64.1663C86.0582 64.1663 87.0856 63.1425 87.0856 61.8769ZM89.375 64.1663C90.6406 64.1663 91.6644 63.1423 91.6644 61.8769C91.6644 60.6114 90.6404 59.5875 89.375 59.5875C88.1096 59.5875 87.0856 60.6114 87.0856 61.8769C87.0856 63.1423 88.1094 64.1663 89.375 64.1663ZM98.5394 59.5875C97.2772 59.5875 96.25 60.6114 96.25 61.8769C96.25 63.1423 97.2772 64.1663 98.5394 64.1663C99.8082 64.1663 100.836 63.1423 100.836 61.8769C100.836 60.6114 99.8082 59.5875 98.5394 59.5875ZM103.125 59.5875C101.859 59.5875 100.836 60.6114 100.836 61.8769C100.836 63.1423 101.86 64.1663 103.125 64.1663C104.39 64.1663 105.414 63.1423 105.414 61.8769C105.414 60.6114 104.391 59.5875 103.125 59.5875ZM110 61.8769C110 60.6112 108.973 59.5875 107.711 59.5875C106.442 59.5875 105.414 60.6114 105.414 61.8769C105.414 63.1423 106.442 64.1663 107.711 64.1663C108.973 64.1663 110 63.1425 110 61.8769ZM2.29109 55.0019C1.02545 55.0019 0 56.0273 0 57.293C0 58.5601 1.02545 59.5875 2.29109 59.5875C3.55674 59.5875 4.58391 58.5603 4.58391 57.293C4.58391 56.0273 3.55674 55.0019 2.29109 55.0019ZM9.16609 57.293C9.16609 56.0273 8.14064 55.0019 6.875 55.0019C5.60936 55.0019 4.58391 56.0273 4.58391 57.293C4.58391 58.5601 5.60936 59.5875 6.875 59.5875C8.14064 59.5875 9.16609 58.5601 9.16609 57.293ZM11.4589 55.0019C10.1933 55.0019 9.16609 56.0273 9.16609 57.293C9.16609 58.5601 10.1933 59.5875 11.4589 59.5875C12.7246 59.5875 13.75 58.5601 13.75 57.293C13.75 56.0273 12.7246 55.0019 11.4589 55.0019ZM16.0411 55.0019C14.7754 55.0019 13.75 56.0273 13.75 57.293C13.75 58.5601 14.7754 59.5875 16.0411 59.5875C17.3067 59.5875 18.3339 58.5603 18.3339 57.293C18.3339 56.0273 17.3067 55.0019 16.0411 55.0019ZM20.625 55.0019C19.3594 55.0019 18.3339 56.0273 18.3339 57.293C18.3339 58.5601 19.3594 59.5875 20.625 59.5875C21.8906 59.5875 22.9161 58.5603 22.9161 57.293C22.9161 56.0273 21.8906 55.0019 20.625 55.0019ZM22.9161 57.293C22.9161 58.5601 23.9433 59.5875 25.2089 59.5875C26.4746 59.5875 27.5 58.5601 27.5 57.293C27.5 56.0273 26.4746 55.0019 25.2089 55.0019C23.9433 55.0019 22.9161 56.0273 22.9161 57.293ZM29.7911 59.5875C31.0567 59.5875 32.0839 58.5603 32.0839 57.293C32.0839 56.0273 31.0567 55.0019 29.7911 55.0019C28.5254 55.0019 27.5 56.0273 27.5 57.293C27.5 58.5601 28.5254 59.5875 29.7911 59.5875ZM36.6661 57.293C36.6661 58.5601 37.6933 59.5875 38.9589 59.5875C40.2246 59.5875 41.25 58.5601 41.25 57.293C41.25 56.0273 40.2246 55.0019 38.9589 55.0019C37.6933 55.0019 36.6661 56.0273 36.6661 57.293ZM43.5411 59.5875C44.8067 59.5875 45.8339 58.5603 45.8339 57.293C45.8339 56.0273 44.8067 55.0019 43.5411 55.0019C42.2754 55.0019 41.25 56.0273 41.25 57.293C41.25 58.5601 42.2754 59.5875 43.5411 59.5875ZM48.125 59.5875C49.3906 59.5875 50.4161 58.5603 50.4161 57.293C50.4161 56.0273 49.3906 55.0019 48.125 55.0019C46.8594 55.0019 45.8339 56.0273 45.8339 57.293C45.8339 58.5601 46.8594 59.5875 48.125 59.5875ZM52.7089 59.5875C53.9746 59.5875 55 58.5603 55 57.293C55 56.0273 53.9746 55.0019 52.7089 55.0019C51.4433 55.0019 50.4161 56.0273 50.4161 57.293C50.4161 58.5601 51.4433 59.5875 52.7089 59.5875ZM64.1644 57.293C64.1644 56.0273 63.1404 55.0019 61.875 55.0019C60.6096 55.0019 59.5856 56.0273 59.5856 57.293C59.5856 58.5601 60.6096 59.5875 61.875 59.5875C63.1404 59.5875 64.1644 58.5601 64.1644 57.293ZM64.1644 57.293C64.1644 58.5601 65.1915 59.5875 66.4606 59.5875C67.7228 59.5875 68.75 58.5603 68.75 57.293C68.75 56.0273 67.7228 55.0019 66.4606 55.0019C65.1918 55.0019 64.1644 56.0273 64.1644 57.293ZM75.625 55.0019C74.3594 55.0019 73.3356 56.0273 73.3356 57.293C73.3356 58.5601 74.3596 59.5875 75.625 59.5875C76.8904 59.5875 77.9144 58.5603 77.9144 57.293C77.9144 56.0273 76.8906 55.0019 75.625 55.0019ZM82.5 57.293C82.5 56.0273 81.4728 55.0019 80.2106 55.0019C78.9418 55.0019 77.9144 56.0273 77.9144 57.293C77.9144 58.5601 78.9415 59.5875 80.2106 59.5875C81.4728 59.5875 82.5 58.5601 82.5 57.293ZM91.6644 57.293C91.6644 58.5601 92.6915 59.5875 93.9606 59.5875C95.2228 59.5875 96.25 58.5603 96.25 57.293C96.25 56.0273 95.2228 55.0019 93.9606 55.0019C92.6918 55.0019 91.6644 56.0273 91.6644 57.293ZM105.414 57.293C105.414 56.0273 104.39 55.0019 103.125 55.0019C101.86 55.0019 100.836 56.0273 100.836 57.293C100.836 58.5601 101.86 59.5875 103.125 59.5875C104.39 59.5875 105.414 58.5601 105.414 57.293ZM4.58391 52.7108C4.58391 51.4451 3.55674 50.418 2.29109 50.418C1.02545 50.418 0 51.4451 0 52.7108C0 53.9764 1.02545 55.0019 2.29109 55.0019C3.55674 55.0019 4.58391 53.9764 4.58391 52.7108ZM6.875 55.0019C8.14064 55.0019 9.16609 53.9764 9.16609 52.7108C9.16609 51.4451 8.14064 50.418 6.875 50.418C5.60936 50.418 4.58391 51.4451 4.58391 52.7108C4.58391 53.9764 5.60936 55.0019 6.875 55.0019ZM18.3339 52.7108C18.3339 51.4451 17.3067 50.418 16.0411 50.418C14.7754 50.418 13.75 51.4451 13.75 52.7108C13.75 53.9764 14.7754 55.0019 16.0411 55.0019C17.3067 55.0019 18.3339 53.9764 18.3339 52.7108ZM22.9161 52.7108C22.9161 53.9764 23.9433 55.0019 25.2089 55.0019C26.4746 55.0019 27.5 53.9764 27.5 52.7108C27.5 51.4451 26.4746 50.418 25.2089 50.418C23.9433 50.418 22.9161 51.4451 22.9161 52.7108ZM32.0839 52.7108C32.0839 53.9764 33.1094 55.0019 34.375 55.0019C35.6406 55.0019 36.6661 53.9764 36.6661 52.7108C36.6661 51.4451 35.6406 50.418 34.375 50.418C33.1094 50.418 32.0839 51.4451 32.0839 52.7108ZM36.6661 52.7108C36.6661 53.9764 37.6933 55.0019 38.9589 55.0019C40.2246 55.0019 41.25 53.9764 41.25 52.7108C41.25 51.4451 40.2246 50.418 38.9589 50.418C37.6933 50.418 36.6661 51.4451 36.6661 52.7108ZM59.5856 52.7108C59.5856 53.9764 60.6096 55.0019 61.875 55.0019C63.1404 55.0019 64.1644 53.9764 64.1644 52.7108C64.1644 51.4451 63.1404 50.418 61.875 50.418C60.6096 50.418 59.5856 51.4451 59.5856 52.7108ZM66.4606 55.0019C67.7228 55.0019 68.75 53.9764 68.75 52.7108C68.75 51.4451 67.7228 50.418 66.4606 50.418C65.1918 50.418 64.1644 51.4451 64.1644 52.7108C64.1644 53.9764 65.1918 55.0019 66.4606 55.0019ZM77.9144 52.7108C77.9144 51.4451 76.8904 50.418 75.625 50.418C74.3596 50.418 73.3356 51.4451 73.3356 52.7108C73.3356 53.9764 74.3594 55.0019 75.625 55.0019C76.8906 55.0019 77.9144 53.9764 77.9144 52.7108ZM84.7894 50.418C83.5272 50.418 82.5 51.4451 82.5 52.7108C82.5 53.9764 83.5272 55.0019 84.7894 55.0019C86.0582 55.0019 87.0856 53.9764 87.0856 52.7108C87.0856 51.4451 86.0582 50.418 84.7894 50.418ZM87.0856 52.7108C87.0856 53.9764 88.1096 55.0019 89.375 55.0019C90.6404 55.0019 91.6644 53.9764 91.6644 52.7108C91.6644 51.4451 90.6404 50.418 89.375 50.418C88.1096 50.418 87.0856 51.4451 87.0856 52.7108ZM93.9606 55.0019C95.2228 55.0019 96.25 53.9764 96.25 52.7108C96.25 51.4451 95.2228 50.418 93.9606 50.418C92.6918 50.418 91.6644 51.4451 91.6644 52.7108C91.6644 53.9764 92.6918 55.0019 93.9606 55.0019ZM98.5394 55.0019C99.8082 55.0019 100.836 53.9764 100.836 52.7108C100.836 51.4451 99.8085 50.418 98.5394 50.418C97.2772 50.418 96.25 51.4451 96.25 52.7108C96.25 53.9764 97.2772 55.0019 98.5394 55.0019ZM105.414 52.7108C105.414 53.9764 106.442 55.0019 107.711 55.0019C108.973 55.0019 110 53.9764 110 52.7108C110 51.4451 108.973 50.418 107.711 50.418C106.442 50.418 105.414 51.4451 105.414 52.7108Z" fill="black"/>
<path d="M6.87508 50.4142C8.14041 50.4142 9.16617 49.3885 9.16617 48.1231C9.16617 46.8578 8.14041 45.832 6.87508 45.832C5.60974 45.832 4.58398 46.8578 4.58398 48.1231C4.58398 49.3885 5.60974 50.4142 6.87508 50.4142Z" fill="black"/>
<path d="M11.4588 50.4142C12.7245 50.4142 13.7499 49.3888 13.7499 48.1231C13.7499 46.8575 12.7245 45.832 11.4588 45.832C10.1932 45.832 9.16602 46.8575 9.16602 48.1231C9.16602 49.3888 10.1932 50.4142 11.4588 50.4142ZM16.041 50.4142C17.3067 50.4142 18.3338 49.3888 18.3338 48.1231C18.3338 46.8575 17.3067 45.832 16.041 45.832C14.7754 45.832 13.7499 46.8575 13.7499 48.1231C13.7499 49.3888 14.7754 50.4142 16.041 50.4142Z" fill="black"/>
<path d="M20.6251 50.4142C21.8904 50.4142 22.9162 49.3885 22.9162 48.1231C22.9162 46.8578 21.8904 45.832 20.6251 45.832C19.3597 45.832 18.334 46.8578 18.334 48.1231C18.334 49.3885 19.3597 50.4142 20.6251 50.4142Z" fill="black"/>
<path d="M25.2088 50.4142C26.4745 50.4142 27.4999 49.3888 27.4999 48.1231C27.4999 46.8575 26.4745 45.832 25.2088 45.832C23.9432 45.832 22.916 46.8575 22.916 48.1231C22.916 49.3888 23.9432 50.4142 25.2088 50.4142ZM29.791 50.4142C31.0567 50.4142 32.0838 49.3888 32.0838 48.1231C32.0838 46.8575 31.0567 45.832 29.791 45.832C28.5254 45.832 27.4999 46.8575 27.4999 48.1231C27.4999 49.3888 28.5254 50.4142 29.791 50.4142Z" fill="black"/>
<path d="M34.3751 50.4142C35.6404 50.4142 36.6662 49.3885 36.6662 48.1231C36.6662 46.8578 35.6404 45.832 34.3751 45.832C33.1097 45.832 32.084 46.8578 32.084 48.1231C32.084 49.3885 33.1097 50.4142 34.3751 50.4142Z" fill="black"/>
<path d="M38.9588 50.4142C40.2245 50.4142 41.2499 49.3888 41.2499 48.1231C41.2499 46.8575 40.2245 45.832 38.9588 45.832C37.6932 45.832 36.666 46.8575 36.666 48.1231C36.666 49.3888 37.6932 50.4142 38.9588 50.4142ZM43.541 50.4142C44.8067 50.4142 45.8338 49.3888 45.8338 48.1231C45.8338 46.8575 44.8067 45.832 43.541 45.832C42.2754 45.832 41.2499 46.8575 41.2499 48.1231C41.2499 49.3888 42.2754 50.4142 43.541 50.4142Z" fill="black"/>
<path d="M48.1251 50.4142C49.3904 50.4142 50.4162 49.3885 50.4162 48.1231C50.4162 46.8578 49.3904 45.832 48.1251 45.832C46.8597 45.832 45.834 46.8578 45.834 48.1231C45.834 49.3885 46.8597 50.4142 48.1251 50.4142Z" fill="black"/>
<path d="M57.2911 45.8358C56.0254 45.8358 55 46.8612 55 48.1269C55 49.3925 56.0254 50.418 57.2911 50.418C58.5582 50.418 59.5856 49.3925 59.5856 48.1269C59.5856 46.8612 58.5582 45.8358 57.2911 45.8358ZM59.5856 48.1269C59.5856 49.3925 60.6096 50.418 61.875 50.418C63.1404 50.418 64.1644 49.3925 64.1644 48.1269C64.1644 46.8612 63.1404 45.8358 61.875 45.8358C60.6096 45.8358 59.5856 46.8612 59.5856 48.1269ZM77.9144 48.1269C77.9144 46.8612 76.8904 45.8358 75.625 45.8358C74.3596 45.8358 73.3356 46.8612 73.3356 48.1269C73.3356 49.3925 74.3596 50.418 75.625 50.418C76.8904 50.418 77.9144 49.3925 77.9144 48.1269ZM80.2106 50.418C81.4728 50.418 82.5 49.3925 82.5 48.1269C82.5 46.8612 81.4728 45.8358 80.2106 45.8358C78.9418 45.8358 77.9144 46.8612 77.9144 48.1269C77.9144 49.3925 78.9418 50.418 80.2106 50.418ZM87.0856 48.1269C87.0856 49.3925 88.1096 50.418 89.375 50.418C90.6404 50.418 91.6644 49.3925 91.6644 48.1269C91.6644 46.8612 90.6404 45.8358 89.375 45.8358C88.1096 45.8358 87.0856 46.8612 87.0856 48.1269ZM100.836 48.1269C100.836 46.8612 99.8085 45.8358 98.5394 45.8358C97.2772 45.8358 96.25 46.8612 96.25 48.1269C96.25 49.3925 97.2772 50.418 98.5394 50.418C99.8082 50.418 100.836 49.3925 100.836 48.1269ZM105.414 48.1269C105.414 49.3925 106.442 50.418 107.711 50.418C108.973 50.418 110 49.3925 110 48.1269C110 46.8612 108.973 45.8358 107.711 45.8358C106.442 45.8358 105.414 46.8612 105.414 48.1269ZM0 43.543C0 44.8086 1.02545 45.8358 2.29109 45.8358C3.55674 45.8358 4.58391 44.8086 4.58391 43.543C4.58391 42.2773 3.55674 41.2519 2.29109 41.2519C1.02545 41.2519 0 42.2773 0 43.543ZM13.75 43.543C13.75 42.2773 12.7246 41.2519 11.4589 41.2519C10.1933 41.2519 9.16609 42.2773 9.16609 43.543C9.16609 44.8086 10.1933 45.8358 11.4589 45.8358C12.7246 45.8358 13.75 44.8086 13.75 43.543ZM32.0839 43.543C32.0839 42.2773 31.0567 41.2519 29.7911 41.2519C28.5254 41.2519 27.5 42.2773 27.5 43.543C27.5 44.8086 28.5254 45.8358 29.7911 45.8358C31.0567 45.8358 32.0839 44.8086 32.0839 43.543ZM32.0839 43.543C32.0839 44.8086 33.1094 45.8358 34.375 45.8358C35.6406 45.8358 36.6661 44.8086 36.6661 43.543C36.6661 42.2773 35.6406 41.2519 34.375 41.2519C33.1094 41.2519 32.0839 42.2773 32.0839 43.543ZM45.8339 43.543C45.8339 42.2773 44.8067 41.2519 43.5411 41.2519C42.2754 41.2519 41.25 42.2773 41.25 43.543C41.25 44.8086 42.2754 45.8358 43.5411 45.8358C44.8067 45.8358 45.8339 44.8086 45.8339 43.543ZM59.5856 43.543C59.5856 42.2773 58.5585 41.2519 57.2911 41.2519C56.0254 41.2519 55 42.2773 55 43.543C55 44.8086 56.0254 45.8358 57.2911 45.8358C58.5582 45.8358 59.5856 44.8086 59.5856 43.543ZM61.875 41.2519C60.6094 41.2519 59.5856 42.2773 59.5856 43.543C59.5856 44.8086 60.6096 45.8358 61.875 45.8358C63.1404 45.8358 64.1644 44.8086 64.1644 43.543C64.1644 42.2773 63.1406 41.2519 61.875 41.2519ZM64.1644 43.543C64.1644 44.8086 65.1915 45.8358 66.4606 45.8358C67.7228 45.8358 68.75 44.8086 68.75 43.543C68.75 42.2773 67.7228 41.2519 66.4606 41.2519C65.1918 41.2519 64.1644 42.2773 64.1644 43.543ZM71.0394 45.8358C72.3082 45.8358 73.3356 44.8086 73.3356 43.543C73.3356 42.2773 72.3082 41.2519 71.0394 41.2519C69.7772 41.2519 68.75 42.2773 68.75 43.543C68.75 44.8086 69.7772 45.8358 71.0394 45.8358ZM82.5 43.543C82.5 42.2773 81.4728 41.2519 80.2106 41.2519C78.9418 41.2519 77.9144 42.2773 77.9144 43.543C77.9144 44.8086 78.9415 45.8358 80.2106 45.8358C81.4728 45.8358 82.5 44.8086 82.5 43.543ZM84.7894 45.8358C86.0582 45.8358 87.0856 44.8086 87.0856 43.543C87.0856 42.2773 86.0582 41.2519 84.7894 41.2519C83.5272 41.2519 82.5 42.2773 82.5 43.543C82.5 44.8086 83.5272 45.8358 84.7894 45.8358ZM89.375 45.8358C90.6406 45.8358 91.6644 44.8086 91.6644 43.543C91.6644 42.2773 90.6406 41.2519 89.375 41.2519C88.1094 41.2519 87.0856 42.2773 87.0856 43.543C87.0856 44.8086 88.1094 45.8358 89.375 45.8358ZM93.9606 45.8358C95.2228 45.8358 96.25 44.8086 96.25 43.543C96.25 42.2773 95.2228 41.2519 93.9606 41.2519C92.6918 41.2519 91.6644 42.2773 91.6644 43.543C91.6644 44.8086 92.6918 45.8358 93.9606 45.8358ZM105.414 43.543C105.414 44.8086 106.442 45.8358 107.711 45.8358C108.973 45.8358 110 44.8086 110 43.543C110 42.2773 108.973 41.2519 107.711 41.2519C106.442 41.2519 105.414 42.2773 105.414 43.543ZM2.29109 36.668C1.02545 36.668 0 37.6951 0 38.9608C0 40.2264 1.02545 41.2519 2.29109 41.2519C3.55674 41.2519 4.58391 40.2264 4.58391 38.9608C4.58391 37.6951 3.55674 36.668 2.29109 36.668ZM4.58391 38.9608C4.58391 40.2264 5.60936 41.2519 6.875 41.2519C8.14064 41.2519 9.16609 40.2264 9.16609 38.9608C9.16609 37.6951 8.14064 36.668 6.875 36.668C5.60936 36.668 4.58391 37.6951 4.58391 38.9608ZM13.75 38.9608C13.75 40.2264 14.7754 41.2519 16.0411 41.2519C17.3067 41.2519 18.3339 40.2264 18.3339 38.9608C18.3339 37.6951 17.3067 36.668 16.0411 36.668C14.7754 36.668 13.75 37.6951 13.75 38.9608ZM25.2089 36.668C23.9433 36.668 22.9161 37.6951 22.9161 38.9608C22.9161 40.2264 23.9433 41.2519 25.2089 41.2519C26.4746 41.2519 27.5 40.2264 27.5 38.9608C27.5 37.6951 26.4746 36.668 25.2089 36.668ZM32.0839 38.9608C32.0839 37.6951 31.0567 36.668 29.7911 36.668C28.5254 36.668 27.5 37.6951 27.5 38.9608C27.5 40.2264 28.5254 41.2519 29.7911 41.2519C31.0567 41.2519 32.0839 40.2264 32.0839 38.9608ZM34.375 36.668C33.1094 36.668 32.0839 37.6951 32.0839 38.9608C32.0839 40.2264 33.1094 41.2519 34.375 41.2519C35.6406 41.2519 36.6661 40.2264 36.6661 38.9608C36.6661 37.6951 35.6406 36.668 34.375 36.668ZM36.6661 38.9608C36.6661 40.2264 37.6933 41.2519 38.9589 41.2519C40.2246 41.2519 41.25 40.2264 41.25 38.9608C41.25 37.6951 40.2246 36.668 38.9589 36.668C37.6933 36.668 36.6661 37.6951 36.6661 38.9608ZM48.125 36.668C46.8594 36.668 45.8339 37.6951 45.8339 38.9608C45.8339 40.2264 46.8594 41.2519 48.125 41.2519C49.3906 41.2519 50.4161 40.2264 50.4161 38.9608C50.4161 37.6951 49.3906 36.668 48.125 36.668ZM52.7089 36.668C51.4433 36.668 50.4161 37.6951 50.4161 38.9608C50.4161 40.2264 51.4433 41.2519 52.7089 41.2519C53.9746 41.2519 55 40.2264 55 38.9608C55 37.6951 53.9746 36.668 52.7089 36.668ZM59.5856 38.9608C59.5856 37.6951 58.5585 36.668 57.2911 36.668C56.0254 36.668 55 37.6951 55 38.9608C55 40.2264 56.0254 41.2519 57.2911 41.2519C58.5582 41.2519 59.5856 40.2264 59.5856 38.9608ZM64.1644 38.9608C64.1644 40.2264 65.1915 41.2519 66.4606 41.2519C67.7228 41.2519 68.75 40.2264 68.75 38.9608C68.75 37.6951 67.7228 36.668 66.4606 36.668C65.1918 36.668 64.1644 37.6951 64.1644 38.9608ZM75.625 36.668C74.3594 36.668 73.3356 37.6951 73.3356 38.9608C73.3356 40.2264 74.3594 41.2519 75.625 41.2519C76.8906 41.2519 77.9144 40.2264 77.9144 38.9608C77.9144 37.6951 76.8906 36.668 75.625 36.668ZM82.5 38.9608C82.5 37.6951 81.4728 36.668 80.2106 36.668C78.9418 36.668 77.9144 37.6951 77.9144 38.9608C77.9144 40.2264 78.9418 41.2519 80.2106 41.2519C81.4728 41.2519 82.5 40.2264 82.5 38.9608ZM96.25 38.9608C96.25 37.6951 95.2228 36.668 93.9606 36.668C92.6918 36.668 91.6644 37.6951 91.6644 38.9608C91.6644 40.2264 92.6918 41.2519 93.9606 41.2519C95.2228 41.2519 96.25 40.2264 96.25 38.9608ZM98.5394 41.2519C99.8082 41.2519 100.836 40.2264 100.836 38.9608C100.836 37.6951 99.8085 36.668 98.5394 36.668C97.2772 36.668 96.25 37.6951 96.25 38.9608C96.25 40.2264 97.2772 41.2519 98.5394 41.2519ZM110 38.9608C110 37.6951 108.973 36.668 107.711 36.668C106.442 36.668 105.414 37.6951 105.414 38.9608C105.414 40.2264 106.442 41.2519 107.711 41.2519C108.973 41.2519 110 40.2264 110 38.9608Z" fill="black"/>
<path d="M6.87508 36.6642C8.14041 36.6642 9.16617 35.6385 9.16617 34.3731C9.16617 33.1078 8.14041 32.082 6.87508 32.082C5.60974 32.082 4.58398 33.1078 4.58398 34.3731C4.58398 35.6385 5.60974 36.6642 6.87508 36.6642Z" fill="black"/>
<path d="M11.4588 32.082C10.1932 32.082 9.16602 33.1075 9.16602 34.3731C9.16602 35.6388 10.1932 36.6642 11.4588 36.6642C12.7245 36.6642 13.7499 35.6388 13.7499 34.3731C13.7499 33.1075 12.7245 32.082 11.4588 32.082ZM16.041 32.082C14.7754 32.082 13.7499 33.1075 13.7499 34.3731C13.7499 35.6388 14.7754 36.6642 16.041 36.6642C17.3067 36.6642 18.3338 35.6388 18.3338 34.3731C18.3338 33.1075 17.3067 32.082 16.041 32.082Z" fill="black"/>
<path d="M20.6251 36.6642C21.8904 36.6642 22.9162 35.6385 22.9162 34.3731C22.9162 33.1078 21.8904 32.082 20.6251 32.082C19.3597 32.082 18.334 33.1078 18.334 34.3731C18.334 35.6385 19.3597 36.6642 20.6251 36.6642Z" fill="black"/>
<path d="M27.4999 34.3731C27.4999 33.1075 26.4745 32.082 25.2088 32.082C23.9432 32.082 22.916 33.1075 22.916 34.3731C22.916 35.6388 23.9432 36.6642 25.2088 36.6642C26.4745 36.6642 27.4999 35.6388 27.4999 34.3731Z" fill="black"/>
<path d="M34.3751 36.6642C35.6404 36.6642 36.6662 35.6385 36.6662 34.3731C36.6662 33.1078 35.6404 32.082 34.3751 32.082C33.1097 32.082 32.084 33.1078 32.084 34.3731C32.084 35.6385 33.1097 36.6642 34.3751 36.6642Z" fill="black"/>
<path d="M38.959 32.0839C37.6933 32.0839 36.6662 33.1094 36.6662 34.375C36.6662 35.6406 37.6933 36.6661 38.959 36.6661C40.2246 36.6661 41.2501 35.6406 41.2501 34.375C41.2501 33.1094 40.2246 32.0839 38.959 32.0839ZM41.2501 34.375C41.2501 35.6406 42.2755 36.6661 43.5412 36.6661C44.8068 36.6661 45.834 35.6406 45.834 34.375C45.834 33.1094 44.8068 32.0839 43.5412 32.0839C42.2755 32.0839 41.2501 33.1094 41.2501 34.375ZM55.0001 34.375C55.0001 33.1094 53.9746 32.0839 52.709 32.0839C51.4433 32.0839 50.4162 33.1094 50.4162 34.375C50.4162 35.6406 51.4433 36.6661 52.709 36.6661C53.9746 36.6661 55.0001 35.6406 55.0001 34.375ZM57.2912 36.6661C58.5583 36.6661 59.5857 35.6406 59.5857 34.375C59.5857 33.1094 58.5585 32.0839 57.2912 32.0839C56.0255 32.0839 55.0001 33.1094 55.0001 34.375C55.0001 35.6406 56.0255 36.6661 57.2912 36.6661ZM61.8751 36.6661C63.1407 36.6661 64.1645 35.6406 64.1645 34.375C64.1645 33.1094 63.1405 32.0839 61.8751 32.0839C60.6096 32.0839 59.5857 33.1094 59.5857 34.375C59.5857 35.6406 60.6094 36.6661 61.8751 36.6661ZM64.1645 34.375C64.1645 35.6406 65.1916 36.6661 66.4607 36.6661C67.7229 36.6661 68.7501 35.6406 68.7501 34.375C68.7501 33.1094 67.7229 32.0839 66.4607 32.0839C65.1918 32.0839 64.1645 33.1094 64.1645 34.375ZM77.9145 34.375C77.9145 33.1094 76.8905 32.0839 75.6251 32.0839C74.3596 32.0839 73.3357 33.1094 73.3357 34.375C73.3357 35.6406 74.3596 36.6661 75.6251 36.6661C76.8905 36.6661 77.9145 35.6406 77.9145 34.375ZM80.2107 36.6661C81.4729 36.6661 82.5001 35.6406 82.5001 34.375C82.5001 33.1094 81.4729 32.0839 80.2107 32.0839C78.9418 32.0839 77.9145 33.1094 77.9145 34.375C77.9145 35.6406 78.9418 36.6661 80.2107 36.6661ZM89.3751 32.0839C88.1094 32.0839 87.0857 33.1094 87.0857 34.375C87.0857 35.6406 88.1096 36.6661 89.3751 36.6661C90.6405 36.6661 91.6645 35.6406 91.6645 34.375C91.6645 33.1094 90.6407 32.0839 89.3751 32.0839ZM96.2501 34.375C96.2501 33.1094 95.2229 32.0839 93.9607 32.0839C92.6918 32.0839 91.6645 33.1094 91.6645 34.375C91.6645 35.6406 92.6916 36.6661 93.9607 36.6661C95.2229 36.6661 96.2501 35.6406 96.2501 34.375ZM103.125 36.6661C104.391 36.6661 105.414 35.6406 105.414 34.375C105.414 33.1094 104.391 32.0839 103.125 32.0839C101.86 32.0839 100.836 33.1094 100.836 34.375C100.836 35.6406 101.859 36.6661 103.125 36.6661ZM36.6662 29.7911C36.6662 28.5254 35.6407 27.5 34.3751 27.5C33.1094 27.5 32.084 28.5254 32.084 29.7911C32.084 31.0567 33.1094 32.0839 34.3751 32.0839C35.6407 32.0839 36.6662 31.0567 36.6662 29.7911ZM43.5412 27.5C42.2755 27.5 41.2501 28.5254 41.2501 29.7911C41.2501 31.0567 42.2755 32.0839 43.5412 32.0839C44.8068 32.0839 45.834 31.0567 45.834 29.7911C45.834 28.5254 44.8068 27.5 43.5412 27.5ZM48.1251 27.5C46.8594 27.5 45.834 28.5254 45.834 29.7911C45.834 31.0567 46.8594 32.0839 48.1251 32.0839C49.3907 32.0839 50.4162 31.0567 50.4162 29.7911C50.4162 28.5254 49.3907 27.5 48.1251 27.5ZM55.0001 29.7911C55.0001 28.5254 53.9746 27.5 52.709 27.5C51.4433 27.5 50.4162 28.5254 50.4162 29.7911C50.4162 31.0567 51.4433 32.0839 52.709 32.0839C53.9746 32.0839 55.0001 31.0567 55.0001 29.7911ZM66.4607 27.5C65.1918 27.5 64.1645 28.5254 64.1645 29.7911C64.1645 31.0567 65.1916 32.0839 66.4607 32.0839C67.7229 32.0839 68.7501 31.0567 68.7501 29.7911C68.7501 28.5254 67.7229 27.5 66.4607 27.5ZM71.0395 27.5C69.7772 27.5 68.7501 28.5254 68.7501 29.7911C68.7501 31.0567 69.7772 32.0839 71.0395 32.0839C72.3083 32.0839 73.3357 31.0567 73.3357 29.7911C73.3357 28.5254 72.3083 27.5 71.0395 27.5ZM77.9145 29.7911C77.9145 28.5254 76.8905 27.5 75.6251 27.5C74.3596 27.5 73.3357 28.5254 73.3357 29.7911C73.3357 31.0567 74.3596 32.0839 75.6251 32.0839C76.8905 32.0839 77.9145 31.0567 77.9145 29.7911Z" fill="black"/>
<path d="M36.6662 25.2108C36.6662 23.9451 35.6407 22.918 34.3751 22.918C33.1094 22.918 32.084 23.9451 32.084 25.2108C32.084 26.4764 33.1094 27.5019 34.3751 27.5019C35.6407 27.5019 36.6662 26.4764 36.6662 25.2108ZM36.6662 25.2108C36.6662 26.4764 37.6933 27.5019 38.959 27.5019C40.2246 27.5019 41.2501 26.4764 41.2501 25.2108C41.2501 23.9451 40.2246 22.918 38.959 22.918C37.6933 22.918 36.6662 23.9451 36.6662 25.2108ZM52.709 22.918C51.4433 22.918 50.4162 23.9451 50.4162 25.2108C50.4162 26.4764 51.4433 27.5019 52.709 27.5019C53.9746 27.5019 55.0001 26.4764 55.0001 25.2108C55.0001 23.9451 53.9746 22.918 52.709 22.918ZM55.0001 25.2108C55.0001 26.4764 56.0255 27.5019 57.2912 27.5019C58.5583 27.5019 59.5857 26.4764 59.5857 25.2108C59.5857 23.9451 58.5585 22.918 57.2912 22.918C56.0255 22.918 55.0001 23.9451 55.0001 25.2108ZM61.8751 27.5019C63.1407 27.5019 64.1645 26.4764 64.1645 25.2108C64.1645 23.9451 63.1405 22.918 61.8751 22.918C60.6096 22.918 59.5857 23.9451 59.5857 25.2108C59.5857 26.4764 60.6094 27.5019 61.8751 27.5019ZM73.3357 25.2108C73.3357 23.9451 72.3085 22.918 71.0395 22.918C69.7772 22.918 68.7501 23.9451 68.7501 25.2108C68.7501 26.4764 69.7772 27.5019 71.0395 27.5019C72.3083 27.5019 73.3357 26.4764 73.3357 25.2108Z" fill="black"/>
<path d="M34.3751 22.9142C35.6404 22.9142 36.6662 21.8885 36.6662 20.6231C36.6662 19.3578 35.6404 18.332 34.3751 18.332C33.1097 18.332 32.084 19.3578 32.084 20.6231C32.084 21.8885 33.1097 22.9142 34.3751 22.9142Z" fill="black"/>
<path d="M38.9588 22.9142C40.2245 22.9142 41.2499 21.8888 41.2499 20.6231C41.2499 19.3575 40.2245 18.332 38.9588 18.332C37.6932 18.332 36.666 19.3575 36.666 20.6231C36.666 21.8888 37.6932 22.9142 38.9588 22.9142ZM43.541 22.9142C44.8067 22.9142 45.8338 21.8888 45.8338 20.6231C45.8338 19.3575 44.8067 18.332 43.541 18.332C42.2754 18.332 41.2499 19.3575 41.2499 20.6231C41.2499 21.8888 42.2754 22.9142 43.541 22.9142Z" fill="black"/>
<path d="M48.1251 22.9142C49.3904 22.9142 50.4162 21.8885 50.4162 20.6231C50.4162 19.3578 49.3904 18.332 48.1251 18.332C46.8597 18.332 45.834 19.3578 45.834 20.6231C45.834 21.8885 46.8597 22.9142 48.1251 22.9142Z" fill="black"/>
<path d="M55.0001 20.6269C55.0001 21.8925 56.0255 22.918 57.2912 22.918C58.5583 22.918 59.5857 21.8925 59.5857 20.6269C59.5857 19.3612 58.5585 18.3358 57.2912 18.3358C56.0255 18.3358 55.0001 19.3612 55.0001 20.6269ZM64.1645 20.6269C64.1645 21.8925 65.1916 22.918 66.4607 22.918C67.7229 22.918 68.7501 21.8925 68.7501 20.6269C68.7501 19.3612 67.7229 18.3358 66.4607 18.3358C65.1918 18.3358 64.1645 19.3612 64.1645 20.6269ZM75.6251 18.3358C74.3594 18.3358 73.3357 19.3612 73.3357 20.6269C73.3357 21.8925 74.3596 22.918 75.6251 22.918C76.8905 22.918 77.9145 21.8925 77.9145 20.6269C77.9145 19.3612 76.8907 18.3358 75.6251 18.3358ZM50.4162 16.043C50.4162 14.7773 49.3907 13.7519 48.1251 13.7519C46.8594 13.7519 45.834 14.7773 45.834 16.043C45.834 17.3086 46.8594 18.3358 48.1251 18.3358C49.3907 18.3358 50.4162 17.3086 50.4162 16.043ZM52.709 13.7519C51.4433 13.7519 50.4162 14.7773 50.4162 16.043C50.4162 17.3086 51.4433 18.3358 52.709 18.3358C53.9746 18.3358 55.0001 17.3086 55.0001 16.043C55.0001 14.7773 53.9746 13.7519 52.709 13.7519ZM55.0001 16.043C55.0001 17.3086 56.0255 18.3358 57.2912 18.3358C58.5583 18.3358 59.5857 17.3086 59.5857 16.043C59.5857 14.7773 58.5583 13.7519 57.2912 13.7519C56.0255 13.7519 55.0001 14.7773 55.0001 16.043ZM61.8751 18.3358C63.1407 18.3358 64.1645 17.3086 64.1645 16.043C64.1645 14.7773 63.1407 13.7519 61.8751 13.7519C60.6094 13.7519 59.5857 14.7773 59.5857 16.043C59.5857 17.3086 60.6094 18.3358 61.8751 18.3358ZM66.4607 18.3358C67.7229 18.3358 68.7501 17.3086 68.7501 16.043C68.7501 14.7773 67.7229 13.7519 66.4607 13.7519C65.1918 13.7519 64.1645 14.7773 64.1645 16.043C64.1645 17.3086 65.1918 18.3358 66.4607 18.3358ZM68.7501 16.043C68.7501 17.3086 69.7772 18.3358 71.0395 18.3358C72.3083 18.3358 73.3357 17.3086 73.3357 16.043C73.3357 14.7773 72.3083 13.7519 71.0395 13.7519C69.7772 13.7519 68.7501 14.7773 68.7501 16.043ZM34.3751 9.16797C33.1094 9.16797 32.084 10.1951 32.084 11.4608C32.084 12.7264 33.1094 13.7519 34.3751 13.7519C35.6407 13.7519 36.6662 12.7264 36.6662 11.4608C36.6662 10.1951 35.6407 9.16797 34.3751 9.16797ZM38.959 9.16797C37.6933 9.16797 36.6662 10.1951 36.6662 11.4608C36.6662 12.7264 37.6933 13.7519 38.959 13.7519C40.2246 13.7519 41.2501 12.7264 41.2501 11.4608C41.2501 10.1951 40.2246 9.16797 38.959 9.16797ZM43.5412 9.16797C42.2755 9.16797 41.2501 10.1951 41.2501 11.4608C41.2501 12.7264 42.2755 13.7519 43.5412 13.7519C44.8068 13.7519 45.834 12.7264 45.834 11.4608C45.834 10.1951 44.8068 9.16797 43.5412 9.16797ZM50.4162 11.4608C50.4162 10.1951 49.3907 9.16797 48.1251 9.16797C46.8594 9.16797 45.834 10.1951 45.834 11.4608C45.834 12.7264 46.8594 13.7519 48.1251 13.7519C49.3907 13.7519 50.4162 12.7264 50.4162 11.4608ZM52.709 13.7519C53.9746 13.7519 55.0001 12.7264 55.0001 11.4608C55.0001 10.1951 53.9746 9.16797 52.709 9.16797C51.4433 9.16797 50.4162 10.1951 50.4162 11.4608C50.4162 12.7264 51.4433 13.7519 52.709 13.7519ZM57.2912 13.7519C58.5583 13.7519 59.5857 12.7264 59.5857 11.4608C59.5857 10.1951 58.5585 9.16797 57.2912 9.16797C56.0255 9.16797 55.0001 10.1951 55.0001 11.4608C55.0001 12.7264 56.0255 13.7519 57.2912 13.7519ZM68.7501 11.4608C68.7501 10.1951 67.7229 9.16797 66.4607 9.16797C65.1918 9.16797 64.1645 10.1951 64.1645 11.4608C64.1645 12.7264 65.1918 13.7519 66.4607 13.7519C67.7229 13.7519 68.7501 12.7264 68.7501 11.4608ZM68.7501 11.4608C68.7501 12.7264 69.7772 13.7519 71.0395 13.7519C72.3083 13.7519 73.3357 12.7264 73.3357 11.4608C73.3357 10.1951 72.3085 9.16797 71.0395 9.16797C69.7772 9.16797 68.7501 10.1951 68.7501 11.4608ZM75.6251 13.7519C76.8907 13.7519 77.9145 12.7264 77.9145 11.4608C77.9145 10.1951 76.8907 9.16797 75.6251 9.16797C74.3594 9.16797 73.3357 10.1951 73.3357 11.4608C73.3357 12.7264 74.3594 13.7519 75.6251 13.7519Z" fill="black"/>
<path d="M34.3751 9.16422C35.6404 9.16422 36.6662 8.13846 36.6662 6.87312C36.6662 5.60779 35.6404 4.58203 34.3751 4.58203C33.1097 4.58203 32.084 5.60779 32.084 6.87312C32.084 8.13846 33.1097 9.16422 34.3751 9.16422Z" fill="black"/>
<path d="M38.9588 9.16422C40.2245 9.16422 41.2499 8.13877 41.2499 6.87312C41.2499 5.60748 40.2245 4.58203 38.9588 4.58203C37.6932 4.58203 36.666 5.60748 36.666 6.87312C36.666 8.13877 37.6932 9.16422 38.9588 9.16422ZM43.541 9.16422C44.8067 9.16422 45.8338 8.13877 45.8338 6.87312C45.8338 5.60748 44.8067 4.58203 43.541 4.58203C42.2754 4.58203 41.2499 5.60748 41.2499 6.87312C41.2499 8.13877 42.2754 9.16422 43.541 9.16422Z" fill="black"/>
<path d="M48.1251 9.16422C49.3904 9.16422 50.4162 8.13846 50.4162 6.87312C50.4162 5.60779 49.3904 4.58203 48.1251 4.58203C46.8597 4.58203 45.834 5.60779 45.834 6.87312C45.834 8.13846 46.8597 9.16422 48.1251 9.16422Z" fill="black"/>
<path d="M68.75 6.875C68.75 5.60936 67.7228 4.58391 66.4606 4.58391C65.1918 4.58391 64.1644 5.60936 64.1644 6.875C64.1644 8.14064 65.1915 9.16609 66.4606 9.16609C67.7228 9.16609 68.75 8.14064 68.75 6.875ZM71.0394 9.16609C72.3082 9.16609 73.3356 8.14064 73.3356 6.875C73.3356 5.60936 72.3085 4.58391 71.0394 4.58391C69.7772 4.58391 68.75 5.60936 68.75 6.875C68.75 8.14064 69.7772 9.16609 71.0394 9.16609ZM36.6661 2.29109C36.6661 1.02545 35.6406 0 34.375 0C33.1094 0 32.0839 1.02545 32.0839 2.29109C32.0839 3.55674 33.1094 4.58391 34.375 4.58391C35.6406 4.58391 36.6661 3.55674 36.6661 2.29109ZM45.8339 2.29109C45.8339 1.02545 44.8067 0 43.5411 0C42.2754 0 41.25 1.02545 41.25 2.29109C41.25 3.55674 42.2754 4.58391 43.5411 4.58391C44.8067 4.58391 45.8339 3.55674 45.8339 2.29109ZM57.2911 0C56.0254 0 55 1.02545 55 2.29109C55 3.55674 56.0254 4.58391 57.2911 4.58391C58.5582 4.58391 59.5856 3.55674 59.5856 2.29109C59.5856 1.02545 58.5582 0 57.2911 0ZM61.875 0C60.6094 0 59.5856 1.02545 59.5856 2.29109C59.5856 3.55674 60.6094 4.58391 61.875 4.58391C63.1406 4.58391 64.1644 3.55674 64.1644 2.29109C64.1644 1.02545 63.1406 0 61.875 0ZM68.75 2.29109C68.75 1.02545 67.7228 0 66.4606 0C65.1918 0 64.1644 1.02545 64.1644 2.29109C64.1644 3.55674 65.1915 4.58391 66.4606 4.58391C67.7228 4.58391 68.75 3.55674 68.75 2.29109ZM75.625 4.58391C76.8906 4.58391 77.9144 3.55674 77.9144 2.29109C77.9144 1.02545 76.8906 0 75.625 0C74.3594 0 73.3356 1.02545 73.3356 2.29109C73.3356 3.55674 74.3594 4.58391 75.625 4.58391ZM27.5 0H0V27.5H27.5V0ZM22.9161 22.9161H4.58391V4.58391H22.9161V22.9161Z" fill="black"/>
<path d="M20.625 6.875H6.875V20.625H20.625V6.875ZM16.0411 16.0411H11.4589V11.4589H16.0411V16.0411ZM0 110H27.5V82.5H0V110ZM4.58391 87.0856H22.9161V105.414H4.58391V87.0856Z" fill="black"/>
<path d="M6.875 103.125H20.625V89.375H6.875V103.125ZM11.4589 93.9606H16.0411V98.5394H11.4589V93.9606ZM82.5 0V27.5H110V0H82.5ZM105.414 22.9161H87.0856V4.58391H105.414V22.9161Z" fill="black"/>
<path d="M103.125 6.875H89.3753V20.625H103.125V6.875ZM98.5397 16.0411H93.9609V11.4589H98.5397V16.0411ZM96.2503 73.3356H73.3359V96.25H96.2503V73.3356ZM91.6647 91.6644H77.9147V77.9144H91.6647V91.6644Z" fill="black"/>
<path d="M84.7894 87.0856C85.091 87.0858 85.3896 87.0265 85.6683 86.9111C85.9469 86.7958 86.2001 86.6266 86.4134 86.4134C86.6266 86.2001 86.7958 85.9469 86.9111 85.6683C87.0265 85.3896 87.0858 85.091 87.0856 84.7894C87.0856 83.5272 86.0585 82.5 84.7894 82.5C83.5272 82.5 82.5 83.5272 82.5 84.7894C82.5 86.0582 83.5272 87.0856 84.7894 87.0856Z" fill="black"/>
</g>
<defs>
<clipPath id="clip0_959_39791">
<rect width="110" height="110" fill="white"/>
</clipPath>
</defs>
</svg>
