<svg width="29" height="30" viewBox="0 0 29 30" fill="none" xmlns="http://www.w3.org/2000/svg">
<path d="M14.5 2.5C11.1859 2.50371 8.00866 3.82186 5.66526 6.16526C3.32186 8.50866 2.00371 11.6859 2 15C2.00555 18.3135 3.3243 21.4897 5.6673 23.8327C8.0103 26.1757 11.1865 27.4944 14.5 27.5C17.8152 27.5 20.9946 26.183 23.3388 23.8388C25.683 21.4946 27 18.3152 27 15C27 11.6848 25.683 8.50537 23.3388 6.16117C20.9946 3.81696 17.8152 2.5 14.5 2.5ZM22.103 22.213C21.401 20.797 20.3172 19.6054 18.974 18.7726C17.6307 17.9397 16.0815 17.4989 14.501 17.4997C12.9206 17.5005 11.3718 17.943 10.0294 18.7773C8.68705 19.6115 7.60453 20.8043 6.904 22.221C5.03491 20.2825 3.99344 17.6928 4 15C4 12.2152 5.10625 9.54451 7.07538 7.57538C9.04451 5.60625 11.7152 4.5 14.5 4.5C17.2848 4.5 19.9555 5.60625 21.9246 7.57538C23.8938 9.54451 25 12.2152 25 15C25.0063 17.689 23.9675 20.2753 22.103 22.213ZM14.5 7.5C13.61 7.5 12.74 7.76392 11.9999 8.25839C11.2599 8.75285 10.6831 9.45566 10.3425 10.2779C10.0019 11.1002 9.91283 12.005 10.0865 12.8779C10.2601 13.7508 10.6887 14.5526 11.318 15.182C11.9474 15.8113 12.7492 16.2399 13.6221 16.4135C14.495 16.5872 15.3998 16.4981 16.2221 16.1575C17.0443 15.8169 17.7471 15.2401 18.2416 14.5001C18.7361 13.76 19 12.89 19 12C19 11.4091 18.8836 10.8239 18.6575 10.2779C18.4313 9.73196 18.0998 9.23588 17.682 8.81802C17.2641 8.40016 16.768 8.06869 16.2221 7.84254C15.6761 7.6164 15.0909 7.5 14.5 7.5Z" fill="#313131"/>
</svg>
