<svg width="247" height="24" viewBox="0 0 247 24" fill="none" xmlns="http://www.w3.org/2000/svg">
<path d="M0 20.4H20V0.4H0V20.4ZM30.3041 10.64H37.0441V13.16H30.3041V10.64ZM30.5441 16.4H38.1641V19H27.3241V5H37.9041V7.6H30.5441V16.4ZM47.062 8.08C47.9154 8.08 48.6754 8.25333 49.342 8.6C50.022 8.93333 50.5554 9.45333 50.942 10.16C51.3287 10.8533 51.522 11.7467 51.522 12.84V19H48.402V13.32C48.402 12.4533 48.2087 11.8133 47.822 11.4C47.4487 10.9867 46.9154 10.78 46.222 10.78C45.7287 10.78 45.282 10.8867 44.882 11.1C44.4954 11.3 44.1887 11.6133 43.962 12.04C43.7487 12.4667 43.642 13.0133 43.642 13.68V19H40.522V8.24H43.502V11.22L42.942 10.32C43.3287 9.6 43.882 9.04667 44.602 8.66C45.322 8.27333 46.142 8.08 47.062 8.08ZM59.0483 19.16C58.0349 19.16 57.1216 18.9333 56.3083 18.48C55.4949 18.0133 54.8483 17.3667 54.3683 16.54C53.9016 15.7133 53.6683 14.74 53.6683 13.62C53.6683 12.4867 53.9016 11.5067 54.3683 10.68C54.8483 9.85333 55.4949 9.21333 56.3083 8.76C57.1216 8.30667 58.0349 8.08 59.0483 8.08C59.9549 8.08 60.7483 8.28 61.4283 8.68C62.1083 9.08 62.6349 9.68667 63.0083 10.5C63.3816 11.3133 63.5683 12.3533 63.5683 13.62C63.5683 14.8733 63.3883 15.9133 63.0283 16.74C62.6683 17.5533 62.1483 18.16 61.4683 18.56C60.8016 18.96 59.9949 19.16 59.0483 19.16ZM59.5883 16.6C60.0949 16.6 60.5549 16.48 60.9683 16.24C61.3816 16 61.7083 15.66 61.9483 15.22C62.2016 14.7667 62.3283 14.2333 62.3283 13.62C62.3283 12.9933 62.2016 12.46 61.9483 12.02C61.7083 11.58 61.3816 11.24 60.9683 11C60.5549 10.76 60.0949 10.64 59.5883 10.64C59.0683 10.64 58.6016 10.76 58.1883 11C57.7749 11.24 57.4416 11.58 57.1883 12.02C56.9483 12.46 56.8283 12.9933 56.8283 13.62C56.8283 14.2333 56.9483 14.7667 57.1883 15.22C57.4416 15.66 57.7749 16 58.1883 16.24C58.6016 16.48 59.0683 16.6 59.5883 16.6ZM62.4083 19V16.8L62.4683 13.6L62.2683 10.42V4.16H65.3883V19H62.4083ZM83.76 5H87V19H83.76V5ZM77.4 19H74.16V5H77.4V19ZM84 13.26H77.16V10.52H84V13.26ZM94.6323 19.16C93.739 19.16 92.939 18.9867 92.2323 18.64C91.539 18.2933 90.999 17.7667 90.6123 17.06C90.2257 16.34 90.0323 15.4267 90.0323 14.32V8.24H93.1523V13.86C93.1523 14.7533 93.339 15.4133 93.7123 15.84C94.099 16.2533 94.639 16.46 95.3323 16.46C95.8123 16.46 96.239 16.36 96.6123 16.16C96.9857 15.9467 97.279 15.6267 97.4923 15.2C97.7057 14.76 97.8123 14.2133 97.8123 13.56V8.24H100.932V19H97.9723V16.04L98.5123 16.9C98.1523 17.6467 97.619 18.2133 96.9123 18.6C96.219 18.9733 95.459 19.16 94.6323 19.16ZM110.363 8.08C111.216 8.08 111.976 8.25333 112.643 8.6C113.323 8.93333 113.856 9.45333 114.243 10.16C114.629 10.8533 114.823 11.7467 114.823 12.84V19H111.703V13.32C111.703 12.4533 111.509 11.8133 111.123 11.4C110.749 10.9867 110.216 10.78 109.523 10.78C109.029 10.78 108.583 10.8867 108.183 11.1C107.796 11.3 107.489 11.6133 107.263 12.04C107.049 12.4667 106.943 13.0133 106.943 13.68V19H103.823V8.24H106.803V11.22L106.243 10.32C106.629 9.6 107.183 9.04667 107.903 8.66C108.623 8.27333 109.443 8.08 110.363 8.08ZM122.789 23.04C121.776 23.04 120.796 22.9133 119.849 22.66C118.916 22.42 118.136 22.0533 117.509 21.56L118.749 19.32C119.202 19.6933 119.776 19.9867 120.469 20.2C121.176 20.4267 121.869 20.54 122.549 20.54C123.656 20.54 124.456 20.2933 124.949 19.8C125.456 19.3067 125.709 18.5733 125.709 17.6V15.98L125.909 13.28L125.869 10.56V8.24H128.829V17.2C128.829 19.2 128.309 20.6733 127.269 21.62C126.229 22.5667 124.736 23.04 122.789 23.04ZM122.309 18.48C121.309 18.48 120.402 18.2667 119.589 17.84C118.789 17.4 118.142 16.7933 117.649 16.02C117.169 15.2333 116.929 14.32 116.929 13.28C116.929 12.2267 117.169 11.3133 117.649 10.54C118.142 9.75333 118.789 9.14667 119.589 8.72C120.402 8.29333 121.309 8.08 122.309 8.08C123.216 8.08 124.016 8.26667 124.709 8.64C125.402 9 125.942 9.56667 126.329 10.34C126.716 11.1 126.909 12.08 126.909 13.28C126.909 14.4667 126.716 15.4467 126.329 16.22C125.942 16.98 125.402 17.5467 124.709 17.92C124.016 18.2933 123.216 18.48 122.309 18.48ZM122.929 15.92C123.476 15.92 123.962 15.8133 124.389 15.6C124.816 15.3733 125.149 15.06 125.389 14.66C125.629 14.26 125.749 13.8 125.749 13.28C125.749 12.7467 125.629 12.2867 125.389 11.9C125.149 11.5 124.816 11.1933 124.389 10.98C123.962 10.7533 123.476 10.64 122.929 10.64C122.382 10.64 121.896 10.7533 121.469 10.98C121.042 11.1933 120.702 11.5 120.449 11.9C120.209 12.2867 120.089 12.7467 120.089 13.28C120.089 13.8 120.209 14.26 120.449 14.66C120.702 15.06 121.042 15.3733 121.469 15.6C121.896 15.8133 122.382 15.92 122.929 15.92ZM137.073 19.16C135.846 19.16 134.766 18.92 133.833 18.44C132.913 17.96 132.2 17.3067 131.693 16.48C131.186 15.64 130.933 14.6867 130.933 13.62C130.933 12.54 131.18 11.5867 131.673 10.76C132.18 9.92 132.866 9.26667 133.733 8.8C134.6 8.32 135.58 8.08 136.673 8.08C137.726 8.08 138.673 8.30667 139.513 8.76C140.366 9.2 141.04 9.84 141.533 10.68C142.026 11.5067 142.273 12.5 142.273 13.66C142.273 13.78 142.266 13.92 142.253 14.08C142.24 14.2267 142.226 14.3667 142.213 14.5H133.473V12.68H140.573L139.373 13.22C139.373 12.66 139.26 12.1733 139.033 11.76C138.806 11.3467 138.493 11.0267 138.093 10.8C137.693 10.56 137.226 10.44 136.693 10.44C136.16 10.44 135.686 10.56 135.273 10.8C134.873 11.0267 134.56 11.3533 134.333 11.78C134.106 12.1933 133.993 12.6867 133.993 13.26V13.74C133.993 14.3267 134.12 14.8467 134.373 15.3C134.64 15.74 135.006 16.08 135.473 16.32C135.953 16.5467 136.513 16.66 137.153 16.66C137.726 16.66 138.226 16.5733 138.653 16.4C139.093 16.2267 139.493 15.9667 139.853 15.62L141.513 17.42C141.02 17.98 140.4 18.4133 139.653 18.72C138.906 19.0133 138.046 19.16 137.073 19.16ZM144.35 19V8.24H147.33V11.28L146.91 10.4C147.23 9.64 147.743 9.06667 148.45 8.68C149.157 8.28 150.017 8.08 151.03 8.08V10.96C150.897 10.9467 150.777 10.94 150.67 10.94C150.563 10.9267 150.45 10.92 150.33 10.92C149.477 10.92 148.783 11.1667 148.25 11.66C147.73 12.14 147.47 12.8933 147.47 13.92V19H144.35ZM158.848 19V5H164.908C166.161 5 167.241 5.20667 168.148 5.62C169.054 6.02 169.754 6.6 170.248 7.36C170.741 8.12 170.988 9.02667 170.988 10.08C170.988 11.12 170.741 12.02 170.248 12.78C169.754 13.54 169.054 14.1267 168.148 14.54C167.241 14.94 166.161 15.14 164.908 15.14H160.648L162.088 13.68V19H158.848ZM162.088 14.04L160.648 12.5H164.728C165.728 12.5 166.474 12.2867 166.968 11.86C167.461 11.4333 167.708 10.84 167.708 10.08C167.708 9.30667 167.461 8.70667 166.968 8.28C166.474 7.85333 165.728 7.64 164.728 7.64H160.648L162.088 6.1V14.04ZM173.061 19V8.24H176.041V11.28L175.621 10.4C175.941 9.64 176.454 9.06667 177.161 8.68C177.868 8.28 178.728 8.08 179.741 8.08V10.96C179.608 10.9467 179.488 10.94 179.381 10.94C179.274 10.9267 179.161 10.92 179.041 10.92C178.188 10.92 177.494 11.1667 176.961 11.66C176.441 12.14 176.181 12.8933 176.181 13.92V19H173.061ZM186.638 19.16C185.491 19.16 184.471 18.92 183.578 18.44C182.698 17.96 181.998 17.3067 181.478 16.48C180.971 15.64 180.718 14.6867 180.718 13.62C180.718 12.54 180.971 11.5867 181.478 10.76C181.998 9.92 182.698 9.26667 183.578 8.8C184.471 8.32 185.491 8.08 186.638 8.08C187.771 8.08 188.785 8.32 189.678 8.8C190.571 9.26667 191.271 9.91333 191.778 10.74C192.285 11.5667 192.538 12.5267 192.538 13.62C192.538 14.6867 192.285 15.64 191.778 16.48C191.271 17.3067 190.571 17.96 189.678 18.44C188.785 18.92 187.771 19.16 186.638 19.16ZM186.638 16.6C187.158 16.6 187.625 16.48 188.038 16.24C188.451 16 188.778 15.66 189.018 15.22C189.258 14.7667 189.378 14.2333 189.378 13.62C189.378 12.9933 189.258 12.46 189.018 12.02C188.778 11.58 188.451 11.24 188.038 11C187.625 10.76 187.158 10.64 186.638 10.64C186.118 10.64 185.651 10.76 185.238 11C184.825 11.24 184.491 11.58 184.238 12.02C183.998 12.46 183.878 12.9933 183.878 13.62C183.878 14.2333 183.998 14.7667 184.238 15.22C184.491 15.66 184.825 16 185.238 16.24C185.651 16.48 186.118 16.6 186.638 16.6ZM199.684 23.04C198.67 23.04 197.69 22.9133 196.744 22.66C195.81 22.42 195.03 22.0533 194.404 21.56L195.644 19.32C196.097 19.6933 196.67 19.9867 197.364 20.2C198.07 20.4267 198.764 20.54 199.444 20.54C200.55 20.54 201.35 20.2933 201.844 19.8C202.35 19.3067 202.604 18.5733 202.604 17.6V15.98L202.804 13.28L202.764 10.56V8.24H205.724V17.2C205.724 19.2 205.204 20.6733 204.164 21.62C203.124 22.5667 201.63 23.04 199.684 23.04ZM199.204 18.48C198.204 18.48 197.297 18.2667 196.484 17.84C195.684 17.4 195.037 16.7933 194.544 16.02C194.064 15.2333 193.824 14.32 193.824 13.28C193.824 12.2267 194.064 11.3133 194.544 10.54C195.037 9.75333 195.684 9.14667 196.484 8.72C197.297 8.29333 198.204 8.08 199.204 8.08C200.11 8.08 200.91 8.26667 201.604 8.64C202.297 9 202.837 9.56667 203.224 10.34C203.61 11.1 203.804 12.08 203.804 13.28C203.804 14.4667 203.61 15.4467 203.224 16.22C202.837 16.98 202.297 17.5467 201.604 17.92C200.91 18.2933 200.11 18.48 199.204 18.48ZM199.824 15.92C200.37 15.92 200.857 15.8133 201.284 15.6C201.71 15.3733 202.044 15.06 202.284 14.66C202.524 14.26 202.644 13.8 202.644 13.28C202.644 12.7467 202.524 12.2867 202.284 11.9C202.044 11.5 201.71 11.1933 201.284 10.98C200.857 10.7533 200.37 10.64 199.824 10.64C199.277 10.64 198.79 10.7533 198.364 10.98C197.937 11.1933 197.597 11.5 197.344 11.9C197.104 12.2867 196.984 12.7467 196.984 13.28C196.984 13.8 197.104 14.26 197.344 14.66C197.597 15.06 197.937 15.3733 198.364 15.6C198.79 15.8133 199.277 15.92 199.824 15.92ZM208.628 19V8.24H211.608V11.28L211.188 10.4C211.508 9.64 212.021 9.06667 212.728 8.68C213.434 8.28 214.294 8.08 215.308 8.08V10.96C215.174 10.9467 215.054 10.94 214.948 10.94C214.841 10.9267 214.728 10.92 214.608 10.92C213.754 10.92 213.061 11.1667 212.528 11.66C212.008 12.14 211.748 12.8933 211.748 13.92V19H208.628ZM223.06 19V16.9L222.86 16.44V12.68C222.86 12.0133 222.653 11.4933 222.24 11.12C221.84 10.7467 221.22 10.56 220.38 10.56C219.806 10.56 219.24 10.6533 218.68 10.84C218.133 11.0133 217.666 11.2533 217.28 11.56L216.16 9.38C216.746 8.96667 217.453 8.64667 218.28 8.42C219.106 8.19333 219.946 8.08 220.8 8.08C222.44 8.08 223.713 8.46667 224.62 9.24C225.526 10.0133 225.98 11.22 225.98 12.86V19H223.06ZM219.78 19.16C218.94 19.16 218.22 19.02 217.62 18.74C217.02 18.4467 216.56 18.0533 216.24 17.56C215.92 17.0667 215.76 16.5133 215.76 15.9C215.76 15.26 215.913 14.7 216.22 14.22C216.54 13.74 217.04 13.3667 217.72 13.1C218.4 12.82 219.286 12.68 220.38 12.68H223.24V14.5H220.72C219.986 14.5 219.48 14.62 219.2 14.86C218.933 15.1 218.8 15.4 218.8 15.76C218.8 16.16 218.953 16.48 219.26 16.72C219.58 16.9467 220.013 17.06 220.56 17.06C221.08 17.06 221.546 16.94 221.96 16.7C222.373 16.4467 222.673 16.08 222.86 15.6L223.34 17.04C223.113 17.7333 222.7 18.26 222.1 18.62C221.5 18.98 220.726 19.16 219.78 19.16ZM242.583 8.08C243.437 8.08 244.19 8.25333 244.843 8.6C245.51 8.93333 246.03 9.45333 246.403 10.16C246.79 10.8533 246.983 11.7467 246.983 12.84V19H243.863V13.32C243.863 12.4533 243.683 11.8133 243.323 11.4C242.963 10.9867 242.457 10.78 241.803 10.78C241.35 10.78 240.943 10.8867 240.583 11.1C240.223 11.3 239.943 11.6067 239.743 12.02C239.543 12.4333 239.443 12.96 239.443 13.6V19H236.323V13.32C236.323 12.4533 236.143 11.8133 235.783 11.4C235.437 10.9867 234.937 10.78 234.283 10.78C233.83 10.78 233.423 10.8867 233.063 11.1C232.703 11.3 232.423 11.6067 232.223 12.02C232.023 12.4333 231.923 12.96 231.923 13.6V19H228.803V8.24H231.783V11.18L231.223 10.32C231.597 9.58667 232.123 9.03333 232.803 8.66C233.497 8.27333 234.283 8.08 235.163 8.08C236.15 8.08 237.01 8.33333 237.743 8.84C238.49 9.33333 238.983 10.0933 239.223 11.12L238.123 10.82C238.483 9.98 239.057 9.31333 239.843 8.82C240.643 8.32667 241.557 8.08 242.583 8.08Z" fill="#111111"/>
</svg>
